<?xml version="1.0" standalone="no"?>
<!DOCTYPE svg PUBLIC "-//W3C//DTD SVG 20010904//EN"
 "http://www.w3.org/TR/2001/REC-SVG-20010904/DTD/svg10.dtd">
<svg version="1.0" xmlns="http://www.w3.org/2000/svg"
 width="901.000000pt" height="901.000000pt" viewBox="0 0 901.000000 901.000000"
 preserveAspectRatio="xMidYMid meet">
<metadata>
Created by potrace 1.11, written by Peter Selinger 2001-2013
</metadata>
<g transform="translate(0.000000,901.000000) scale(0.100000,-0.100000)"
fill="#000000" stroke="none">
<path d="M1642 6320 l-34 -5 -2 -1370 c-1 -753 -6 -1383 -9 -1400 -79 -335
-215 -447 -547 -449 -149 0 -241 19 -327 70 -175 104 -245 289 -247 657 -1 70
-5 117 -11 118 -5 1 -113 2 -238 3 l-228 1 2 -175 c5 -298 38 -461 130 -628
46 -85 128 -180 214 -250 66 -53 212 -121 318 -149 82 -21 77 -20 217 -39 94
-13 326 -4 435 17 28 5 61 11 75 14 89 17 239 82 329 143 69 47 160 141 212
220 44 67 101 195 113 253 21 108 26 136 32 191 9 78 11 2756 3 2770 -6 10
-377 17 -437 8z"/>
<path d="M2169 6305 c0 -11 0 -649 -1 -1418 0 -768 -4 -1416 -8 -1440 -5 -23
-10 -60 -14 -82 -3 -22 -12 -61 -20 -87 -8 -27 -11 -48 -8 -48 3 0 1 -5 -6
-12 -7 -7 -12 -18 -12 -25 0 -8 -16 -46 -35 -86 l-35 -72 0 -167 c0 -128 3
-168 13 -169 104 -4 1851 1 1898 6 127 13 349 80 399 120 8 7 23 15 33 18 82
30 268 201 345 319 244 375 217 913 -59 1204 -101 106 -200 165 -362 219
l-100 32 73 37 c100 51 153 89 232 168 75 75 134 169 173 271 45 120 55 185
56 347 1 217 -51 374 -176 530 -52 65 -143 154 -180 177 -144 90 -196 110
-355 137 -216 35 -298 38 -1137 40 -707 1 -713 1 -714 -19z m1531 -399 c197
-21 318 -67 409 -158 100 -99 142 -231 136 -428 -6 -210 -69 -337 -217 -438
-52 -35 -195 -86 -273 -97 -27 -3 -66 -9 -85 -12 -68 -10 -1150 -9 -1151 2 -3
19 -5 1130 -3 1135 4 8 1100 4 1184 -4z m110 -1559 c14 -3 53 -10 87 -16 258
-48 439 -202 489 -418 14 -60 13 -258 -1 -326 -46 -213 -176 -364 -377 -436
-122 -44 -152 -45 -838 -46 l-655 0 -1 620 c0 341 1 623 3 627 4 8 1253 3
1293 -5z"/>
<path d="M4440 6297 c0 -5 9 -45 21 -89 13 -54 27 -87 42 -98 126 -100 230
-247 277 -391 42 -128 54 -263 37 -415 -7 -56 -13 -86 -47 -205 -12 -43 -11
-55 19 -170 18 -68 34 -131 35 -139 4 -16 122 -475 206 -805 90 -347 119 -463
186 -725 36 -140 83 -323 105 -407 21 -83 39 -154 39 -157 0 -3 114 -6 254 -6
l253 0 15 58 c14 53 152 554 233 847 20 72 38 139 41 150 2 11 11 43 19 70 8
28 38 133 66 235 27 102 75 275 105 385 31 110 69 248 85 308 16 59 42 155 58
215 16 59 66 240 111 402 45 162 83 302 85 310 2 8 7 25 12 38 10 27 6 40 154
-508 11 -41 32 -115 45 -165 14 -49 27 -97 29 -105 2 -8 26 -98 54 -200 27
-102 57 -210 65 -240 8 -30 30 -111 49 -180 19 -69 58 -213 87 -320 28 -107
60 -224 70 -260 16 -55 174 -635 185 -680 2 -8 20 -73 40 -145 20 -71 37 -137
39 -145 2 -8 7 -27 11 -43 l7 -27 252 0 253 0 37 138 c20 75 38 144 41 154 2
9 38 144 80 300 148 549 167 621 170 637 2 9 59 219 125 466 67 248 136 506
154 575 19 69 77 287 130 485 54 198 99 367 101 375 2 8 31 118 65 244 33 126
58 231 55 235 -4 3 -110 6 -237 6 -196 0 -231 -2 -238 -15 -4 -8 -36 -130 -70
-270 -34 -140 -63 -259 -64 -265 -2 -5 -6 -21 -9 -35 -4 -14 -31 -126 -61
-250 -30 -124 -82 -337 -116 -475 -149 -608 -229 -938 -235 -965 -2 -8 -22
-89 -44 -179 -23 -91 -43 -174 -46 -185 -2 -12 -20 -86 -40 -166 -20 -80 -38
-158 -42 -173 -7 -34 -20 -24 -28 22 -3 19 -8 37 -10 41 -2 3 -6 17 -9 31 -3
13 -10 42 -16 64 -6 22 -12 47 -14 55 -3 8 -27 101 -56 205 -28 105 -53 197
-55 205 -5 21 -42 161 -266 1005 -264 991 -295 1107 -318 1195 -10 41 -25 93
-33 115 l-13 40 -253 0 c-139 0 -257 -2 -262 -5 -6 -4 -89 -300 -181 -650 -44
-165 -131 -488 -145 -535 -8 -27 -53 -194 -100 -370 -47 -176 -95 -351 -105
-390 -10 -38 -21 -83 -24 -99 -3 -16 -7 -32 -9 -35 -4 -5 -192 -700 -202 -741
-17 -76 -51 -182 -56 -175 -3 6 -9 26 -13 45 -4 19 -18 80 -31 135 -35 149
-96 408 -99 425 -2 8 -27 112 -55 230 -27 118 -64 274 -81 345 -17 72 -32 137
-34 145 -43 180 -78 328 -90 380 -8 36 -35 151 -60 255 -25 105 -47 199 -49
210 -2 11 -16 70 -31 130 -14 61 -39 164 -55 230 -15 66 -47 199 -70 295 l-41
175 -245 0 c-134 0 -244 -4 -244 -8z"/>
</g>
</svg>
