<?xml version="1.0" encoding="UTF-8"?>
<svg xmlns="http://www.w3.org/2000/svg" xmlns:xlink="http://www.w3.org/1999/xlink" version="1.2" >
<font id="Tiempos Fine Light Italic">
<font-face  font-family="Tiempos Fine" units-per-em="1000" ascent="760" descent="-240" font-style="italic" font-weight="300" font-stretch="normal" slope="-12" cap-height="702" x-height="520" underline-position="-100" underline-thickness="50" />
<missing-glyph  horiz-adv-x="960" d="M870 780 L90 780 L90 0 L870 0 L870 780 Z M480 435 L201 714 L759 714 L480 435 Z M160 665 L435 390 L160 115 L160 665 Z M800 115 L525 390 L800 665 L800 115 Z M201 66 L480 345 L759 66 L201 66 Z " />
<glyph glyph-name="NULL" d="" />
<glyph glyph-name="CR" unicode="&#xd;" horiz-adv-x="250" d="" />
<glyph glyph-name="space" unicode="&#x20;" horiz-adv-x="200" d="" />
<glyph glyph-name="uni000D" horiz-adv-x="200" d="" />
<glyph glyph-name="exclam" unicode="&#x21;" horiz-adv-x="238" d="M160 702 L96 193 L103 193 L281 702 L160 702 Z M27 10 C40 -2 57 -10 76 -10 C95 -10 112 -2 125 10 C137 23 145 40 145 59 C145 78 137 95 125 108 C112 120 95 128 76 128 C57 128 40 120 27 108 C15 95 7 78 7 59 C7 40 15 23 27 10 L27 10 Z " />
<glyph glyph-name="quotedbl" unicode="&#x22;" horiz-adv-x="253" d="M189 650 C196 663 200 675 204 684 C208 699 211 710 211 721 C211 748 197 762 172 762 C156 762 143 755 134 742 C126 731 122 715 118 687 L113 627 L98 474 L100 474 L172 616 L189 650 Z M306 650 C313 663 317 675 321 684 C325 699 328 710 328 721 C328 748 314 762 289 762 C273 762 260 755 251 742 C243 731 239 715 235 687 L230 627 L215 474 L217 474 L289 616 L306 650 Z " />
<glyph glyph-name="numbersign" unicode="&#x23;" horiz-adv-x="545" d="M156 235 L336 235 L262 1 L279 -5 L355 235 L465 235 L465 254 L361 254 L424 454 L536 454 L536 473 L430 473 L504 707 L487 713 L411 473 L231 473 L305 707 L288 713 L212 473 L102 473 L102 454 L206 454 L143 254 L31 254 L31 235 L137 235 L63 1 L80 -5 L156 235 Z M405 454 L342 254 L162 254 L225 454 L405 454 Z " />
<glyph glyph-name="dollar" unicode="&#x24;" horiz-adv-x="539" d="M214 -10 L219 -10 C260 -10 301 -1 338 16 C378 33 411 59 434 91 C459 124 473 164 473 205 C473 229 469 252 460 272 C452 292 440 311 421 328 C408 343 391 357 368 370 C356 378 348 383 309 406 L375 694 C447 679 485 615 486 506 L495 506 L523 653 C480 682 429 703 378 710 L400 806 L383 806 L361 711 C357 712 353 712 341 712 C301 712 263 705 230 690 C194 675 162 651 141 622 C117 591 104 554 104 517 C104 493 109 471 118 451 C127 431 140 414 159 397 C172 384 190 370 213 357 L247 336 L273 321 L201 6 C105 15 54 90 50 229 L40 229 L14 62 C35 42 65 24 100 11 C131 0 163 -8 198 -9 L174 -113 L191 -113 L214 -10 Z M230 656 C257 683 295 698 338 698 C350 698 354 698 358 697 L294 415 C258 436 237 452 221 468 C198 492 187 517 187 548 C187 589 202 628 230 656 L230 656 Z M344 48 C315 20 273 5 222 5 L218 5 L288 312 C323 291 344 273 360 254 C380 229 390 202 390 170 C390 119 375 77 344 48 L344 48 Z " />
<glyph glyph-name="percent" unicode="&#x25;" horiz-adv-x="648" d="M118 442 C138 419 166 408 199 408 C231 408 261 417 289 434 C314 451 337 475 353 503 C369 532 378 564 378 593 C378 626 368 657 348 678 C328 701 300 712 267 712 C235 712 205 703 177 686 C152 669 129 645 113 617 C97 588 88 556 88 527 C88 494 98 463 118 442 L118 442 Z M675 712 L652 712 L5 -10 L28 -10 L675 712 Z M166 574 C174 603 186 630 198 651 C218 683 240 699 263 699 C294 699 309 677 309 629 C309 605 304 575 296 546 C288 517 276 490 263 469 C243 437 221 421 198 421 C167 421 153 443 153 491 C153 515 158 545 166 574 L166 574 Z M562 260 C542 283 514 294 481 294 C449 294 419 285 391 268 C366 251 343 227 327 199 C311 170 302 138 302 109 C302 76 312 45 332 24 C352 1 380 -10 413 -10 C445 -10 475 -1 503 16 C528 33 551 57 567 85 C583 114 592 146 592 175 C592 208 582 239 562 260 L562 260 Z M510 128 C502 99 490 72 477 51 C457 19 435 3 412 3 C381 3 367 25 367 73 C367 97 372 127 380 156 C388 185 400 212 412 233 C432 265 454 281 477 281 C508 281 523 259 523 211 C523 187 518 157 510 128 L510 128 Z " />
<glyph glyph-name="ampersand" unicode="&#x26;" horiz-adv-x="670" d="M640 10 C589 14 536 55 489 127 L477 146 C510 194 538 254 562 326 C571 354 584 367 605 375 C620 380 641 383 673 383 L675 394 L459 394 L457 383 C481 383 497 381 509 374 C525 366 532 352 532 331 C532 306 525 274 512 242 C501 213 487 185 468 160 L309 404 C449 444 521 507 521 588 C521 624 504 657 472 680 C445 701 409 712 369 712 C317 712 268 692 231 659 C194 623 172 576 172 524 C172 477 187 433 216 388 C159 369 111 343 76 311 C32 271 10 223 10 170 C10 118 32 71 71 38 C108 7 158 -10 211 -10 C290 -10 359 19 418 76 C430 59 442 45 451 34 C464 18 477 8 492 0 L637 0 L640 10 Z M264 485 C256 508 251 532 251 557 C251 594 259 627 274 651 C294 682 321 698 356 698 C385 698 409 687 424 664 C437 645 444 619 444 588 C444 545 431 509 404 477 C380 450 347 428 304 412 L299 420 C282 447 272 465 264 485 L264 485 Z M135 310 C155 339 185 364 221 379 L384 127 C387 122 390 117 398 106 C403 98 404 95 407 92 C359 52 307 31 254 31 C207 31 167 48 140 83 C116 112 104 154 104 205 C104 244 115 279 135 310 L135 310 Z " />
<glyph glyph-name="quotesingle" unicode="&#x27;" horiz-adv-x="136" d="M189 650 C196 663 200 675 204 684 C208 699 211 710 211 721 C211 748 197 762 172 762 C156 762 143 755 134 742 C126 731 122 715 118 687 L113 627 L98 474 L100 474 L172 616 L189 650 Z " />
<glyph glyph-name="parenleft" unicode="&#x28;" horiz-adv-x="338" d="M72 197 C72 80 120 -29 223 -142 L236 -142 C204 -98 182 -49 169 7 C157 55 152 108 152 172 C152 239 165 317 189 394 C212 466 244 535 283 598 C324 666 374 723 430 770 L417 770 C313 693 233 610 174 522 C106 419 72 310 72 197 L72 197 Z " />
<glyph glyph-name="parenright" unicode="&#x29;" horiz-adv-x="338" d="M290 431 C290 548 242 657 139 770 L126 770 C158 726 180 677 193 621 C205 573 210 520 210 456 C210 389 197 311 173 234 C150 162 118 93 79 30 C38 -38 -12 -95 -68 -142 L-55 -142 C49 -65 129 18 188 106 C256 209 290 318 290 431 L290 431 Z " />
<glyph glyph-name="asterisk" unicode="&#x2a;" horiz-adv-x="403" d="M442 635 C435 639 425 639 416 635 L280 590 L354 712 C359 721 361 730 360 738 C359 746 353 753 344 757 C335 761 326 759 319 754 C312 749 309 742 306 731 L277 591 L209 716 C204 725 197 731 190 734 C182 738 173 735 165 730 C158 723 154 715 155 707 C156 699 160 691 168 684 L275 589 L133 592 C122 592 113 590 108 585 C101 578 98 570 99 561 C100 552 106 544 114 541 C121 537 131 537 140 541 L275 586 L202 464 C197 455 195 446 196 438 C197 430 203 423 212 419 C221 415 230 417 237 422 C244 427 247 434 250 445 L278 585 L347 460 C352 451 359 445 366 442 C374 438 383 441 391 446 C398 453 402 461 401 469 C400 477 396 485 388 492 L281 587 L423 584 C434 584 443 586 448 591 C455 598 458 606 457 615 C456 624 450 632 442 635 L442 635 Z " />
<glyph glyph-name="plus" unicode="&#x2b;" horiz-adv-x="564" d="M235 142 L257 142 L301 350 L509 350 L514 372 L306 372 L350 580 L328 580 L284 372 L76 372 L71 350 L279 350 L235 142 Z " />
<glyph glyph-name="comma" unicode="&#x2c;" horiz-adv-x="200" d="M24 -73 C0 -93 -27 -108 -52 -112 L-52 -117 C-8 -113 32 -97 63 -69 C98 -40 117 0 117 41 C117 61 112 80 101 93 C89 108 72 116 52 116 C35 116 19 110 8 99 C-4 88 -10 72 -10 55 C-10 40 -5 27 4 18 C13 9 26 2 39 -1 L68 -1 C65 -24 49 -50 24 -73 L24 -73 Z " />
<glyph glyph-name="hyphen" unicode="&#x2d;" horiz-adv-x="320" d="M41 318 L33 283 L293 283 L301 318 L41 318 Z " />
<glyph glyph-name="period" unicode="&#x2e;" horiz-adv-x="200" d="M5 10 C18 -2 35 -10 54 -10 C73 -10 90 -2 103 10 C115 23 123 40 123 59 C123 78 115 95 103 108 C90 120 73 128 54 128 C35 128 18 120 5 108 C-7 95 -15 78 -15 59 C-15 40 -7 23 5 10 L5 10 Z " />
<glyph glyph-name="slash" unicode="&#x2f;" horiz-adv-x="358" d="M-75 -141 L-54 -141 L439 770 L418 770 L-75 -141 Z " />
<glyph glyph-name="zero" unicode="0" horiz-adv-x="596" d="M432 73 C479 118 518 179 545 248 C572 316 586 388 586 456 C586 523 568 584 536 631 C499 683 444 712 380 712 C313 712 248 684 191 629 C144 584 105 523 78 454 C51 386 37 314 37 246 C37 179 55 118 87 71 C124 19 179 -10 243 -10 C310 -10 375 18 432 73 L432 73 Z M152 93 C143 128 138 173 138 230 C138 290 146 355 162 418 C179 485 203 545 234 593 C277 661 327 698 380 698 C451 698 485 624 485 472 C485 412 476 347 460 284 C444 217 418 157 389 109 C345 41 295 4 242 4 C198 4 168 33 152 93 L152 93 Z " />
<glyph glyph-name="one" unicode="1" horiz-adv-x="403" d="M336 14 C305 15 289 16 276 19 C248 23 233 32 226 48 C221 61 220 80 225 107 L353 712 L347 712 C312 675 282 651 251 635 C219 619 184 609 132 602 L89 596 L87 589 L233 589 L127 86 C120 59 112 45 99 36 C88 27 72 23 44 19 L-15 14 L-18 0 L333 0 L336 14 L336 14 Z " />
<glyph glyph-name="two" unicode="2" horiz-adv-x="531" d="M461 188 C445 161 431 142 418 127 C399 107 380 94 356 89 C339 84 318 82 282 82 L76 82 C112 111 150 142 205 183 L256 222 C290 247 316 267 335 282 C391 327 428 361 455 393 C496 442 515 490 515 541 C515 590 499 632 468 664 C439 695 395 712 347 712 C294 712 241 696 197 664 C154 635 119 593 95 542 L100 537 C125 568 154 593 186 609 C221 629 257 638 294 638 C330 638 362 627 383 607 C406 586 418 555 418 520 C418 472 405 433 377 389 C356 357 327 323 286 283 C258 255 224 224 183 188 C152 161 117 131 76 98 C44 71 7 41 -34 8 L-36 0 L411 0 L471 188 L461 188 L461 188 Z " />
<glyph glyph-name="three" unicode="3" horiz-adv-x="517" d="M440 462 C479 494 500 533 501 580 C502 619 486 653 458 677 C431 700 394 712 354 712 C305 712 257 697 216 669 C179 642 146 605 122 558 L128 554 C151 582 177 606 206 622 C237 639 271 649 304 649 C333 649 358 640 377 623 C396 606 406 581 406 553 C406 501 380 455 332 419 C295 390 245 368 186 353 L188 346 C215 353 232 354 253 354 C294 354 328 338 351 309 C371 282 382 246 382 202 C382 149 366 101 337 65 C305 26 259 4 210 4 C170 4 138 18 117 46 C98 70 89 105 89 146 C89 161 90 172 94 184 C95 193 100 204 107 219 L62 219 C46 214 30 201 18 185 C6 169 0 149 0 132 C0 101 11 72 34 48 C53 27 80 11 113 2 C141 -6 171 -10 206 -10 C247 -10 291 2 334 23 C374 43 410 73 435 106 C463 143 477 186 477 230 C477 258 469 287 456 311 C443 336 423 357 399 372 C375 387 349 394 318 397 C371 416 411 437 440 462 L440 462 Z " />
<glyph glyph-name="four" unicode="4" horiz-adv-x="605" d="M296 41 C288 30 277 25 257 21 C246 18 234 17 210 14 L207 0 L477 0 L480 14 L438 20 C418 24 409 31 405 43 C402 52 403 64 406 85 L431 203 L436 224 L556 224 L560 242 L439 242 L539 702 L491 702 L13 228 L11 224 L341 224 L312 85 C307 61 303 49 296 41 L296 41 Z M345 242 L53 242 L424 608 L345 242 Z " />
<glyph glyph-name="five" unicode="5" horiz-adv-x="518" d="M123 46 C100 71 89 105 89 144 C89 171 95 196 107 219 L58 219 C41 211 27 199 16 184 C5 168 0 151 0 131 C0 100 13 72 38 48 C58 28 86 12 119 3 C147 -6 178 -10 213 -10 C256 -10 298 0 335 21 C374 41 406 70 429 105 C453 142 466 184 466 225 C466 306 427 369 354 406 C298 435 222 449 134 446 L181 605 L478 605 L529 741 L520 741 C512 729 506 721 501 716 C492 707 484 702 476 699 C469 698 464 697 445 697 L192 697 L91 369 C172 373 235 367 282 348 C347 321 381 271 381 198 C381 146 366 100 338 64 C307 25 264 4 216 4 C179 4 146 19 123 46 L123 46 Z " />
<glyph glyph-name="six" unicode="6" horiz-adv-x="550" d="M464 379 C431 416 382 436 326 436 C293 436 260 429 229 414 C200 401 173 380 149 355 C173 442 223 517 295 578 C359 634 441 676 534 701 L527 711 C442 698 363 671 295 632 C219 589 156 534 112 470 C63 399 37 320 37 240 C37 171 57 110 96 65 C136 17 195 -10 260 -10 C303 -10 346 2 385 25 C424 46 456 78 479 115 C503 152 516 195 516 238 C516 293 497 343 464 379 L464 379 Z M145 339 C181 371 228 390 275 390 C320 390 358 371 385 336 C408 304 420 262 420 214 C420 162 406 113 382 76 C353 31 309 5 262 5 C213 5 176 33 155 85 C139 122 132 170 132 227 C132 268 136 306 145 339 L145 339 Z " />
<glyph glyph-name="seven" unicode="7" horiz-adv-x="499" d="M144 0 L564 698 L565 702 L140 702 L60 527 L71 527 C95 560 111 577 128 590 C149 606 176 613 208 613 L503 613 L56 0 L144 0 Z " />
<glyph glyph-name="eight" unicode="8" horiz-adv-x="545" d="M469 271 C457 292 441 312 417 332 C401 345 383 360 351 380 C398 391 441 411 473 438 C512 471 532 513 532 557 C532 606 510 648 469 676 C434 699 386 712 334 712 C298 712 263 704 231 688 C198 671 170 647 150 619 C129 588 118 554 118 519 C118 484 128 454 145 427 C161 404 183 383 215 360 C160 348 115 326 82 298 C42 263 21 220 21 169 C21 133 34 99 58 70 C79 43 110 24 146 9 C178 -3 215 -10 252 -10 C292 -10 331 -2 364 14 C401 30 432 55 453 86 C476 117 488 154 488 193 C488 221 481 247 469 271 L469 271 Z M236 652 C259 683 294 699 334 699 C371 699 402 685 423 657 C443 633 453 599 453 563 C453 523 444 487 425 456 C406 425 378 401 342 386 L281 426 C257 445 240 461 228 477 C212 498 205 520 205 544 C205 588 216 624 236 652 L236 652 Z M138 282 C159 314 189 339 226 352 L265 327 L301 304 C334 283 355 266 370 247 C390 223 400 197 400 166 C400 119 386 80 361 52 C334 21 295 4 252 4 C208 4 169 21 144 56 C120 85 108 127 108 174 C108 213 118 251 138 282 L138 282 Z " />
<glyph glyph-name="nine" unicode="9" horiz-adv-x="550" d="M481 637 C441 685 382 712 317 712 C274 712 231 700 192 677 C153 656 121 624 98 587 C74 550 61 507 61 464 C61 409 80 359 113 323 C146 286 195 266 251 266 C284 266 317 273 348 288 C377 301 404 322 428 347 C404 260 354 185 282 124 C218 68 136 26 43 1 L50 -9 C135 4 214 31 282 70 C358 113 421 168 465 232 C514 303 540 382 540 462 C540 531 520 592 481 637 L481 637 Z M195 626 C224 671 268 697 315 697 C364 697 401 669 422 617 C438 580 445 532 445 475 C445 434 441 396 432 363 C396 331 349 312 302 312 C257 312 219 331 192 366 C169 398 157 440 157 488 C157 540 171 589 195 626 L195 626 Z " />
<glyph glyph-name="colon" unicode="&#x3a;" horiz-adv-x="200" d="M75 352 C88 340 105 332 124 332 C143 332 160 340 173 352 C185 365 193 382 193 401 C193 420 185 437 173 450 C160 462 143 470 124 470 C105 470 88 462 75 450 C63 437 55 420 55 401 C55 382 63 365 75 352 L75 352 Z M5 10 C18 -2 35 -10 54 -10 C73 -10 90 -2 103 10 C115 23 123 40 123 59 C123 78 115 95 103 108 C90 120 73 128 54 128 C35 128 18 120 5 108 C-7 95 -15 78 -15 59 C-15 40 -7 23 5 10 L5 10 Z " />
<glyph glyph-name="semicolon" unicode="&#x3b;" horiz-adv-x="200" d="M75 352 C88 340 105 332 124 332 C143 332 160 340 173 352 C185 365 193 382 193 401 C193 420 185 437 173 450 C160 462 143 470 124 470 C105 470 88 462 75 450 C63 437 55 420 55 401 C55 382 63 365 75 352 L75 352 Z M23 -73 C-1 -93 -28 -108 -53 -112 L-53 -117 C-9 -113 31 -97 62 -69 C97 -40 116 0 116 41 C116 61 111 80 100 93 C88 108 71 116 51 116 C34 116 18 110 7 99 C-5 88 -11 72 -11 55 C-11 40 -6 27 3 18 C12 9 25 2 38 -1 L67 -1 C64 -24 48 -50 23 -73 L23 -73 Z " />
<glyph glyph-name="less" unicode="&#x3c;" horiz-adv-x="412" d="M335 198 L98 362 L405 525 L411 555 L61 366 L59 358 L329 169 L335 198 Z " />
<glyph glyph-name="equal" unicode="&#x3d;" horiz-adv-x="564" d="M536 442 L98 442 L93 420 L531 420 L536 442 Z M504 302 L66 302 L61 280 L499 280 L504 302 Z " />
<glyph glyph-name="greater" unicode="&#x3e;" horiz-adv-x="412" d="M114 555 L108 526 L345 362 L38 199 L32 169 L382 358 L384 366 L114 555 Z " />
<glyph glyph-name="question" unicode="&#x3f;" horiz-adv-x="440" d="M229 416 C212 404 199 393 188 382 C175 369 165 354 158 338 C151 322 148 305 148 286 C148 267 154 249 166 232 C177 216 192 202 209 193 L213 193 C206 214 205 225 205 234 C205 257 211 277 223 296 C232 312 248 326 268 341 C280 350 295 360 323 376 L355 395 L386 414 L415 436 C424 444 432 453 440 462 C448 471 454 482 459 491 C464 502 468 513 471 525 C474 537 475 550 475 563 C475 608 455 648 418 675 C386 699 342 712 293 712 C249 712 207 703 174 684 C131 661 107 626 107 589 C107 577 110 566 114 555 C119 544 126 535 134 528 L201 528 C201 531 197 545 196 553 C195 562 194 572 194 580 C194 613 202 642 218 663 C237 686 262 699 293 699 C324 699 349 689 366 672 C383 653 392 628 392 597 C392 573 387 552 376 532 C365 515 351 498 330 482 C318 473 303 462 274 445 C239 424 237 421 229 416 L229 416 Z M120 10 C133 -2 150 -10 169 -10 C188 -10 205 -2 218 10 C230 23 238 40 238 59 C238 78 230 95 218 108 C205 120 188 128 169 128 C150 128 133 120 120 108 C108 95 100 78 100 59 C100 40 108 23 120 10 L120 10 Z " />
<glyph glyph-name="at" unicode="&#x40;" horiz-adv-x="847" d="M719 130 C751 159 777 198 796 243 C815 287 825 334 825 379 C825 474 791 554 730 609 C671 661 588 688 491 688 C410 688 331 666 262 626 C193 585 136 526 97 454 C58 385 38 306 38 225 C38 157 54 96 86 43 C118 -10 165 -54 224 -82 C277 -109 341 -122 409 -122 C460 -122 510 -112 562 -95 C610 -78 656 -53 700 -24 L697 -19 C648 -44 606 -62 563 -73 C518 -85 470 -91 418 -91 C358 -91 304 -77 256 -49 C208 -21 169 21 144 72 C120 120 107 176 107 236 C107 311 122 383 151 447 C183 515 230 573 287 612 C346 653 416 674 491 674 C578 674 647 646 694 591 C738 540 761 467 761 379 C761 342 755 301 743 262 C731 221 714 182 693 153 C665 113 631 91 598 91 C557 91 544 128 563 203 L621 419 L651 505 L647 505 L569 468 C546 489 515 502 480 502 C439 502 394 482 351 449 C315 420 283 381 262 338 C238 293 226 246 226 202 C226 167 233 138 246 117 C262 90 287 76 319 76 C355 76 388 98 423 142 C444 169 465 205 488 252 C480 205 483 164 498 133 C517 96 550 76 595 76 C638 76 680 95 719 130 L719 130 Z M315 153 C310 165 307 181 307 200 C307 237 315 278 328 318 C341 361 361 398 384 427 C415 467 448 488 483 488 C496 488 511 484 522 477 C534 469 543 459 550 446 C538 403 524 361 508 321 C489 277 468 237 447 205 C412 153 377 125 349 125 C334 125 322 134 315 153 L315 153 Z " />
<glyph glyph-name="A" unicode="A" horiz-adv-x="696" d="M490 68 C490 51 485 37 474 28 C465 20 453 16 434 13 C423 12 413 11 389 10 L387 0 L648 0 L650 10 C630 13 623 14 618 17 C607 21 600 28 595 37 C590 45 587 55 584 70 L464 711 L375 711 L385 653 L34 57 C23 38 13 29 -2 22 C-13 17 -25 14 -54 10 L-56 0 L141 0 L143 10 C122 11 105 12 93 15 C70 20 60 29 60 44 C60 55 65 70 80 94 L188 280 L453 280 L487 93 C488 85 490 75 490 68 L490 68 Z M450 298 L199 298 L390 627 L450 298 Z " />
<glyph glyph-name="B" unicode="B" horiz-adv-x="617" d="M278 0 C325 0 370 8 410 21 C455 37 494 60 522 91 C554 126 570 167 570 212 C570 259 548 296 508 324 C476 344 433 359 380 364 C436 371 489 390 526 418 C571 453 596 499 596 552 C596 601 572 642 531 669 C496 692 450 702 394 702 L123 702 L121 692 C149 689 155 687 163 686 C183 682 192 675 196 663 C199 654 198 641 194 621 L80 81 C75 58 71 46 63 37 C55 28 44 21 24 17 C13 14 1 13 -23 10 L-26 0 L278 0 Z M465 647 C488 623 500 589 500 548 C500 492 481 447 442 416 C407 387 359 372 302 372 L236 372 L302 684 L366 684 C407 684 441 671 465 647 L465 647 Z M430 319 C457 294 472 258 472 214 C472 151 453 102 417 69 C382 36 331 18 271 18 L259 18 C227 18 206 21 193 28 C174 37 168 54 175 85 L232 354 L320 354 C365 354 403 342 430 319 L430 319 Z " />
<glyph glyph-name="C" unicode="C" horiz-adv-x="644" d="M587 642 C612 610 625 563 624 506 L633 506 L664 653 C639 672 606 686 569 697 C536 706 500 711 464 711 C388 711 316 689 252 646 C191 606 139 548 102 480 C65 412 45 337 45 265 C45 182 69 113 116 65 C163 16 231 -10 314 -10 C398 -10 470 7 543 44 L594 222 L585 222 C554 154 521 104 484 69 C437 25 384 4 317 4 C253 4 206 34 178 93 C157 136 146 194 146 265 C146 326 159 393 183 456 C207 523 243 580 286 621 C337 672 397 697 461 697 C517 697 559 678 587 642 L587 642 Z " />
<glyph glyph-name="D" unicode="D" horiz-adv-x="700" d="M257 0 C336 0 410 18 475 51 C543 87 599 139 636 203 C673 267 692 340 692 420 C692 512 658 585 591 636 C534 679 453 702 357 702 L124 702 L122 692 C150 689 156 687 164 686 C184 682 193 675 197 663 C200 654 199 641 195 621 L80 82 C75 59 71 47 63 38 C55 29 44 22 24 18 C13 15 1 14 -23 11 L-26 0 L257 0 Z M532 611 C571 566 591 501 591 420 C591 352 580 287 557 231 C532 167 493 114 444 77 C392 38 330 17 265 17 L250 17 C217 17 198 21 187 29 C174 40 169 57 176 88 L302 684 L347 684 C428 684 491 659 532 611 L532 611 Z " />
<glyph glyph-name="E" unicode="E" horiz-adv-x="614" d="M575 200 C544 147 515 106 486 78 C445 37 402 18 351 18 L258 18 C226 18 205 20 193 27 C173 36 167 53 174 84 L232 354 L394 354 C426 354 444 344 452 324 C457 309 458 291 457 254 L468 254 L514 472 L503 472 C491 439 479 418 467 403 C450 382 427 372 398 372 L236 372 L303 684 L473 684 C506 684 529 680 546 669 C565 657 578 638 589 609 C596 590 601 566 606 535 L615 535 L646 702 L124 702 L122 692 C150 689 156 687 164 686 C184 682 193 675 197 663 C200 654 199 641 195 621 L79 81 C74 58 70 46 62 37 C54 28 43 21 23 17 C12 14 0 13 -24 10 L-26 0 L509 0 L585 200 L575 200 Z " />
<glyph glyph-name="F" unicode="F" horiz-adv-x="563" d="M62 37 C54 28 43 21 23 17 C12 14 0 13 -24 10 L-26 0 L281 0 L284 12 C260 13 244 16 229 19 C204 23 188 30 180 41 C172 53 171 69 176 94 L232 354 L370 354 C402 354 420 344 428 324 C433 309 434 291 433 254 L444 254 L490 472 L479 472 C467 439 455 418 443 403 C426 382 403 372 374 372 L236 372 L302 684 L454 684 C486 684 509 678 528 666 C547 653 559 633 570 604 C577 584 581 560 585 529 L594 529 L627 702 L124 702 L121 690 C149 687 155 685 163 684 C183 680 192 673 196 661 C199 652 198 639 194 619 L79 81 C74 58 70 46 62 37 L62 37 Z " />
<glyph glyph-name="G" unicode="G" horiz-adv-x="697" d="M467 50 C446 33 422 22 395 14 C372 9 347 5 315 5 C252 5 206 35 178 94 C157 138 147 195 147 266 C147 327 160 394 184 457 C208 524 244 581 287 622 C338 673 398 698 462 698 C518 698 563 680 591 644 C618 612 631 566 630 507 L639 507 L670 653 C643 672 609 687 573 698 C538 707 502 712 465 712 C389 712 317 690 253 647 C192 607 140 549 103 481 C66 413 46 338 46 266 C46 182 70 113 117 65 C164 16 232 -10 315 -10 C363 -10 404 -4 444 8 C480 19 516 35 561 62 L600 245 C607 277 614 292 627 301 C639 309 657 313 690 316 L692 326 L440 326 L438 316 L480 310 C501 306 510 299 514 287 C517 278 515 265 511 245 L467 50 L467 50 Z " />
<glyph glyph-name="H" unicode="H" horiz-adv-x="771" d="M306 665 C314 674 325 681 345 685 C356 688 368 689 392 692 L394 702 L124 702 L122 692 C150 689 156 687 164 686 C184 682 193 675 197 663 C200 654 199 641 195 621 L79 81 C74 58 70 46 62 37 C54 28 43 21 23 17 C12 14 0 13 -24 10 L-26 0 L244 0 L246 10 C218 13 212 15 204 16 C184 20 175 27 171 39 C168 48 169 61 173 81 L232 355 L583 355 L524 81 C519 58 515 46 507 37 C499 28 488 21 468 17 C457 14 445 13 421 10 L419 0 L689 0 L691 10 C663 13 657 15 649 16 C629 20 620 27 616 39 C613 48 614 61 618 81 L734 621 C739 644 743 656 751 665 C759 674 770 681 790 685 C801 688 813 689 837 692 L839 702 L569 702 L567 692 C595 689 601 687 609 686 C629 682 638 675 642 663 C645 654 644 641 640 621 L587 373 L236 373 L289 621 C294 644 298 656 306 665 L306 665 Z " />
<glyph glyph-name="I" unicode="I" horiz-adv-x="326" d="M306 665 C314 674 325 681 345 685 C356 688 368 689 392 692 L394 702 L124 702 L122 692 C150 689 156 687 164 686 C184 682 193 675 197 663 C200 654 199 641 195 621 L79 81 C74 58 70 46 62 37 C54 28 43 21 23 17 C12 14 0 13 -24 10 L-26 0 L244 0 L246 10 C218 13 212 15 204 16 C184 20 175 27 171 39 C168 48 169 61 173 81 L289 621 C294 644 298 656 306 665 L306 665 Z " />
<glyph glyph-name="J" unicode="J" horiz-adv-x="490" d="M272 167 C263 120 250 86 235 59 C214 20 184 2 144 2 C117 2 97 13 82 33 C71 50 65 73 65 102 C65 126 72 152 87 180 L18 180 C-9 160 -25 129 -25 97 C-25 61 -6 31 29 12 C56 -3 91 -10 132 -10 C199 -10 251 6 291 39 C330 71 355 120 370 187 L461 613 C466 636 470 648 478 657 C486 666 497 673 517 677 C528 680 540 681 564 684 L568 702 L298 702 L294 684 C322 681 328 679 336 678 C356 674 365 667 369 655 C372 646 371 633 367 613 L272 167 L272 167 Z " />
<glyph glyph-name="K" unicode="K" horiz-adv-x="661" d="M366 140 C406 65 433 23 456 0 L621 0 L623 10 C595 11 572 20 552 35 C535 48 519 67 502 92 C490 109 477 131 462 159 L327 412 L594 641 C615 660 636 672 657 680 C677 687 700 691 729 692 L731 702 L515 702 L513 692 C524 692 533 691 540 690 C552 689 562 687 567 686 C579 683 583 678 583 669 C583 662 579 655 572 647 C568 643 565 639 553 630 L247 365 L366 140 Z M306 665 C314 674 325 681 345 685 C356 688 368 689 392 692 L394 702 L124 702 L122 692 C150 689 156 687 164 686 C184 682 193 675 197 663 C200 654 199 641 195 621 L79 81 C74 58 70 46 62 37 C54 28 43 21 23 17 C12 14 0 13 -24 10 L-26 0 L244 0 L246 10 C218 13 212 15 204 16 C184 20 175 27 171 39 C168 48 169 61 173 81 L289 621 C294 644 298 656 306 665 L306 665 Z " />
<glyph glyph-name="L" unicode="L" horiz-adv-x="582" d="M544 200 C515 147 487 108 460 80 C420 37 380 18 332 18 L258 18 C226 18 205 21 192 28 C173 37 167 55 174 86 L289 621 C294 644 298 656 306 665 C314 674 325 681 345 685 C356 688 368 689 392 692 L394 702 L124 702 L122 692 C150 689 156 687 164 686 C184 682 193 675 197 663 C200 654 199 641 195 621 L79 81 C74 58 70 46 62 37 C54 28 43 21 23 17 C12 14 0 13 -24 10 L-26 0 L479 0 L554 200 L544 200 Z " />
<glyph glyph-name="M" unicode="M" horiz-adv-x="890" d="M640 35 C632 26 620 19 597 16 C586 13 573 13 548 10 L546 0 L812 0 L814 10 C786 13 772 15 761 22 C748 30 742 45 745 70 L802 619 C809 648 819 665 835 676 C850 685 870 689 902 692 L904 702 L736 702 C729 681 724 668 711 645 L430 139 L341 645 C338 658 337 666 337 673 C336 682 337 691 338 702 L172 702 L170 692 C201 691 219 685 230 677 C243 666 246 648 239 619 L61 70 C53 45 43 31 27 23 C15 15 -1 13 -32 10 L-34 0 L163 0 L165 10 C142 11 127 13 115 16 C94 23 84 31 83 50 C83 61 85 75 93 98 L254 602 L365 -6 L372 -6 L706 596 L655 82 C652 58 648 44 640 35 L640 35 Z " />
<glyph glyph-name="N" unicode="N" horiz-adv-x="729" d="M263 702 L112 702 L110 692 C130 692 146 685 161 673 C173 664 183 650 196 629 L79 81 C74 58 70 46 62 37 C54 28 43 21 23 17 C12 14 0 13 -24 10 L-26 0 L193 0 L195 10 C174 11 159 12 146 15 C126 19 113 24 105 35 C98 44 97 60 101 81 L212 602 L558 -4 L567 -4 L700 621 C705 644 709 656 717 665 C725 674 736 681 756 685 C767 688 779 689 803 692 L805 702 L585 702 L583 692 C604 691 619 690 632 687 C652 683 665 678 673 667 C680 658 681 642 677 621 L576 137 L263 702 Z " />
<glyph glyph-name="O" unicode="O" horiz-adv-x="696" d="M228 641 C175 598 128 540 95 471 C63 403 45 330 45 262 C45 183 69 115 113 66 C158 17 225 -10 305 -10 C376 -10 444 14 505 61 C560 104 606 162 638 231 C670 298 688 372 688 440 C688 519 664 587 620 636 C575 685 508 712 428 712 C357 712 289 688 228 641 L228 641 Z M559 605 C578 562 587 507 587 440 C587 380 576 315 557 254 C534 187 503 129 466 86 C419 33 363 4 302 4 C243 4 201 36 174 96 C155 139 146 195 146 262 C146 322 157 387 176 448 C199 515 230 572 267 615 C314 668 370 697 431 697 C490 697 532 666 559 605 L559 605 Z " />
<glyph glyph-name="P" unicode="P" horiz-adv-x="581" d="M122 692 C150 689 156 687 164 686 C184 682 193 675 197 663 C200 654 199 641 195 621 L79 79 C74 56 70 44 62 35 C54 26 43 19 23 15 C12 12 0 11 -24 8 L-26 0 L281 0 L283 10 C259 11 241 13 228 16 C203 20 187 27 179 39 C172 50 171 67 176 92 L221 303 L292 303 C344 303 393 310 436 323 C488 339 530 365 559 397 C592 433 610 478 610 529 C610 566 597 601 573 629 C552 656 520 674 483 686 C451 697 414 702 373 702 L124 702 L122 692 Z M350 684 C399 684 440 670 469 643 C498 615 515 574 515 527 C515 463 492 411 451 374 C411 339 355 321 291 321 L225 321 L302 684 L350 684 Z " />
<glyph glyph-name="Q" unicode="Q" horiz-adv-x="696" d="M228 641 C175 598 128 540 95 471 C63 403 45 330 45 262 C45 191 65 127 102 80 C141 29 198 0 269 -8 L309 -102 C330 -153 369 -179 422 -179 C439 -179 456 -176 472 -172 C485 -167 498 -162 517 -151 L517 -148 C498 -147 482 -143 467 -136 C452 -129 438 -119 425 -106 C416 -98 409 -88 390 -67 L341 -8 C406 0 469 29 524 77 C572 120 614 177 643 241 C672 305 688 375 688 440 C688 519 664 587 620 636 C575 685 508 712 428 712 C357 712 289 688 228 641 L228 641 Z M559 605 C578 562 587 507 587 440 C587 380 576 315 557 254 C534 187 503 129 466 86 C419 33 363 4 302 4 C243 4 201 36 174 96 C155 139 146 195 146 262 C146 322 157 387 176 448 C199 515 230 572 267 615 C314 668 370 697 431 697 C490 697 532 666 559 605 L559 605 Z " />
<glyph glyph-name="R" unicode="R" horiz-adv-x="674" d="M122 692 C150 689 156 687 164 686 C184 682 193 675 197 663 C200 654 199 641 195 621 L79 81 C74 58 70 46 62 37 C54 28 43 21 23 17 C12 14 0 13 -24 10 L-26 0 L244 0 L246 10 C218 13 212 15 204 16 C184 20 175 27 171 39 C168 48 169 61 173 81 L226 326 L294 326 L385 140 C418 72 448 25 473 0 L632 0 L634 10 C598 11 569 28 540 63 C521 86 502 116 481 159 L388 338 C447 351 498 375 534 404 C581 441 605 489 605 544 C605 579 594 611 574 636 C554 660 527 678 491 689 C463 697 429 702 392 702 L124 702 L122 692 Z M470 646 C493 622 504 586 504 542 C504 479 482 428 441 393 C404 361 349 344 285 344 L230 344 L303 686 L367 686 C411 686 446 673 470 646 L470 646 Z " />
<glyph glyph-name="S" unicode="S" horiz-adv-x="529" d="M344 698 C440 698 491 633 492 506 L501 506 L529 653 C504 670 474 685 442 696 C410 707 378 712 347 712 C307 712 269 705 236 690 C200 675 168 651 147 622 C123 591 110 554 110 517 C110 488 117 462 130 438 C142 417 160 398 185 378 C200 366 215 356 254 333 C290 312 303 302 316 293 C340 274 356 259 367 240 C380 219 387 195 387 170 C387 121 373 79 345 50 C317 21 277 5 228 5 C168 5 122 28 93 75 C70 112 57 164 56 229 L46 229 L20 62 C44 39 77 20 116 7 C149 -4 186 -10 225 -10 C266 -10 307 -1 344 16 C384 33 417 59 440 91 C465 124 479 164 479 205 C479 237 472 265 457 290 C445 313 426 333 399 354 C382 366 367 377 324 402 C291 422 279 429 266 438 C245 454 228 469 217 485 C204 504 197 525 197 548 C197 589 211 627 238 655 C265 683 301 698 344 698 L344 698 Z " />
<glyph glyph-name="T" unicode="T" horiz-adv-x="641" d="M74 493 C94 530 111 559 126 583 C150 619 172 643 196 659 C223 676 251 684 294 684 L366 684 L238 83 C233 60 227 46 219 37 C210 28 197 22 176 17 C165 14 150 13 125 10 L123 0 L413 0 L415 10 C391 13 380 13 369 16 C348 20 336 27 332 38 C327 49 328 62 332 83 L460 684 L543 684 C584 684 609 676 625 659 C640 644 649 621 657 581 C660 560 664 536 669 493 L678 493 L708 702 L125 702 L65 493 L74 493 Z " />
<glyph glyph-name="U" unicode="U" horiz-adv-x="703" d="M284 665 C292 674 303 681 323 685 C334 688 346 689 370 692 L372 702 L102 702 L100 692 C128 689 134 687 142 686 C162 682 171 675 175 663 C178 654 177 641 173 621 L100 278 C81 193 93 121 133 70 C174 18 242 -10 327 -10 C402 -10 466 13 514 58 C559 101 591 161 607 237 L689 621 C694 644 698 656 706 665 C714 674 725 681 745 685 C756 688 768 689 792 692 L794 702 L596 702 L594 692 C622 689 628 687 636 686 C656 682 665 675 669 663 C672 654 671 641 667 621 L588 254 C572 178 547 123 511 86 C470 45 415 25 340 25 C297 25 262 39 235 64 C210 88 193 123 188 166 C184 201 186 239 195 282 L267 621 C272 644 276 656 284 665 L284 665 Z " />
<glyph glyph-name="V" unicode="V" horiz-adv-x="656" d="M563 692 C584 691 601 690 613 687 C636 682 646 673 646 658 C646 647 641 632 626 608 L346 126 L254 608 C251 623 251 622 251 626 C251 631 250 637 250 644 C250 665 262 678 289 685 C304 689 321 691 352 692 L354 702 L91 702 L89 692 C109 689 116 688 121 685 C132 681 139 674 144 665 C149 657 152 647 155 632 L279 -10 L288 -10 L672 645 C683 664 693 673 708 680 C719 685 731 688 760 692 L762 702 L565 702 L563 692 Z " />
<glyph glyph-name="W" unicode="W" horiz-adv-x="916" d="M569 609 C568 618 567 631 567 642 C567 659 572 669 584 677 C592 682 604 685 623 688 C634 691 648 691 665 692 L667 702 L413 702 L411 692 C430 689 444 685 455 678 C468 669 477 655 478 638 L499 472 L307 123 L244 609 C243 618 242 631 242 642 C242 659 248 670 261 677 C270 682 283 685 302 688 C314 691 329 691 346 692 L348 702 L84 702 L82 692 C101 689 115 685 124 677 C136 668 143 655 146 638 L247 -10 L254 -10 L503 440 L561 -10 L568 -10 L935 638 C946 657 957 670 970 678 C982 686 996 689 1020 692 L1022 702 L827 702 L825 692 C838 692 851 691 860 690 C875 687 886 685 894 682 C907 677 912 668 912 656 C912 649 910 642 905 631 C902 624 893 608 893 608 L621 120 L569 609 Z " />
<glyph glyph-name="X" unicode="X" horiz-adv-x="668" d="M433 67 C436 56 438 51 438 46 C438 29 427 19 400 14 C389 13 374 11 345 10 L343 0 L610 0 L612 10 C572 10 546 27 533 60 L400 389 L632 641 C648 658 663 671 678 678 C695 687 712 691 735 691 L737 702 L516 702 L514 691 C538 691 555 690 568 689 C597 685 610 678 610 663 C610 650 600 632 573 605 L392 409 L312 608 C307 621 303 627 302 634 C298 645 296 652 296 660 C296 676 308 685 335 689 C348 690 363 691 390 691 L393 702 L125 702 L122 691 C145 691 160 688 171 681 C184 673 193 661 201 641 L321 344 L60 60 C41 40 26 27 10 20 C-5 13 -22 10 -51 10 L-53 0 L181 0 L183 10 C160 10 142 11 129 14 C100 18 87 27 87 40 C87 49 91 58 99 70 L121 96 L329 324 L424 89 L433 67 L433 67 Z " />
<glyph glyph-name="Y" unicode="Y" horiz-adv-x="606" d="M247 609 C239 630 238 639 238 652 C238 668 244 677 260 682 C269 686 282 689 299 690 C310 691 324 692 340 692 L342 702 L86 702 L84 692 C101 689 110 686 118 682 C127 677 134 668 139 655 L273 300 L228 83 C223 60 217 46 209 37 C200 28 187 22 166 17 C155 14 140 13 115 10 L113 0 L398 0 L400 10 C376 13 365 13 354 16 C333 20 321 27 317 38 C312 49 313 62 317 83 L365 305 L642 655 C651 667 662 676 674 681 C683 686 694 689 713 692 L715 702 L522 702 L520 692 C533 692 546 691 555 690 C570 689 581 687 589 684 C602 679 609 672 609 660 C609 653 606 644 599 633 C595 626 592 621 581 608 L355 323 L247 609 Z " />
<glyph glyph-name="Z" unicode="Z" horiz-adv-x="603" d="M-19 8 L-20 0 L487 0 L562 200 L553 200 C524 148 496 109 469 80 C428 39 387 18 342 18 L97 18 L655 692 L657 702 L162 702 L120 529 L129 529 C146 560 162 583 175 602 C196 631 215 651 234 664 C257 677 281 684 316 684 L543 684 L-19 8 Z " />
<glyph glyph-name="bracketleft" unicode="&#x5b;" horiz-adv-x="312" d="M284 740 C295 747 309 751 333 754 C344 755 356 757 385 758 L387 770 L205 770 L12 -141 L194 -141 L197 -128 C170 -127 160 -125 149 -124 C126 -121 113 -118 105 -111 C94 -103 92 -89 96 -68 L259 698 C263 718 271 732 284 740 L284 740 Z " />
<glyph glyph-name="backslash" unicode="&#x5c;" horiz-adv-x="362" d="M158 770 L137 770 L244 -141 L265 -141 L158 770 Z " />
<glyph glyph-name="bracketright" unicode="&#x5d;" horiz-adv-x="312" d="M80 -69 C76 -89 68 -103 55 -111 C44 -118 30 -122 6 -125 C-5 -126 -17 -128 -46 -129 L-48 -141 L134 -141 L327 770 L145 770 L142 757 C169 756 179 754 190 753 C213 750 226 747 234 740 C245 732 247 718 243 697 L80 -69 L80 -69 Z " />
<glyph glyph-name="asciicircum" unicode="&#x5e;" horiz-adv-x="462" d="M84 480 L105 480 L332 736 L445 480 L466 480 L362 770 L310 770 L84 480 Z " />
<glyph glyph-name="underscore" unicode="&#x5f;" horiz-adv-x="390" d="M30 -82 L22 -117 L282 -117 L290 -82 L30 -82 Z " />
<glyph glyph-name="grave" unicode="&#x60;" horiz-adv-x="355" d="M320 592 L326 592 L271 761 L166 761 L166 757 L320 592 Z " />
<glyph glyph-name="a" unicode="a" horiz-adv-x="539" d="M509 138 C494 118 480 100 465 85 C442 62 422 49 409 49 C398 49 394 55 394 67 C394 75 397 91 402 110 L479 426 L514 538 L510 538 L435 492 C423 504 407 513 390 520 C373 527 356 530 337 530 C284 530 226 505 173 460 C129 421 91 371 64 316 C36 259 22 198 22 139 C22 100 29 67 44 40 C63 8 91 -10 126 -10 C167 -10 216 23 264 86 C297 127 327 180 352 236 C321 141 305 74 305 43 C305 10 322 -10 353 -10 C384 -10 417 7 449 42 C472 66 495 97 515 134 L509 138 Z M109 148 C109 197 118 250 135 301 C154 353 180 401 209 438 C250 487 295 515 338 515 C378 515 399 487 402 435 C395 395 386 356 374 319 C361 280 346 242 329 209 C309 170 286 135 262 110 C227 71 192 51 163 51 C126 51 109 83 109 148 L109 148 Z " />
<glyph glyph-name="b" unicode="b" horiz-adv-x="528" d="M484 483 C465 514 435 530 399 530 C351 530 295 487 240 410 C204 358 170 293 146 228 L287 783 L283 783 L103 740 L103 736 L180 700 L30 102 C37 69 55 41 84 20 C111 1 144 -10 179 -10 C231 -10 290 15 346 62 C391 101 433 151 461 206 C492 265 508 325 508 384 C508 424 500 458 484 483 L484 483 Z M144 199 C159 239 176 277 195 310 C218 350 241 383 266 411 C302 450 338 472 367 472 C402 472 418 443 418 376 C418 328 408 274 388 222 C369 170 342 122 311 83 C270 32 224 4 181 4 C161 4 143 12 130 28 C119 43 112 61 109 82 C118 122 131 162 144 199 L144 199 Z " />
<glyph glyph-name="c" unicode="c" horiz-adv-x="407" d="M342 461 C346 441 349 415 346 380 L348 380 C365 383 383 391 396 403 C411 416 418 432 418 451 C418 478 407 500 384 513 C367 524 342 530 313 530 C262 530 209 508 161 467 C121 431 85 384 61 332 C36 279 22 222 22 170 C22 119 36 76 60 44 C88 9 128 -10 176 -10 C216 -10 256 6 292 38 C321 65 348 101 368 142 L362 146 C313 75 263 42 210 42 C173 42 145 59 128 91 C116 115 109 148 109 189 C109 232 115 276 127 319 C140 366 159 407 182 439 C213 486 250 510 286 510 C315 510 333 494 342 461 L342 461 Z " />
<glyph glyph-name="d" unicode="d" horiz-adv-x="563" d="M524 138 C509 118 495 100 480 85 C457 62 437 49 424 49 C413 49 409 55 409 67 C409 75 412 91 417 110 L583 783 L579 783 L399 740 L399 736 L476 700 L427 502 C416 510 403 518 388 523 C373 527 359 530 344 530 C289 530 230 506 177 461 C132 424 93 373 65 317 C37 260 22 199 22 139 C22 100 29 67 44 40 C63 8 91 -10 126 -10 C169 -10 220 25 271 89 C306 132 338 185 363 244 L329 106 C322 78 319 59 319 43 C319 27 324 13 332 4 C340 -5 353 -10 368 -10 C399 -10 432 7 464 42 C487 66 510 97 530 134 L524 138 Z M109 148 C109 199 119 251 136 302 C155 355 181 403 212 440 C253 488 300 515 344 515 C384 515 406 488 409 435 C402 395 392 355 380 318 C367 279 352 241 333 208 C313 169 289 136 265 109 C230 72 195 51 164 51 C127 51 109 81 109 148 L109 148 Z " />
<glyph glyph-name="e" unicode="e" horiz-adv-x="424" d="M370 142 C323 75 271 42 215 42 C178 42 148 58 131 90 C116 114 109 148 109 189 C109 205 109 222 112 239 C195 254 255 271 303 292 C384 327 424 374 424 433 C424 464 413 490 390 507 C370 522 343 530 310 530 C259 530 207 507 160 466 C120 430 85 384 61 331 C36 278 22 222 22 170 C22 118 36 75 61 43 C88 8 130 -10 179 -10 C220 -10 260 5 297 36 C328 61 354 97 377 138 L370 142 Z M334 495 C341 484 345 469 345 450 C345 391 320 346 269 311 C232 286 181 265 114 250 C119 287 130 324 143 359 C159 398 178 431 199 458 C230 494 261 514 293 514 C312 514 325 507 334 495 L334 495 Z " />
<glyph glyph-name="f" unicode="f" horiz-adv-x="278" d="M323 480 L335 510 L219 510 C226 569 233 616 242 655 C261 730 285 766 320 766 C343 766 361 751 372 720 C379 700 383 675 383 647 L385 647 C428 656 451 677 451 709 C451 733 439 754 418 767 C401 778 378 783 351 783 C291 783 238 752 197 692 C165 647 141 587 128 519 L46 486 L46 480 L120 480 L27 -7 C23 -27 20 -44 16 -60 C12 -80 7 -97 3 -112 C-4 -135 -10 -151 -17 -163 C-29 -182 -41 -190 -58 -190 C-78 -190 -95 -176 -106 -152 C-113 -135 -117 -112 -118 -87 L-120 -87 C-136 -88 -150 -95 -161 -103 C-174 -114 -181 -128 -181 -144 C-181 -165 -171 -182 -152 -193 C-136 -202 -116 -207 -93 -207 C-41 -207 0 -183 36 -134 C60 -101 81 -54 101 6 C116 47 129 97 142 156 L215 480 L323 480 Z " />
<glyph glyph-name="g" unicode="g" horiz-adv-x="464" d="M366 234 C407 274 430 326 430 382 C430 422 414 460 386 487 L502 476 L509 476 L521 521 L356 510 C332 523 303 530 274 530 C218 530 165 509 125 470 C84 430 61 378 61 322 C61 295 70 267 83 244 C99 220 119 201 144 189 C120 177 102 166 89 155 C70 138 62 120 62 99 C62 87 66 76 73 65 C80 54 91 46 100 41 C57 37 18 25 -11 8 C-51 -16 -73 -48 -73 -84 C-73 -115 -56 -144 -24 -168 C0 -185 31 -201 67 -210 C99 -218 133 -222 168 -222 C208 -222 245 -216 280 -207 C320 -195 354 -178 379 -155 C410 -128 426 -94 426 -57 C426 -28 413 -3 389 18 C370 33 345 45 312 56 L161 104 C160 104 146 109 141 110 C132 113 126 116 122 119 C115 123 113 128 113 135 C113 151 126 168 155 185 C174 177 195 174 216 174 C272 174 326 195 366 234 L366 234 Z M156 230 C148 249 144 274 144 305 C144 337 148 367 157 396 C166 428 180 456 199 477 C222 502 249 517 277 517 C304 517 323 503 335 475 C343 455 347 430 347 399 C347 367 343 337 334 308 C325 276 309 248 292 228 C269 201 241 188 213 188 C186 188 167 202 156 230 L156 230 Z M330 -47 C345 -60 352 -75 352 -98 C352 -125 341 -148 320 -167 C303 -182 280 -194 251 -201 C228 -206 201 -210 172 -210 C128 -210 87 -197 58 -173 C26 -148 9 -111 9 -68 C9 -23 44 15 108 38 L277 -21 C302 -30 318 -38 330 -47 L330 -47 Z " />
<glyph glyph-name="h" unicode="h" horiz-adv-x="544" d="M470 85 C447 62 427 49 414 49 C403 49 399 55 399 67 C399 75 402 91 407 110 L488 415 C492 431 494 448 494 459 C494 484 490 502 481 514 C472 527 455 535 431 535 C380 535 321 493 261 416 C221 364 181 299 152 232 L292 783 L288 783 L108 740 L108 736 L185 700 L10 0 L97 0 L133 145 C141 180 154 214 170 247 C186 280 204 311 225 340 C248 371 272 400 297 421 C333 454 366 473 389 473 C401 473 407 467 407 452 C407 444 405 434 402 419 L319 106 C312 78 309 59 309 43 C309 27 314 13 322 4 C330 -5 343 -10 358 -10 C389 -10 422 7 454 42 C477 66 500 97 520 134 L514 138 C499 118 485 100 470 85 L470 85 Z " />
<glyph glyph-name="i" unicode="i" horiz-adv-x="272" d="M264 630 C276 642 283 658 283 675 C283 691 277 705 266 716 C255 727 241 733 225 733 C209 733 193 726 181 714 C169 702 162 686 162 669 C162 653 168 639 179 628 C190 617 204 611 220 611 C236 611 252 618 264 630 L264 630 Z M28 43 C28 27 33 13 41 4 C49 -5 62 -10 77 -10 C108 -10 141 7 173 42 C196 66 219 97 239 134 L233 138 C218 118 204 100 189 85 C166 62 146 49 133 49 C122 49 118 55 118 67 C118 75 121 91 126 110 L232 530 L228 530 L55 487 L55 483 L123 444 L38 106 C31 78 28 59 28 43 L28 43 Z " />
<glyph glyph-name="j" unicode="j" horiz-adv-x="240" d="M266 630 C278 642 285 658 285 675 C285 691 279 705 268 716 C257 727 243 733 227 733 C211 733 195 726 183 714 C171 702 164 686 164 669 C164 653 170 639 181 628 C192 617 206 611 222 611 C238 611 254 618 266 630 L266 630 Z M230 530 L57 487 L57 483 L127 444 L25 -7 C21 -27 17 -44 13 -59 C8 -80 3 -96 -1 -111 C-8 -134 -14 -150 -21 -162 C-32 -182 -43 -190 -60 -190 C-80 -190 -97 -176 -108 -152 C-115 -135 -119 -112 -120 -87 L-122 -87 C-138 -88 -152 -95 -163 -103 C-176 -114 -183 -128 -183 -144 C-183 -165 -173 -182 -154 -193 C-138 -202 -118 -207 -95 -207 C-42 -207 2 -184 38 -136 C65 -103 87 -57 108 3 C123 47 137 97 150 156 L234 530 L230 530 Z " />
<glyph glyph-name="k" unicode="k" horiz-adv-x="503" d="M98 0 L293 783 L289 783 L109 740 L109 736 L186 700 L10 0 L98 0 Z M472 130 C461 110 449 93 437 80 C418 61 401 51 385 51 C373 51 362 59 353 76 C349 83 346 88 335 115 L247 333 C260 348 272 360 283 371 C298 386 309 399 320 408 C336 424 349 435 361 443 C378 455 391 460 407 460 C422 460 433 454 440 442 C445 433 448 420 448 404 L450 404 C491 419 513 441 513 472 C513 488 508 503 497 514 C486 525 472 530 455 530 C432 530 414 523 391 503 C378 492 363 477 340 452 L184 282 L254 96 L272 50 C280 29 288 16 297 7 C308 -5 321 -10 340 -10 C368 -10 399 7 426 39 C447 63 464 92 479 127 L472 130 Z " />
<glyph glyph-name="l" unicode="l" horiz-adv-x="266" d="M22 43 C22 27 27 13 35 4 C43 -5 56 -10 71 -10 C102 -10 135 7 167 42 C190 66 213 97 233 134 L227 138 C212 118 198 100 183 85 C160 62 140 49 127 49 C116 49 112 55 112 67 C112 75 115 91 120 110 L286 783 L282 783 L102 740 L102 736 L179 700 L32 106 C25 78 22 59 22 43 L22 43 Z " />
<glyph glyph-name="m" unicode="m" horiz-adv-x="822" d="M473 349 C488 409 494 441 494 464 C494 508 472 530 431 530 C380 530 324 490 267 414 C228 363 192 298 165 235 L241 530 L237 530 L64 487 L64 483 L132 444 L21 0 L108 0 L144 145 C152 178 164 213 179 246 C194 278 212 310 232 339 C253 370 277 398 300 421 C335 454 367 473 390 473 C402 473 408 467 408 452 C408 444 406 434 403 419 L298 0 L385 0 L421 145 C429 178 441 213 457 246 C472 278 489 309 509 338 C530 370 554 397 578 420 C613 453 644 473 667 473 C679 473 685 467 685 452 C685 444 683 434 680 419 L597 106 C590 78 587 59 587 43 C587 27 592 13 600 4 C608 -5 621 -10 636 -10 C667 -10 700 7 732 42 C755 66 778 97 798 134 L792 138 C777 118 763 100 748 85 C725 62 705 49 692 49 C681 49 677 55 677 67 C677 75 680 91 685 110 L766 415 C770 431 772 448 772 459 C772 483 767 499 758 511 C749 524 732 530 708 530 C657 530 601 490 544 414 C505 363 469 298 442 235 C452 271 459 296 462 310 L473 349 L473 349 Z " />
<glyph glyph-name="n" unicode="n" horiz-adv-x="555" d="M64 487 L64 483 L132 444 L21 0 L108 0 L144 145 C152 180 165 214 181 247 C197 280 215 311 236 340 C259 371 283 400 308 421 C344 454 377 473 400 473 C412 473 418 467 418 452 C418 444 416 434 413 419 L330 106 C323 78 320 59 320 43 C320 27 325 13 333 4 C341 -5 354 -10 369 -10 C400 -10 433 7 465 42 C488 66 511 97 531 134 L525 138 C510 118 496 100 481 85 C458 62 438 49 425 49 C414 49 410 55 410 67 C410 75 413 91 418 110 L499 415 C503 431 505 448 505 459 C505 483 500 499 491 511 C482 524 465 530 441 530 C392 530 332 490 272 415 C229 362 190 295 165 235 L241 530 L237 530 L64 487 Z " />
<glyph glyph-name="o" unicode="o" horiz-adv-x="480" d="M153 466 C116 431 82 385 59 333 C35 280 22 225 22 174 C22 122 36 77 61 45 C89 9 131 -10 180 -10 C231 -10 282 13 327 54 C364 89 398 135 421 187 C445 240 458 295 458 346 C458 398 444 443 419 475 C391 511 349 530 300 530 C249 530 198 507 153 466 L153 466 Z M119 68 C114 93 110 125 110 165 C110 210 118 259 131 306 C144 355 164 401 188 437 C223 488 262 516 299 516 C330 516 350 495 361 452 C366 427 370 395 370 355 C370 310 362 261 349 214 C336 165 316 119 292 83 C257 32 218 4 181 4 C150 4 130 25 119 68 L119 68 Z " />
<glyph glyph-name="p" unicode="p" horiz-adv-x="548" d="M124 -201 C108 -200 96 -198 88 -195 C73 -191 68 -183 68 -170 C68 -165 69 -160 73 -143 L116 28 C137 3 170 -10 209 -10 C261 -10 320 16 373 63 C418 100 456 151 484 206 C513 265 528 325 528 384 C528 424 520 458 504 483 C485 514 455 530 419 530 C384 530 344 507 303 464 C275 435 247 396 222 352 C199 313 180 271 164 228 L241 530 L237 530 L64 487 L64 483 L133 444 L-16 -152 C-21 -175 -30 -186 -45 -193 C-56 -198 -71 -201 -98 -202 L-100 -212 L159 -212 L161 -202 C146 -202 135 -201 124 -201 L124 -201 Z M438 376 C438 328 428 275 411 223 C392 171 367 121 338 84 C298 32 254 4 211 4 C191 4 172 12 157 28 C142 43 132 62 129 82 C138 122 151 162 164 199 C179 239 196 277 215 310 C236 350 261 384 285 411 C322 451 358 472 387 472 C422 472 438 443 438 376 L438 376 Z " />
<glyph glyph-name="q" unicode="q" horiz-adv-x="519" d="M357 -198 C341 -194 333 -187 333 -174 C333 -169 335 -161 336 -153 L486 426 L521 538 L517 538 L442 492 C430 504 414 513 397 520 C380 527 363 530 344 530 C289 530 230 506 177 461 C132 424 93 373 65 317 C37 260 22 199 22 139 C22 100 29 67 44 40 C63 8 91 -10 126 -10 C167 -10 219 24 268 85 C303 128 335 181 359 236 L351 207 L246 -153 C241 -169 234 -180 222 -187 C213 -192 201 -195 182 -198 C171 -199 161 -201 138 -202 L135 -212 L392 -212 L395 -202 C376 -201 365 -199 357 -198 L357 -198 Z M109 148 C109 199 119 251 136 302 C155 355 181 403 212 440 C253 488 300 515 344 515 C384 515 406 488 409 435 C402 395 392 355 380 318 C367 279 352 241 333 208 C313 169 289 136 265 109 C230 72 195 51 164 51 C127 51 109 81 109 148 L109 148 Z " />
<glyph glyph-name="r" unicode="r" horiz-adv-x="388" d="M106 0 C117 43 129 84 141 124 C156 167 170 207 186 244 C205 288 225 327 244 359 C279 414 310 443 335 443 C347 443 355 436 360 424 C363 415 364 403 363 390 L365 390 C413 411 437 441 437 477 C437 492 432 506 423 515 C414 524 401 530 385 530 C342 530 292 480 239 385 C210 330 180 262 153 189 L241 530 L237 530 L64 487 L64 483 L132 444 L21 0 L106 0 Z " />
<glyph glyph-name="s" unicode="s" horiz-adv-x="373" d="M214 15 C242 31 267 53 286 78 C306 106 318 137 318 166 C318 185 312 203 301 223 C292 238 280 253 264 270 C253 281 244 289 219 312 C187 343 176 353 165 366 C144 390 134 412 134 432 C134 452 141 470 154 483 C167 496 185 503 205 503 C233 503 260 490 281 466 C300 445 311 418 315 387 L317 387 C330 392 342 400 351 409 C362 420 367 432 367 445 C367 472 354 495 330 511 C310 523 283 530 254 530 C226 530 197 524 172 509 C147 496 124 477 108 453 C89 428 79 400 79 375 C79 356 84 338 95 319 C103 304 115 288 131 271 L175 230 C208 199 220 188 231 175 C251 150 261 129 261 106 C261 82 252 61 235 45 C219 30 197 21 174 21 C142 21 110 38 86 69 C65 94 50 129 45 164 L43 164 C30 159 16 149 8 136 C-3 124 -7 108 -7 95 C-7 66 9 37 36 17 C59 0 90 -10 123 -10 C152 -10 185 -1 214 15 L214 15 Z " />
<glyph glyph-name="t" unicode="t" horiz-adv-x="309" d="M207 43 C231 67 253 100 276 139 L270 144 C226 84 185 53 148 53 C132 53 122 63 122 80 C122 92 125 106 130 130 L217 480 L333 480 L345 510 L224 510 L255 633 L251 633 C203 573 135 518 63 485 L61 480 L130 480 L46 140 C38 111 35 87 35 64 C35 41 42 23 54 10 C66 -3 85 -10 106 -10 C139 -10 174 8 207 43 L207 43 Z " />
<glyph glyph-name="u" unicode="u" horiz-adv-x="555" d="M517 138 C502 118 488 100 473 85 C450 62 430 49 417 49 C406 49 402 55 402 67 C402 75 405 91 410 110 L511 522 L419 515 L379 357 C368 314 352 272 332 231 C311 190 285 151 258 120 C218 73 178 47 149 47 C132 47 122 57 122 76 C122 87 125 99 130 122 L235 530 L231 530 L58 487 L58 483 L126 444 L42 118 C37 99 34 82 34 67 C34 44 41 24 53 11 C66 -2 85 -10 108 -10 C143 -10 183 13 226 58 C257 89 285 127 312 170 C339 215 360 260 371 296 C331 148 313 68 313 43 C313 10 330 -10 361 -10 C392 -10 425 7 457 42 C480 66 503 97 523 134 L517 138 L517 138 Z " />
<glyph glyph-name="v" unicode="v" horiz-adv-x="453" d="M122 -10 L314 202 C355 247 384 282 405 313 C440 365 456 405 456 445 C456 469 449 490 437 505 C424 521 404 530 379 530 C360 530 342 525 326 514 C310 503 296 489 287 474 L287 472 C315 476 340 471 357 459 C376 446 386 424 386 397 C386 362 379 338 363 307 C352 284 335 260 310 228 C294 207 275 183 251 154 L189 81 L159 530 L157 530 L15 487 L15 483 L79 449 L115 -10 L122 -10 Z " />
<glyph glyph-name="w" unicode="w" horiz-adv-x="658" d="M520 202 C568 259 591 288 608 315 C647 368 662 408 662 445 C662 469 655 490 643 505 C630 521 610 530 585 530 C566 530 548 525 532 514 C516 503 502 489 493 474 L493 472 C521 476 546 471 563 459 C582 446 592 424 592 397 C592 369 585 344 569 312 C558 291 542 266 521 235 L468 163 L412 92 L384 530 L382 530 L240 487 L240 483 L304 449 L318 269 L188 98 L159 530 L157 530 L15 487 L15 483 L79 449 L115 -10 L122 -10 L320 248 L340 -10 L347 -10 L520 202 Z " />
<glyph glyph-name="x" unicode="x" horiz-adv-x="541" d="M70 58 C53 58 39 64 31 79 C23 90 20 105 21 124 L19 124 C-16 107 -32 83 -32 52 C-32 35 -26 19 -15 7 C-3 -4 12 -10 29 -10 C56 -10 79 -1 100 18 C115 31 131 51 148 80 L230 215 L258 101 C266 66 272 46 280 31 C292 3 310 -10 334 -10 C365 -10 394 5 422 36 C441 56 459 84 479 120 L473 125 C437 77 406 53 379 53 C366 53 357 60 350 79 C346 87 343 96 338 120 L294 308 L358 401 C370 418 381 433 392 442 C408 457 422 463 438 463 C466 463 482 442 482 402 L484 402 C520 419 539 442 539 471 C539 488 533 503 521 514 C509 525 495 530 476 530 C453 530 431 520 410 499 C395 486 381 467 364 440 L290 324 L241 530 L239 530 L92 492 L92 488 L173 448 L225 234 L152 119 C125 78 99 58 70 58 L70 58 Z " />
<glyph glyph-name="y" unicode="y" horiz-adv-x="457" d="M-58 -128 C-71 -112 -78 -89 -75 -62 L-77 -62 C-90 -66 -105 -76 -114 -89 C-125 -102 -130 -117 -130 -132 C-130 -156 -121 -175 -102 -188 C-86 -200 -64 -206 -40 -206 C-4 -206 33 -192 73 -161 C101 -140 130 -111 162 -74 L162 -75 L205 -22 L208 -17 C236 20 268 66 300 117 C343 184 373 234 396 275 C441 355 461 406 461 445 C461 469 454 490 442 505 C429 521 409 530 384 530 C365 530 347 525 331 514 C315 503 301 489 292 474 L292 472 C321 476 346 471 365 456 C382 441 392 418 392 389 C392 350 380 304 356 251 C339 212 315 171 286 124 C267 93 247 63 224 31 L160 530 L158 530 L15 487 L15 483 L82 449 L159 -55 C135 -84 112 -106 91 -122 C62 -143 36 -153 4 -153 C-23 -153 -43 -144 -58 -128 L-58 -128 Z " />
<glyph glyph-name="z" unicode="z" horiz-adv-x="451" d="M398 159 C371 102 329 72 273 72 C248 72 232 75 211 80 C196 85 180 90 149 102 L75 130 L488 511 L488 515 L193 515 C180 515 171 518 164 525 C159 532 155 539 154 554 L150 554 L80 366 L86 366 L116 407 C128 423 133 429 140 433 C149 438 160 441 176 441 L385 441 L-2 76 L-24 54 C-32 43 -35 35 -35 26 C-35 15 -29 5 -20 0 C-12 -5 -1 -8 12 -8 L29 95 L128 34 C152 19 171 10 188 3 C209 -6 229 -10 253 -10 C284 -10 308 -1 329 16 C345 29 361 51 374 82 C385 102 393 127 404 159 L398 159 L398 159 Z " />
<glyph glyph-name="braceleft" unicode="&#x7b;" horiz-adv-x="341" d="M72 312 C125 300 145 267 133 210 L86 -12 C77 -53 89 -87 118 -111 C142 -130 178 -140 222 -140 L224 -131 C192 -127 171 -116 160 -96 C151 -79 149 -53 156 -21 L204 203 C215 256 178 294 95 315 C132 322 164 333 191 349 C223 369 244 396 251 427 L299 651 C307 686 319 710 336 729 C355 746 380 757 413 761 L415 770 C371 770 329 759 296 739 C259 716 233 682 225 642 L178 420 C171 391 160 368 143 352 C126 336 103 324 74 319 L72 312 L72 312 Z " />
<glyph glyph-name="bar" unicode="&#x7c;" horiz-adv-x="200" d="M9 -141 L29 -141 L222 770 L202 770 L9 -141 Z " />
<glyph glyph-name="braceright" unicode="&#x7d;" horiz-adv-x="341" d="M294 318 C241 330 221 363 233 420 L280 642 C289 683 277 717 248 741 C224 760 188 770 144 770 L142 761 C174 757 195 746 206 726 C215 709 217 683 210 651 L162 427 C151 374 188 336 271 315 C234 308 202 297 175 281 C143 261 122 234 115 203 L67 -21 C59 -56 47 -80 30 -99 C11 -116 -14 -127 -47 -131 L-49 -140 C-5 -140 37 -129 70 -109 C107 -86 133 -52 141 -12 L188 210 C195 239 206 262 223 278 C240 294 263 306 292 311 L294 318 L294 318 Z " />
<glyph glyph-name="asciitilde" unicode="&#x7e;" horiz-adv-x="433" d="M413 369 C392 329 360 308 319 308 C307 308 294 310 281 317 C272 321 265 324 245 336 C224 348 215 353 204 357 C188 364 173 367 158 367 C126 367 100 354 80 327 C64 307 51 281 38 244 L45 241 C66 281 98 302 139 302 C151 302 164 300 177 293 C186 289 193 286 213 274 C234 262 243 257 254 253 C270 246 285 243 300 243 C333 243 358 255 379 283 C394 302 407 329 420 366 L413 369 L413 369 Z " />
<glyph glyph-name="uni00A0" unicode="&#xa0;" horiz-adv-x="200" d="" />
<glyph glyph-name="exclamdown" unicode="&#xa1;" horiz-adv-x="238" d="M132 478 C145 466 162 458 181 458 C200 458 217 466 230 478 C242 491 250 508 250 527 C250 546 242 563 230 576 C217 588 200 596 181 596 C162 596 145 588 132 576 C120 563 112 546 112 527 C112 508 120 491 132 478 L132 478 Z M-24 -116 L97 -116 L161 393 L154 393 L-24 -116 Z " />
<glyph glyph-name="cent" unicode="&#xa2;" horiz-adv-x="459" d="M198 -9 C239 -6 279 12 316 41 C347 68 375 102 396 143 L389 147 C333 74 281 41 222 41 C215 41 213 41 210 42 L317 521 C366 521 387 478 380 389 L383 389 C402 392 421 400 434 412 C450 425 458 442 458 461 C458 489 445 512 420 525 C400 537 374 542 343 542 C331 542 327 542 322 541 L343 637 L325 637 L303 538 C254 529 204 503 159 463 C119 428 85 382 61 333 C36 281 22 226 22 175 C22 123 36 79 61 46 C89 10 131 -9 180 -10 L157 -114 L175 -114 L198 -9 Z M131 326 C146 371 167 413 191 446 C224 489 262 515 299 520 L192 44 C139 57 110 110 110 194 C110 237 118 282 131 326 L131 326 Z " />
<glyph glyph-name="sterling" unicode="&#xa3;" horiz-adv-x="633" d="M158 172 L153 155 C117 166 97 169 78 169 C49 169 23 161 3 146 C-18 129 -30 105 -30 77 C-30 52 -21 29 -2 13 C14 -2 38 -10 65 -10 C94 -10 120 0 144 23 C163 39 180 63 197 94 C200 93 223 77 234 69 L272 45 C285 36 299 29 311 22 C326 15 340 9 353 4 C368 -1 383 -5 396 -8 C412 -12 426 -13 441 -13 C481 -13 516 0 541 21 C568 45 582 78 582 117 C582 138 575 160 560 180 C548 199 529 214 509 223 L506 220 C514 213 520 204 525 193 C529 184 532 171 532 162 C532 133 523 110 506 95 C489 80 466 73 435 73 C414 73 389 76 360 84 C340 89 316 97 288 106 L247 121 L217 133 C230 162 245 201 262 246 L296 343 L481 343 L489 360 L302 360 L348 489 L362 528 L378 572 C391 611 402 634 414 653 C433 686 455 701 480 701 C513 701 531 667 531 600 C531 580 528 557 521 538 L583 538 C595 542 607 553 616 566 C625 579 630 595 630 608 C630 643 613 670 582 689 C557 704 523 712 486 712 C421 712 369 692 329 652 C294 617 268 567 249 499 L210 360 L94 360 L87 343 L206 343 L158 172 Z M11 132 C26 144 45 151 69 151 C89 151 113 143 144 126 C133 95 124 71 113 54 C97 27 78 15 51 15 C34 15 17 21 6 33 C-6 45 -13 60 -13 77 C-13 98 -5 119 11 132 L11 132 Z " />
<glyph glyph-name="yen" unicode="&#xa5;" horiz-adv-x="592" d="M202 83 C197 60 191 46 183 37 C174 28 161 22 140 17 C129 14 114 13 89 10 L87 0 L372 0 L374 10 C350 13 339 13 328 16 C307 20 295 27 291 38 C286 49 287 62 291 83 L320 215 L492 215 L496 233 L324 233 L343 319 L514 319 L518 337 L356 337 L616 655 C625 667 636 676 648 681 C659 686 670 689 687 692 L689 702 L496 702 L494 692 C507 692 520 691 529 690 C544 689 555 687 563 684 C576 679 583 672 583 660 C583 648 572 629 555 608 L333 338 L221 609 C214 626 212 636 212 652 C212 668 218 677 234 682 C243 686 256 689 273 690 C284 691 298 692 314 692 L316 702 L60 702 L58 692 C75 689 85 686 92 681 C101 676 108 668 113 655 L242 337 L84 337 L80 319 L250 319 L251 316 L234 233 L62 233 L58 215 L230 215 L202 83 Z " />
<glyph glyph-name="brokenbar" unicode="&#xa6;" horiz-adv-x="200" d="M122 394 L142 394 L222 770 L202 770 L122 394 Z M9 -141 L29 -141 L108 235 L88 235 L9 -141 Z " />
<glyph glyph-name="section" unicode="&#xa7;" horiz-adv-x="518" d="M109 280 C116 252 126 224 139 193 C148 172 157 154 180 111 C204 66 211 49 219 32 C232 0 238 -28 238 -53 C238 -85 231 -112 218 -135 C202 -163 178 -178 150 -178 C123 -178 103 -167 90 -147 C78 -130 72 -105 72 -81 C72 -61 75 -48 80 -37 L28 -37 C-8 -50 -26 -74 -26 -106 C-26 -137 -9 -162 20 -177 C43 -189 73 -195 109 -195 C169 -195 222 -179 269 -147 C313 -116 350 -73 375 -18 C399 33 411 90 411 146 C411 177 408 206 400 237 C393 265 385 293 370 324 C362 345 353 363 329 406 C306 451 298 467 290 486 C277 518 271 544 271 571 C271 602 278 631 291 652 C307 680 331 695 359 695 C386 695 406 684 419 664 C431 647 437 622 437 598 C437 578 434 565 429 554 L481 554 C517 567 535 591 535 623 C535 654 518 679 489 694 C466 706 436 712 400 712 C341 712 287 696 240 664 C196 633 159 589 134 536 C110 485 98 428 98 372 C98 341 101 311 109 280 L109 280 Z M346 -29 C317 -85 274 -130 221 -158 C234 -141 242 -125 249 -109 C254 -92 258 -74 258 -54 C258 -26 251 4 238 39 C230 59 222 77 197 125 C176 168 167 184 159 204 C146 233 136 259 131 286 C123 314 120 343 120 372 C120 433 135 495 163 548 C192 603 236 647 288 675 C275 658 267 642 260 626 C255 609 251 591 251 571 C251 543 258 513 271 478 C279 458 288 440 312 391 C333 350 342 333 350 314 C363 285 373 257 378 232 C386 203 389 174 389 146 C389 83 374 23 346 -29 L346 -29 Z " />
<glyph glyph-name="dieresis" unicode="&#xa8;" horiz-adv-x="500" d="M198 627 C210 639 217 655 217 672 C217 688 212 702 201 713 C190 724 175 730 159 730 C143 730 127 723 115 711 C103 699 96 683 96 666 C96 650 101 636 112 625 C123 614 138 608 154 608 C170 608 186 615 198 627 L198 627 Z M364 627 C376 639 383 655 383 672 C383 688 378 702 367 713 C356 724 341 730 325 730 C309 730 293 723 281 711 C269 699 262 683 262 666 C262 650 267 636 278 625 C289 614 304 608 320 608 C336 608 352 615 364 627 L364 627 Z " />
<glyph glyph-name="copyright" unicode="&#xa9;" horiz-adv-x="796" d="M99 155 C127 103 170 61 222 32 C273 4 331 -10 392 -10 C461 -10 526 8 585 41 C642 76 691 124 723 183 C756 242 773 308 773 377 C773 438 758 496 730 547 C702 599 659 641 607 670 C556 698 498 712 437 712 C368 712 303 694 244 661 C187 626 138 578 106 519 C73 460 56 394 56 325 C56 264 71 206 99 155 L99 155 Z M119 510 C151 567 197 615 253 647 C309 679 372 696 437 696 C496 696 551 683 599 656 C650 629 689 588 717 539 C744 491 757 436 757 377 C757 312 741 248 710 192 C678 135 632 87 576 55 C520 23 457 6 392 6 C333 6 278 19 230 46 C179 73 140 114 112 163 C85 211 72 266 72 325 C72 390 88 454 119 510 L119 510 Z M315 208 C304 233 298 267 298 308 C298 343 305 379 317 414 C330 451 350 484 373 507 C401 536 434 552 469 552 C502 552 527 539 543 514 C556 494 563 465 562 430 L569 430 L589 523 C560 548 515 564 467 564 C423 564 380 552 341 528 C305 505 273 474 252 435 C231 396 219 353 219 309 C219 260 236 218 268 187 C299 158 342 142 393 142 C438 142 481 153 526 180 L556 288 L548 288 C529 248 510 217 490 196 C462 168 430 154 393 154 C357 154 331 172 315 208 L315 208 Z " />
<glyph glyph-name="ordfeminine" unicode="&#xaa;" horiz-adv-x="348" d="M369 480 C361 468 352 458 344 449 C329 436 318 428 311 428 C304 428 302 431 302 438 C302 442 304 454 307 463 L358 648 L380 718 L377 718 L321 687 C301 703 279 713 256 713 C223 713 188 699 156 672 C129 649 105 619 89 586 C72 551 63 515 63 479 C63 455 68 435 76 419 C88 398 105 387 126 387 C153 387 183 407 212 443 C232 468 251 499 266 534 C249 479 240 440 240 423 C240 400 252 387 272 387 C291 387 311 398 331 419 C346 434 360 454 372 477 L369 480 Z M127 485 C127 514 132 546 143 575 C154 606 168 635 185 656 C209 687 235 703 259 703 C283 703 297 688 298 659 C293 627 284 597 273 569 C260 537 245 509 229 486 C205 451 178 432 157 432 C137 432 127 449 127 485 L127 485 Z M314 331 L70 331 L67 317 L311 317 L314 331 Z " />
<glyph glyph-name="guillemotleft" unicode="&#xab;" horiz-adv-x="441" d="M196 79 L135 274 L281 469 L275 469 L42 277 L41 271 L190 79 L196 79 Z M349 79 L288 274 L434 469 L428 469 L195 277 L194 271 L343 79 L349 79 Z " />
<glyph glyph-name="registered" unicode="&#xae;" horiz-adv-x="555" d="M154 317 C193 278 247 257 307 257 C374 257 435 281 479 328 C524 372 549 435 549 500 C549 560 528 613 488 652 C449 691 395 712 335 712 C268 712 207 687 163 642 C118 597 93 534 93 469 C93 409 114 356 154 317 L154 317 Z M174 631 C215 672 273 696 334 696 C390 696 440 676 476 641 C513 604 533 554 533 499 C533 438 509 381 468 338 C427 297 369 273 308 273 C252 273 202 293 166 329 C129 365 109 415 109 470 C109 531 133 588 174 631 L174 631 Z M243 598 C255 597 262 596 266 593 C270 590 271 585 268 572 L232 403 C229 392 227 387 220 383 C215 380 207 379 196 379 L193 371 L297 371 L299 379 C288 379 282 380 278 384 C274 388 273 393 276 404 L291 475 L308 475 L333 416 C341 397 352 379 361 371 L422 371 L424 379 C409 379 398 388 387 411 L351 482 C372 486 390 493 403 502 C419 514 427 530 427 550 C427 567 419 583 404 594 C391 602 374 606 353 606 L245 606 L243 598 Z M369 580 C377 571 381 558 381 545 C381 528 375 513 363 502 C352 491 336 486 319 486 L294 486 L316 595 L335 595 C350 595 361 589 369 580 L369 580 Z " />
<glyph glyph-name="overscore" unicode="&#xaf;" horiz-adv-x="500" d="M389 649 L117 649 L112 623 L384 623 L389 649 Z " />
<glyph glyph-name="degree" unicode="&#xb0;" horiz-adv-x="263" d="M258 687 C242 703 218 712 193 712 C161 712 132 700 111 677 C91 654 79 625 79 593 C79 566 88 543 105 526 C121 510 145 501 170 501 C202 501 231 513 252 537 C272 558 284 588 284 620 C284 647 275 670 258 687 L258 687 Z M241 548 C224 528 199 517 172 517 C149 517 130 525 117 538 C102 551 95 572 95 593 C95 621 105 646 122 665 C139 685 164 696 191 696 C214 696 233 688 246 675 C261 662 268 641 268 620 C268 592 258 567 241 548 L241 548 Z " />
<glyph glyph-name="plusminus" unicode="&#xb1;" horiz-adv-x="564" d="M261 262 L283 262 L316 420 L524 420 L529 442 L321 442 L354 600 L332 600 L299 442 L91 442 L86 420 L294 420 L261 262 Z M476 192 L38 192 L33 170 L471 170 L476 192 Z " />
<glyph glyph-name="uni00B2" unicode="&#xb2;" horiz-adv-x="339" d="M314 690 C298 705 276 712 251 712 C224 712 197 704 173 688 C150 673 132 652 119 627 L124 622 C147 649 176 664 205 664 C222 664 236 659 247 650 C258 641 263 626 263 610 C263 585 248 555 217 518 C198 495 175 471 144 443 C121 422 94 398 63 373 L62 368 L293 368 L334 477 L329 477 C321 464 314 455 307 447 C298 438 289 433 277 430 C269 429 260 428 241 428 L138 428 L196 466 L220 482 C255 507 277 527 296 544 C324 573 337 601 337 629 C337 654 329 675 314 690 L314 690 Z " />
<glyph glyph-name="uni00B3" unicode="&#xb3;" horiz-adv-x="328" d="M334 648 C334 667 326 684 311 696 C298 707 279 712 258 712 C234 712 209 705 188 690 C168 677 151 658 139 635 L144 630 C169 659 197 674 224 674 C237 674 248 670 256 662 C264 654 268 643 268 631 C268 607 257 587 234 570 C218 558 195 547 168 540 L169 532 C181 535 189 536 198 536 C217 536 230 529 241 516 C249 504 254 489 254 469 C254 448 249 426 238 409 C226 388 209 376 190 376 C173 376 159 382 150 394 C142 405 137 420 137 437 C137 445 138 452 139 457 C140 462 143 467 147 476 L110 476 C102 473 93 467 88 459 C83 451 79 442 79 433 C79 412 92 391 115 379 C132 368 155 364 182 364 C214 364 249 375 274 395 C303 416 320 446 320 478 C320 499 311 520 296 535 C280 550 261 557 237 560 C300 577 333 608 334 648 L334 648 Z " />
<glyph glyph-name="acute" unicode="&#xb4;" horiz-adv-x="500" d="M156 592 L162 592 L351 757 L352 761 L241 761 L156 592 Z " />
<glyph glyph-name="paragraph" unicode="&#xb6;" horiz-adv-x="620" d="M425 688 L536 688 L348 -197 L371 -197 L543 614 C550 645 562 664 585 676 C602 685 625 690 661 691 L664 702 L405 702 C346 702 293 692 248 672 C196 649 155 615 127 571 C99 527 85 475 85 418 C85 358 107 305 148 272 C187 240 239 224 303 224 L214 -197 L237 -197 L425 688 Z M214 301 C201 332 193 371 193 418 C193 458 201 502 216 541 C233 585 257 620 286 645 C319 673 358 688 402 688 L306 239 C265 239 234 260 214 301 L214 301 Z " />
<glyph glyph-name="middot" unicode="&#xb7;" horiz-adv-x="206" d="M61 250 C74 237 93 229 113 229 C133 229 152 237 165 250 C178 263 186 282 186 302 C186 322 178 341 165 354 C152 367 133 375 113 375 C93 375 74 367 61 354 C48 341 40 322 40 302 C40 282 48 263 61 250 L61 250 Z " />
<glyph glyph-name="cedilla" unicode="&#xb8;" horiz-adv-x="500" d="M275 -202 C318 -185 341 -156 341 -119 C341 -95 329 -76 306 -64 C289 -55 266 -48 239 -47 L266 2 L254 2 L196 -95 C255 -98 283 -113 283 -142 C283 -165 266 -184 235 -196 C214 -204 187 -209 159 -209 L162 -221 C206 -221 244 -215 275 -202 L275 -202 Z " />
<glyph glyph-name="uni00B9" unicode="&#xb9;" horiz-adv-x="303" d="M277 368 L279 377 L247 380 C232 381 224 385 219 389 C214 396 212 404 215 419 L278 712 L270 712 C251 692 234 679 214 670 C195 662 174 655 146 651 C142 651 131 649 126 648 L124 640 L196 640 L147 412 C143 395 135 386 116 382 C108 379 97 378 69 377 L67 368 L277 368 Z " />
<glyph glyph-name="ordmasculine" unicode="&#xba;" horiz-adv-x="314" d="M272 421 C296 442 316 470 331 501 C346 533 354 566 354 597 C354 629 345 658 328 678 C309 701 284 712 252 712 C221 712 189 700 161 676 C137 655 116 627 101 596 C86 564 78 531 78 500 C78 467 87 439 104 419 C123 396 149 385 181 385 C212 385 244 398 272 421 L272 421 Z M142 481 C142 508 146 537 154 568 C162 599 174 627 187 650 C208 685 231 703 252 703 C277 703 290 675 290 615 C290 588 286 558 278 529 C270 498 258 470 245 447 C225 412 202 394 181 394 C156 394 142 424 142 481 L142 481 Z M51 331 L48 317 L292 317 L295 331 L51 331 Z " />
<glyph glyph-name="guillemotright" unicode="&#xbb;" horiz-adv-x="441" d="M259 469 L253 469 L314 274 L168 79 L174 79 L407 271 L408 277 L259 469 Z M106 469 L100 469 L161 274 L15 79 L21 79 L254 271 L255 277 L106 469 Z " />
<glyph glyph-name="onequarter" unicode="&#xbc;" horiz-adv-x="651" d="M689 712 L666 712 L19 -10 L42 -10 L689 712 Z M276 367 L278 376 L246 379 C231 380 223 384 218 388 C213 395 211 403 214 418 L277 711 L269 711 C250 691 233 678 213 669 C194 661 173 654 145 650 C141 650 130 648 125 647 L123 639 L195 639 L146 411 C142 394 134 385 115 381 C107 378 96 377 68 376 L66 367 L276 367 Z M427 19 C422 15 415 12 403 11 L376 8 L374 0 L546 0 L548 8 L523 11 C511 12 504 15 501 18 C497 23 496 29 499 42 L514 111 L590 111 L592 128 L518 128 L564 344 L532 344 L293 119 L292 111 L453 111 L438 42 C435 30 432 23 427 19 L427 19 Z M456 128 L324 128 L489 283 L456 128 Z " />
<glyph glyph-name="onehalf" unicode="&#xbd;" horiz-adv-x="668" d="M276 367 L278 376 L246 379 C231 380 223 384 218 388 C213 395 211 403 214 418 L277 711 L269 711 C250 691 233 678 213 669 C194 661 173 654 145 650 C141 650 130 648 125 647 L123 639 L195 639 L146 411 C142 394 134 385 115 381 C107 378 96 377 68 376 L66 367 L276 367 Z M688 711 L665 711 L18 -11 L41 -11 L688 711 Z M570 322 C554 337 532 344 507 344 C480 344 453 336 429 320 C406 305 388 284 375 259 L380 254 C403 281 432 296 461 296 C478 296 492 291 503 282 C514 273 519 258 519 242 C519 217 504 187 473 150 C454 127 431 103 400 75 C377 54 350 30 319 5 L318 0 L549 0 L590 109 L585 109 C577 96 570 87 563 79 C554 70 545 65 533 62 C525 61 516 60 497 60 L394 60 L452 98 L476 114 C511 139 533 159 552 176 C580 205 593 233 593 261 C593 286 585 307 570 322 L570 322 Z " />
<glyph glyph-name="threequarters" unicode="&#xbe;" horiz-adv-x="648" d="M48 -10 L695 712 L672 712 L671 711 L24 -11 L47 -11 L48 -10 Z M256 662 C264 654 268 643 268 631 C268 607 257 587 234 570 C218 558 195 547 168 540 L169 532 C181 535 189 536 198 536 C217 536 230 529 241 516 C249 504 254 489 254 469 C254 448 249 426 238 409 C226 388 209 376 190 376 C173 376 159 382 150 394 C142 405 137 420 137 437 C137 445 138 452 139 457 C140 462 143 467 147 476 L110 476 C102 473 93 467 88 459 C83 451 79 442 79 433 C79 412 92 391 115 379 C132 368 155 364 182 364 C214 364 249 375 274 395 C303 416 320 446 320 478 C320 499 311 520 296 535 C280 550 261 557 237 560 C300 577 333 608 334 648 C334 667 326 684 311 696 C298 707 279 712 258 712 C234 712 209 705 188 690 C168 677 151 658 139 635 L144 630 C169 659 197 674 224 674 C237 674 248 670 256 662 L256 662 Z M424 19 C419 15 412 12 400 11 L373 8 L371 0 L543 0 L545 8 L520 11 C508 12 501 15 498 18 C494 23 493 29 496 42 L511 111 L587 111 L589 128 L515 128 L561 344 L529 344 L290 119 L289 111 L450 111 L435 42 C432 30 429 23 424 19 L424 19 Z M453 128 L321 128 L486 283 L453 128 Z " />
<glyph glyph-name="questiondown" unicode="&#xbf;" horiz-adv-x="420" d="M225 170 C242 182 255 193 266 204 C279 217 289 232 296 248 C303 264 306 281 306 300 C306 319 300 337 288 354 C277 370 262 384 245 393 L241 393 C248 372 249 361 249 352 C249 329 243 309 231 290 C222 274 206 260 186 245 C174 236 159 226 131 210 L99 191 L68 172 L39 150 C30 142 22 133 14 124 C6 115 0 104 -5 95 C-10 84 -14 73 -17 61 C-20 49 -21 36 -21 23 C-21 -22 -1 -62 36 -89 C68 -113 112 -126 161 -126 C205 -126 247 -117 280 -98 C323 -75 347 -40 347 -3 C347 9 344 20 340 31 C335 42 328 51 320 58 L253 58 C253 55 257 41 258 33 C259 24 260 14 260 6 C260 -27 252 -56 236 -77 C217 -100 192 -113 161 -113 C130 -113 105 -103 88 -86 C71 -67 62 -42 62 -11 C62 13 67 34 78 54 C89 71 103 88 124 104 C136 113 151 124 180 141 C215 162 217 165 225 170 L225 170 Z M334 576 C321 588 304 596 285 596 C266 596 249 588 236 576 C224 563 216 546 216 527 C216 508 224 491 236 478 C249 466 266 458 285 458 C304 458 321 466 334 478 C346 491 354 508 354 527 C354 546 346 563 334 576 L334 576 Z " />
<glyph glyph-name="Agrave" unicode="&#xc0;" horiz-adv-x="696" d="M490 68 C490 51 485 37 474 28 C465 20 453 16 434 13 C423 12 413 11 389 10 L387 0 L648 0 L650 10 C630 13 623 14 618 17 C607 21 600 28 595 37 C590 45 587 55 584 70 L464 711 L375 711 L385 653 L34 57 C23 38 13 29 -2 22 C-13 17 -25 14 -54 10 L-56 0 L141 0 L143 10 C122 11 105 12 93 15 C70 20 60 29 60 44 C60 55 65 70 80 94 L188 280 L453 280 L487 93 C488 85 490 75 490 68 L490 68 Z M450 298 L199 298 L390 627 L450 298 Z M440 751 L444 751 L398 900 L293 900 L293 897 L440 751 Z " />
<glyph glyph-name="Aacute" unicode="&#xc1;" horiz-adv-x="696" d="M490 68 C490 51 485 37 474 28 C465 20 453 16 434 13 C423 12 413 11 389 10 L387 0 L648 0 L650 10 C630 13 623 14 618 17 C607 21 600 28 595 37 C590 45 587 55 584 70 L464 711 L375 711 L385 653 L34 57 C23 38 13 29 -2 22 C-13 17 -25 14 -54 10 L-56 0 L141 0 L143 10 C122 11 105 12 93 15 C70 20 60 29 60 44 C60 55 65 70 80 94 L188 280 L453 280 L487 93 C488 85 490 75 490 68 L490 68 Z M450 298 L199 298 L390 627 L450 298 Z M419 751 L423 751 L596 897 L597 900 L485 900 L419 751 Z " />
<glyph glyph-name="Acircumflex" unicode="&#xc2;" horiz-adv-x="696" d="M490 68 C490 51 485 37 474 28 C465 20 453 16 434 13 C423 12 413 11 389 10 L387 0 L648 0 L650 10 C630 13 623 14 618 17 C607 21 600 28 595 37 C590 45 587 55 584 70 L464 711 L375 711 L385 653 L34 57 C23 38 13 29 -2 22 C-13 17 -25 14 -54 10 L-56 0 L141 0 L143 10 C122 11 105 12 93 15 C70 20 60 29 60 44 C60 55 65 70 80 94 L188 280 L453 280 L487 93 C488 85 490 75 490 68 L490 68 Z M450 298 L199 298 L390 627 L450 298 Z M288 751 L293 751 L456 835 L571 751 L576 751 L501 900 L433 900 L288 751 Z " />
<glyph glyph-name="Atilde" unicode="&#xc3;" horiz-adv-x="696" d="M490 68 C490 51 485 37 474 28 C465 20 453 16 434 13 C423 12 413 11 389 10 L387 0 L648 0 L650 10 C630 13 623 14 618 17 C607 21 600 28 595 37 C590 45 587 55 584 70 L464 711 L375 711 L385 653 L34 57 C23 38 13 29 -2 22 C-13 17 -25 14 -54 10 L-56 0 L141 0 L143 10 C122 11 105 12 93 15 C70 20 60 29 60 44 C60 55 65 70 80 94 L188 280 L453 280 L487 93 C488 85 490 75 490 68 L490 68 Z M450 298 L199 298 L390 627 L450 298 Z M601 877 C576 837 550 818 521 818 C512 818 502 820 491 827 C484 830 479 833 464 844 C449 856 442 860 435 864 C423 871 412 873 401 873 C374 873 352 859 331 830 C318 811 305 786 292 753 L297 750 C322 790 348 809 377 809 C386 809 396 807 407 800 C414 797 419 794 434 783 C449 771 456 767 463 763 C475 756 486 754 497 754 C524 754 546 768 567 797 C580 816 593 841 606 874 L601 877 Z " />
<glyph glyph-name="Adieresis" unicode="&#xc4;" horiz-adv-x="696" d="M490 68 C490 51 485 37 474 28 C465 20 453 16 434 13 C423 12 413 11 389 10 L387 0 L648 0 L650 10 C630 13 623 14 618 17 C607 21 600 28 595 37 C590 45 587 55 584 70 L464 711 L375 711 L385 653 L34 57 C23 38 13 29 -2 22 C-13 17 -25 14 -54 10 L-56 0 L141 0 L143 10 C122 11 105 12 93 15 C70 20 60 29 60 44 C60 55 65 70 80 94 L188 280 L453 280 L487 93 C488 85 490 75 490 68 L490 68 Z M450 298 L199 298 L390 627 L450 298 Z M399 779 C411 791 418 807 418 824 C418 840 413 854 402 865 C391 876 376 882 360 882 C344 882 328 875 316 863 C304 851 297 835 297 818 C297 802 302 788 313 777 C324 766 339 760 355 760 C371 760 387 767 399 779 L399 779 Z M585 779 C597 791 604 807 604 824 C604 840 599 854 588 865 C577 876 562 882 546 882 C530 882 514 875 502 863 C490 851 483 835 483 818 C483 802 488 788 499 777 C510 766 525 760 541 760 C557 760 573 767 585 779 L585 779 Z " />
<glyph glyph-name="Aring" unicode="&#xc5;" horiz-adv-x="696" d="M490 68 C490 51 485 37 474 28 C465 20 453 16 434 13 C423 12 413 11 389 10 L387 0 L648 0 L650 10 C630 13 623 14 618 17 C607 21 600 28 595 37 C590 45 587 55 584 70 L464 711 L375 711 L385 653 L34 57 C23 38 13 29 -2 22 C-13 17 -25 14 -54 10 L-56 0 L141 0 L143 10 C122 11 105 12 93 15 C70 20 60 29 60 44 C60 55 65 70 80 94 L188 280 L453 280 L487 93 C488 85 490 75 490 68 L490 68 Z M450 298 L199 298 L390 627 L450 298 Z M517 886 C502 899 482 906 458 906 C433 906 409 896 392 879 C375 862 365 838 365 811 C365 787 372 767 387 754 C402 741 422 734 446 734 C471 734 495 744 512 761 C529 778 539 802 539 829 C539 853 532 873 517 886 L517 886 Z M499 775 C484 760 466 752 445 752 C429 752 414 758 403 767 C391 778 385 793 385 809 C385 830 393 850 406 865 C419 880 438 888 459 888 C475 888 490 882 501 873 C513 862 519 847 519 831 C519 810 511 790 499 775 L499 775 Z " />
<glyph glyph-name="AE" unicode="&#xc6;" horiz-adv-x="971" d="M96 15 C69 20 57 29 57 44 C57 57 66 73 83 94 L238 280 L479 280 L436 81 C431 58 427 46 419 37 C411 28 400 21 380 17 C369 14 357 13 333 10 L331 0 L866 0 L942 200 L932 200 C901 147 872 106 843 78 C802 37 759 18 708 18 L615 18 C583 18 562 20 550 27 C530 36 524 53 531 84 L589 354 L751 354 C783 354 801 344 809 324 C814 309 815 291 814 254 L825 254 L871 472 L860 472 C848 439 836 418 824 403 C807 382 784 372 755 372 L593 372 L660 684 L830 684 C863 684 886 680 903 669 C922 657 935 638 946 609 C953 590 958 566 963 535 L972 535 L1003 702 L424 702 L422 692 C423 692 447 689 459 686 C472 683 484 680 495 676 C507 671 517 664 526 655 L29 60 C16 44 4 33 -7 26 C-22 17 -34 13 -54 10 L-56 0 L149 0 L151 10 C127 11 109 12 96 15 L96 15 Z M253 298 L562 670 L482 298 L253 298 Z " />
<glyph glyph-name="Ccedilla" unicode="&#xc7;" horiz-adv-x="644" d="M327 -202 C370 -185 393 -156 393 -119 C393 -95 381 -76 358 -64 C341 -55 318 -48 291 -47 L311 -10 L314 -10 C398 -10 470 7 543 44 L594 222 L585 222 C554 154 521 104 484 69 C437 25 384 4 317 4 C253 4 206 34 178 93 C157 136 146 194 146 265 C146 326 159 393 183 456 C207 523 243 580 286 621 C337 672 397 697 461 697 C517 697 559 678 587 642 C612 610 625 563 624 506 L633 506 L664 653 C639 672 606 686 569 697 C536 706 500 711 464 711 C388 711 316 689 252 646 C191 606 139 548 102 480 C65 412 45 337 45 265 C45 185 67 118 111 70 C155 21 220 -7 299 -10 L248 -95 C307 -98 335 -113 335 -142 C335 -165 318 -184 287 -196 C266 -204 239 -209 211 -209 L214 -221 C258 -221 296 -215 327 -202 L327 -202 Z " />
<glyph glyph-name="Egrave" unicode="&#xc8;" horiz-adv-x="614" d="M575 200 C544 147 515 106 486 78 C445 37 402 18 351 18 L258 18 C226 18 205 20 193 27 C173 36 167 53 174 84 L232 354 L394 354 C426 354 444 344 452 324 C457 309 458 291 457 254 L468 254 L514 472 L503 472 C491 439 479 418 467 403 C450 382 427 372 398 372 L236 372 L303 684 L473 684 C506 684 529 680 546 669 C565 657 578 638 589 609 C596 590 601 566 606 535 L615 535 L646 702 L124 702 L122 692 C150 689 156 687 164 686 C184 682 193 675 197 663 C200 654 199 641 195 621 L79 81 C74 58 70 46 62 37 C54 28 43 21 23 17 C12 14 0 13 -24 10 L-26 0 L509 0 L585 200 L575 200 Z M432 751 L436 751 L390 900 L285 900 L285 897 L432 751 Z " />
<glyph glyph-name="Eacute" unicode="&#xc9;" horiz-adv-x="614" d="M575 200 C544 147 515 106 486 78 C445 37 402 18 351 18 L258 18 C226 18 205 20 193 27 C173 36 167 53 174 84 L232 354 L394 354 C426 354 444 344 452 324 C457 309 458 291 457 254 L468 254 L514 472 L503 472 C491 439 479 418 467 403 C450 382 427 372 398 372 L236 372 L303 684 L473 684 C506 684 529 680 546 669 C565 657 578 638 589 609 C596 590 601 566 606 535 L615 535 L646 702 L124 702 L122 692 C150 689 156 687 164 686 C184 682 193 675 197 663 C200 654 199 641 195 621 L79 81 C74 58 70 46 62 37 C54 28 43 21 23 17 C12 14 0 13 -24 10 L-26 0 L509 0 L585 200 L575 200 Z M413 751 L417 751 L590 897 L591 900 L479 900 L413 751 Z " />
<glyph glyph-name="Ecircumflex" unicode="&#xca;" horiz-adv-x="614" d="M575 200 C544 147 515 106 486 78 C445 37 402 18 351 18 L258 18 C226 18 205 20 193 27 C173 36 167 53 174 84 L232 354 L394 354 C426 354 444 344 452 324 C457 309 458 291 457 254 L468 254 L514 472 L503 472 C491 439 479 418 467 403 C450 382 427 372 398 372 L236 372 L303 684 L473 684 C506 684 529 680 546 669 C565 657 578 638 589 609 C596 590 601 566 606 535 L615 535 L646 702 L124 702 L122 692 C150 689 156 687 164 686 C184 682 193 675 197 663 C200 654 199 641 195 621 L79 81 C74 58 70 46 62 37 C54 28 43 21 23 17 C12 14 0 13 -24 10 L-26 0 L509 0 L585 200 L575 200 Z M280 751 L285 751 L448 835 L563 751 L568 751 L493 900 L425 900 L280 751 Z " />
<glyph glyph-name="Edieresis" unicode="&#xcb;" horiz-adv-x="614" d="M575 200 C544 147 515 106 486 78 C445 37 402 18 351 18 L258 18 C226 18 205 20 193 27 C173 36 167 53 174 84 L232 354 L394 354 C426 354 444 344 452 324 C457 309 458 291 457 254 L468 254 L514 472 L503 472 C491 439 479 418 467 403 C450 382 427 372 398 372 L236 372 L303 684 L473 684 C506 684 529 680 546 669 C565 657 578 638 589 609 C596 590 601 566 606 535 L615 535 L646 702 L124 702 L122 692 C150 689 156 687 164 686 C184 682 193 675 197 663 C200 654 199 641 195 621 L79 81 C74 58 70 46 62 37 C54 28 43 21 23 17 C12 14 0 13 -24 10 L-26 0 L509 0 L585 200 L575 200 Z M391 779 C403 791 410 807 410 824 C410 840 405 854 394 865 C383 876 368 882 352 882 C336 882 320 875 308 863 C296 851 289 835 289 818 C289 802 294 788 305 777 C316 766 331 760 347 760 C363 760 379 767 391 779 L391 779 Z M577 779 C589 791 596 807 596 824 C596 840 591 854 580 865 C569 876 554 882 538 882 C522 882 506 875 494 863 C482 851 475 835 475 818 C475 802 480 788 491 777 C502 766 517 760 533 760 C549 760 565 767 577 779 L577 779 Z " />
<glyph glyph-name="Igrave" unicode="&#xcc;" horiz-adv-x="326" d="M306 665 C314 674 325 681 345 685 C356 688 368 689 392 692 L394 702 L124 702 L122 692 C150 689 156 687 164 686 C184 682 193 675 197 663 C200 654 199 641 195 621 L79 81 C74 58 70 46 62 37 C54 28 43 21 23 17 C12 14 0 13 -24 10 L-26 0 L244 0 L246 10 C218 13 212 15 204 16 C184 20 175 27 171 39 C168 48 169 61 173 81 L289 621 C294 644 298 656 306 665 L306 665 Z M272 751 L276 751 L230 900 L125 900 L125 897 L272 751 Z " />
<glyph glyph-name="Iacute" unicode="&#xcd;" horiz-adv-x="326" d="M306 665 C314 674 325 681 345 685 C356 688 368 689 392 692 L394 702 L124 702 L122 692 C150 689 156 687 164 686 C184 682 193 675 197 663 C200 654 199 641 195 621 L79 81 C74 58 70 46 62 37 C54 28 43 21 23 17 C12 14 0 13 -24 10 L-26 0 L244 0 L246 10 C218 13 212 15 204 16 C184 20 175 27 171 39 C168 48 169 61 173 81 L289 621 C294 644 298 656 306 665 L306 665 Z M263 751 L267 751 L440 897 L441 900 L329 900 L263 751 Z " />
<glyph glyph-name="Icircumflex" unicode="&#xce;" horiz-adv-x="326" d="M306 665 C314 674 325 681 345 685 C356 688 368 689 392 692 L394 702 L124 702 L122 692 C150 689 156 687 164 686 C184 682 193 675 197 663 C200 654 199 641 195 621 L79 81 C74 58 70 46 62 37 C54 28 43 21 23 17 C12 14 0 13 -24 10 L-26 0 L244 0 L246 10 C218 13 212 15 204 16 C184 20 175 27 171 39 C168 48 169 61 173 81 L289 621 C294 644 298 656 306 665 L306 665 Z M120 751 L125 751 L288 835 L403 751 L408 751 L333 900 L265 900 L120 751 Z " />
<glyph glyph-name="Idieresis" unicode="&#xcf;" horiz-adv-x="326" d="M306 665 C314 674 325 681 345 685 C356 688 368 689 392 692 L394 702 L124 702 L122 692 C150 689 156 687 164 686 C184 682 193 675 197 663 C200 654 199 641 195 621 L79 81 C74 58 70 46 62 37 C54 28 43 21 23 17 C12 14 0 13 -24 10 L-26 0 L244 0 L246 10 C218 13 212 15 204 16 C184 20 175 27 171 39 C168 48 169 61 173 81 L289 621 C294 644 298 656 306 665 L306 665 Z M234 779 C246 791 253 807 253 824 C253 840 248 854 237 865 C226 876 211 882 195 882 C179 882 163 875 151 863 C139 851 132 835 132 818 C132 802 137 788 148 777 C159 766 174 760 190 760 C206 760 222 767 234 779 L234 779 Z M420 779 C432 791 439 807 439 824 C439 840 434 854 423 865 C412 876 397 882 381 882 C365 882 349 875 337 863 C325 851 318 835 318 818 C318 802 323 788 334 777 C345 766 360 760 376 760 C392 760 408 767 420 779 L420 779 Z " />
<glyph glyph-name="Eth" unicode="&#xd0;" horiz-adv-x="700" d="M257 0 C336 0 410 18 475 51 C543 87 599 139 636 203 C673 267 692 340 692 420 C692 512 658 585 591 636 C534 679 453 702 357 702 L124 702 L122 692 C150 689 156 687 164 686 C184 682 193 675 197 663 C200 654 199 641 195 621 L142 373 L70 373 L66 355 L138 355 L80 82 C75 59 71 47 63 38 C55 29 44 22 24 18 C13 15 1 14 -23 11 L-26 0 L257 0 Z M532 611 C571 566 591 501 591 420 C591 352 580 287 557 231 C532 167 493 114 444 77 C392 38 330 17 265 17 L250 17 C217 17 198 21 187 29 C174 40 169 57 176 88 L232 355 L377 355 L381 373 L236 373 L302 684 L347 684 C428 684 491 659 532 611 L532 611 Z " />
<glyph glyph-name="Ntilde" unicode="&#xd1;" horiz-adv-x="729" d="M263 702 L112 702 L110 692 C130 692 146 685 161 673 C173 664 183 650 196 629 L79 81 C74 58 70 46 62 37 C54 28 43 21 23 17 C12 14 0 13 -24 10 L-26 0 L193 0 L195 10 C174 11 159 12 146 15 C126 19 113 24 105 35 C98 44 97 60 101 81 L212 602 L558 -4 L567 -4 L700 621 C705 644 709 656 717 665 C725 674 736 681 756 685 C767 688 779 689 803 692 L805 702 L585 702 L583 692 C604 691 619 690 632 687 C652 683 665 678 673 667 C680 658 681 642 677 621 L576 137 L263 702 Z M639 877 C614 837 588 818 559 818 C550 818 540 820 529 827 C522 830 517 833 502 844 C487 856 480 860 473 864 C461 871 450 873 439 873 C412 873 390 859 369 830 C356 811 343 786 330 753 L335 750 C360 790 386 809 415 809 C424 809 434 807 445 800 C452 797 457 794 472 783 C487 771 494 767 501 763 C513 756 524 754 535 754 C562 754 584 768 605 797 C618 816 631 841 644 874 L639 877 Z " />
<glyph glyph-name="Ograve" unicode="&#xd2;" horiz-adv-x="696" d="M228 641 C175 598 128 540 95 471 C63 403 45 330 45 262 C45 183 69 115 113 66 C158 17 225 -10 305 -10 C376 -10 444 14 505 61 C560 104 606 162 638 231 C670 298 688 372 688 440 C688 519 664 587 620 636 C575 685 508 712 428 712 C357 712 289 688 228 641 L228 641 Z M559 605 C578 562 587 507 587 440 C587 380 576 315 557 254 C534 187 503 129 466 86 C419 33 363 4 302 4 C243 4 201 36 174 96 C155 139 146 195 146 262 C146 322 157 387 176 448 C199 515 230 572 267 615 C314 668 370 697 431 697 C490 697 532 666 559 605 L559 605 Z M462 751 L466 751 L420 900 L315 900 L315 897 L462 751 Z " />
<glyph glyph-name="Oacute" unicode="&#xd3;" horiz-adv-x="696" d="M228 641 C175 598 128 540 95 471 C63 403 45 330 45 262 C45 183 69 115 113 66 C158 17 225 -10 305 -10 C376 -10 444 14 505 61 C560 104 606 162 638 231 C670 298 688 372 688 440 C688 519 664 587 620 636 C575 685 508 712 428 712 C357 712 289 688 228 641 L228 641 Z M559 605 C578 562 587 507 587 440 C587 380 576 315 557 254 C534 187 503 129 466 86 C419 33 363 4 302 4 C243 4 201 36 174 96 C155 139 146 195 146 262 C146 322 157 387 176 448 C199 515 230 572 267 615 C314 668 370 697 431 697 C490 697 532 666 559 605 L559 605 Z M453 751 L457 751 L630 897 L631 900 L519 900 L453 751 Z " />
<glyph glyph-name="Ocircumflex" unicode="&#xd4;" horiz-adv-x="696" d="M228 641 C175 598 128 540 95 471 C63 403 45 330 45 262 C45 183 69 115 113 66 C158 17 225 -10 305 -10 C376 -10 444 14 505 61 C560 104 606 162 638 231 C670 298 688 372 688 440 C688 519 664 587 620 636 C575 685 508 712 428 712 C357 712 289 688 228 641 L228 641 Z M559 605 C578 562 587 507 587 440 C587 380 576 315 557 254 C534 187 503 129 466 86 C419 33 363 4 302 4 C243 4 201 36 174 96 C155 139 146 195 146 262 C146 322 157 387 176 448 C199 515 230 572 267 615 C314 668 370 697 431 697 C490 697 532 666 559 605 L559 605 Z M310 751 L315 751 L478 835 L593 751 L598 751 L523 900 L455 900 L310 751 Z " />
<glyph glyph-name="Otilde" unicode="&#xd5;" horiz-adv-x="696" d="M228 641 C175 598 128 540 95 471 C63 403 45 330 45 262 C45 183 69 115 113 66 C158 17 225 -10 305 -10 C376 -10 444 14 505 61 C560 104 606 162 638 231 C670 298 688 372 688 440 C688 519 664 587 620 636 C575 685 508 712 428 712 C357 712 289 688 228 641 L228 641 Z M559 605 C578 562 587 507 587 440 C587 380 576 315 557 254 C534 187 503 129 466 86 C419 33 363 4 302 4 C243 4 201 36 174 96 C155 139 146 195 146 262 C146 322 157 387 176 448 C199 515 230 572 267 615 C314 668 370 697 431 697 C490 697 532 666 559 605 L559 605 Z M624 877 C599 837 573 818 544 818 C535 818 525 820 514 827 C507 830 502 833 487 844 C472 856 465 860 458 864 C446 871 435 873 424 873 C397 873 375 859 354 830 C341 811 328 786 315 753 L320 750 C345 790 371 809 400 809 C409 809 419 807 430 800 C437 797 442 794 457 783 C472 771 479 767 486 763 C498 756 509 754 520 754 C547 754 569 768 590 797 C603 816 616 841 629 874 L624 877 Z " />
<glyph glyph-name="Odieresis" unicode="&#xd6;" horiz-adv-x="696" d="M228 641 C175 598 128 540 95 471 C63 403 45 330 45 262 C45 183 69 115 113 66 C158 17 225 -10 305 -10 C376 -10 444 14 505 61 C560 104 606 162 638 231 C670 298 688 372 688 440 C688 519 664 587 620 636 C575 685 508 712 428 712 C357 712 289 688 228 641 L228 641 Z M559 605 C578 562 587 507 587 440 C587 380 576 315 557 254 C534 187 503 129 466 86 C419 33 363 4 302 4 C243 4 201 36 174 96 C155 139 146 195 146 262 C146 322 157 387 176 448 C199 515 230 572 267 615 C314 668 370 697 431 697 C490 697 532 666 559 605 L559 605 Z M421 779 C433 791 440 807 440 824 C440 840 435 854 424 865 C413 876 398 882 382 882 C366 882 350 875 338 863 C326 851 319 835 319 818 C319 802 324 788 335 777 C346 766 361 760 377 760 C393 760 409 767 421 779 L421 779 Z M607 779 C619 791 626 807 626 824 C626 840 621 854 610 865 C599 876 584 882 568 882 C552 882 536 875 524 863 C512 851 505 835 505 818 C505 802 510 788 521 777 C532 766 547 760 563 760 C579 760 595 767 607 779 L607 779 Z " />
<glyph glyph-name="multiply" unicode="&#xd7;" horiz-adv-x="488" d="M380 192 L397 206 L271 365 L456 518 L442 535 L257 383 L138 533 L121 519 L240 369 L46 209 L60 192 L254 351 L380 192 Z " />
<glyph glyph-name="Oslash" unicode="&#xd8;" horiz-adv-x="696" d="M131 49 C175 10 234 -10 305 -10 C376 -10 444 14 505 61 C560 104 606 162 638 231 C670 298 688 372 688 440 C688 525 659 600 607 649 L656 711 L642 722 L593 660 C550 695 495 712 428 712 C357 712 289 688 228 641 C175 598 128 540 95 471 C63 403 45 330 45 262 C45 223 51 187 62 154 C74 118 94 86 118 61 L57 -16 L71 -27 L131 49 Z M431 697 C487 697 529 668 556 613 L165 120 C153 160 146 207 146 262 C146 322 157 387 176 448 C199 515 230 572 267 615 C314 668 370 697 431 697 L431 697 Z M557 254 C534 187 503 129 466 86 C419 33 363 4 302 4 C242 4 197 37 172 101 L563 594 C579 555 587 503 587 440 C587 380 576 315 557 254 L557 254 Z " />
<glyph glyph-name="Ugrave" unicode="&#xd9;" horiz-adv-x="703" d="M284 665 C292 674 303 681 323 685 C334 688 346 689 370 692 L372 702 L102 702 L100 692 C128 689 134 687 142 686 C162 682 171 675 175 663 C178 654 177 641 173 621 L100 278 C81 193 93 121 133 70 C174 18 242 -10 327 -10 C402 -10 466 13 514 58 C559 101 591 161 607 237 L689 621 C694 644 698 656 706 665 C714 674 725 681 745 685 C756 688 768 689 792 692 L794 702 L596 702 L594 692 C622 689 628 687 636 686 C656 682 665 675 669 663 C672 654 671 641 667 621 L588 254 C572 178 547 123 511 86 C470 45 415 25 340 25 C297 25 262 39 235 64 C210 88 193 123 188 166 C184 201 186 239 195 282 L267 621 C272 644 276 656 284 665 L284 665 Z M488 751 L492 751 L446 900 L341 900 L341 897 L488 751 Z " />
<glyph glyph-name="Uacute" unicode="&#xda;" horiz-adv-x="703" d="M284 665 C292 674 303 681 323 685 C334 688 346 689 370 692 L372 702 L102 702 L100 692 C128 689 134 687 142 686 C162 682 171 675 175 663 C178 654 177 641 173 621 L100 278 C81 193 93 121 133 70 C174 18 242 -10 327 -10 C402 -10 466 13 514 58 C559 101 591 161 607 237 L689 621 C694 644 698 656 706 665 C714 674 725 681 745 685 C756 688 768 689 792 692 L794 702 L596 702 L594 692 C622 689 628 687 636 686 C656 682 665 675 669 663 C672 654 671 641 667 621 L588 254 C572 178 547 123 511 86 C470 45 415 25 340 25 C297 25 262 39 235 64 C210 88 193 123 188 166 C184 201 186 239 195 282 L267 621 C272 644 276 656 284 665 L284 665 Z M461 751 L465 751 L638 897 L639 900 L527 900 L461 751 Z " />
<glyph glyph-name="Ucircumflex" unicode="&#xdb;" horiz-adv-x="703" d="M284 665 C292 674 303 681 323 685 C334 688 346 689 370 692 L372 702 L102 702 L100 692 C128 689 134 687 142 686 C162 682 171 675 175 663 C178 654 177 641 173 621 L100 278 C81 193 93 121 133 70 C174 18 242 -10 327 -10 C402 -10 466 13 514 58 C559 101 591 161 607 237 L689 621 C694 644 698 656 706 665 C714 674 725 681 745 685 C756 688 768 689 792 692 L794 702 L596 702 L594 692 C622 689 628 687 636 686 C656 682 665 675 669 663 C672 654 671 641 667 621 L588 254 C572 178 547 123 511 86 C470 45 415 25 340 25 C297 25 262 39 235 64 C210 88 193 123 188 166 C184 201 186 239 195 282 L267 621 C272 644 276 656 284 665 L284 665 Z M336 751 L341 751 L504 835 L619 751 L624 751 L549 900 L481 900 L336 751 Z " />
<glyph glyph-name="Udieresis" unicode="&#xdc;" horiz-adv-x="703" d="M284 665 C292 674 303 681 323 685 C334 688 346 689 370 692 L372 702 L102 702 L100 692 C128 689 134 687 142 686 C162 682 171 675 175 663 C178 654 177 641 173 621 L100 278 C81 193 93 121 133 70 C174 18 242 -10 327 -10 C402 -10 466 13 514 58 C559 101 591 161 607 237 L689 621 C694 644 698 656 706 665 C714 674 725 681 745 685 C756 688 768 689 792 692 L794 702 L596 702 L594 692 C622 689 628 687 636 686 C656 682 665 675 669 663 C672 654 671 641 667 621 L588 254 C572 178 547 123 511 86 C470 45 415 25 340 25 C297 25 262 39 235 64 C210 88 193 123 188 166 C184 201 186 239 195 282 L267 621 C272 644 276 656 284 665 L284 665 Z M447 779 C459 791 466 807 466 824 C466 840 461 854 450 865 C439 876 424 882 408 882 C392 882 376 875 364 863 C352 851 345 835 345 818 C345 802 350 788 361 777 C372 766 387 760 403 760 C419 760 435 767 447 779 L447 779 Z M633 779 C645 791 652 807 652 824 C652 840 647 854 636 865 C625 876 610 882 594 882 C578 882 562 875 550 863 C538 851 531 835 531 818 C531 802 536 788 547 777 C558 766 573 760 589 760 C605 760 621 767 633 779 L633 779 Z " />
<glyph glyph-name="Yacute" unicode="&#xdd;" horiz-adv-x="606" d="M247 609 C239 630 238 639 238 652 C238 668 244 677 260 682 C269 686 282 689 299 690 C310 691 324 692 340 692 L342 702 L86 702 L84 692 C101 689 110 686 118 682 C127 677 134 668 139 655 L273 300 L228 83 C223 60 217 46 209 37 C200 28 187 22 166 17 C155 14 140 13 115 10 L113 0 L398 0 L400 10 C376 13 365 13 354 16 C333 20 321 27 317 38 C312 49 313 62 317 83 L365 305 L642 655 C651 667 662 676 674 681 C683 686 694 689 713 692 L715 702 L522 702 L520 692 C533 692 546 691 555 690 C570 689 581 687 589 684 C602 679 609 672 609 660 C609 653 606 644 599 633 C595 626 592 621 581 608 L355 323 L247 609 Z M433 751 L437 751 L610 897 L611 900 L499 900 L433 751 Z " />
<glyph glyph-name="Thorn" unicode="&#xde;" horiz-adv-x="596" d="M306 665 C314 674 325 681 345 685 C356 688 368 689 392 692 L394 702 L124 702 L122 692 C150 689 156 687 164 686 C184 682 193 675 197 663 C200 654 199 641 195 621 L79 81 C74 58 70 46 62 37 C54 28 43 21 23 17 C12 14 0 13 -24 10 L-26 0 L244 0 L246 10 C218 13 212 15 204 16 C184 20 175 27 171 39 C168 48 169 61 173 81 L192 169 L264 169 C316 169 365 176 408 189 C460 205 502 231 531 263 C564 299 582 344 582 395 C582 432 569 467 545 495 C524 522 492 540 455 552 C423 563 386 568 345 568 L278 568 L289 621 C294 644 298 656 306 665 L306 665 Z M322 550 C371 550 412 536 441 509 C470 481 487 440 487 393 C487 329 464 277 423 240 C383 205 327 187 263 187 L196 187 L274 550 L322 550 Z " />
<glyph glyph-name="germandbls" unicode="&#xdf;" horiz-adv-x="566" d="M331 319 C340 304 350 291 379 256 C411 217 423 201 434 184 C454 152 464 125 464 100 C464 79 455 58 439 43 C424 30 404 21 381 21 C349 21 317 38 293 69 C272 94 257 129 252 164 L250 164 C237 159 223 149 215 136 C204 124 200 108 200 95 C200 66 216 37 243 17 C266 0 297 -10 330 -10 C359 -10 390 -3 418 12 C446 25 471 46 490 67 C513 94 525 123 525 150 C525 171 519 192 507 216 C498 233 485 252 468 272 C459 285 448 296 423 324 C398 351 389 360 381 371 C362 394 354 411 354 426 C354 441 358 452 366 463 C373 472 381 480 396 491 L424 511 L458 536 C483 555 500 572 512 589 C528 610 536 634 536 659 C536 698 519 730 487 753 C460 773 423 783 382 783 C315 783 256 755 211 699 C172 654 145 592 130 520 L46 486 L46 480 L122 480 L27 -7 C23 -27 20 -44 16 -59 C12 -80 8 -96 3 -111 C-2 -134 -9 -150 -16 -162 C-27 -182 -38 -190 -55 -190 C-75 -190 -92 -176 -103 -152 C-110 -135 -114 -112 -115 -87 L-117 -87 C-133 -88 -147 -95 -158 -103 C-171 -114 -178 -128 -178 -144 C-178 -165 -168 -182 -149 -193 C-133 -202 -113 -207 -90 -207 C-38 -207 3 -184 38 -133 C62 -100 83 -54 103 6 C118 47 130 97 143 156 L237 582 C249 641 261 675 273 702 C296 749 327 771 368 771 C395 771 418 757 434 732 C446 712 453 684 453 655 C453 626 448 597 436 572 C425 544 407 520 386 503 C357 479 342 466 331 454 C311 433 303 414 303 390 C303 370 311 347 331 319 L331 319 Z " />
<glyph glyph-name="agrave" unicode="&#xe0;" horiz-adv-x="539" d="M509 138 C494 118 480 100 465 85 C442 62 422 49 409 49 C398 49 394 55 394 67 C394 75 397 91 402 110 L479 426 L514 538 L510 538 L435 492 C423 504 407 513 390 520 C373 527 356 530 337 530 C284 530 226 505 173 460 C129 421 91 371 64 316 C36 259 22 198 22 139 C22 100 29 67 44 40 C63 8 91 -10 126 -10 C167 -10 216 23 264 86 C297 127 327 180 352 236 C321 141 305 74 305 43 C305 10 322 -10 353 -10 C384 -10 417 7 449 42 C472 66 495 97 515 134 L509 138 Z M109 148 C109 197 118 250 135 301 C154 353 180 401 209 438 C250 487 295 515 338 515 C378 515 399 487 402 435 C395 395 386 356 374 319 C361 280 346 242 329 209 C309 170 286 135 262 110 C227 71 192 51 163 51 C126 51 109 83 109 148 L109 148 Z M371 592 L377 592 L322 761 L217 761 L217 757 L371 592 Z " />
<glyph glyph-name="aacute" unicode="&#xe1;" horiz-adv-x="539" d="M509 138 C494 118 480 100 465 85 C442 62 422 49 409 49 C398 49 394 55 394 67 C394 75 397 91 402 110 L479 426 L514 538 L510 538 L435 492 C423 504 407 513 390 520 C373 527 356 530 337 530 C284 530 226 505 173 460 C129 421 91 371 64 316 C36 259 22 198 22 139 C22 100 29 67 44 40 C63 8 91 -10 126 -10 C167 -10 216 23 264 86 C297 127 327 180 352 236 C321 141 305 74 305 43 C305 10 322 -10 353 -10 C384 -10 417 7 449 42 C472 66 495 97 515 134 L509 138 Z M109 148 C109 197 118 250 135 301 C154 353 180 401 209 438 C250 487 295 515 338 515 C378 515 399 487 402 435 C395 395 386 356 374 319 C361 280 346 242 329 209 C309 170 286 135 262 110 C227 71 192 51 163 51 C126 51 109 83 109 148 L109 148 Z M356 592 L362 592 L551 757 L552 761 L441 761 L356 592 Z " />
<glyph glyph-name="acircumflex" unicode="&#xe2;" horiz-adv-x="539" d="M509 138 C494 118 480 100 465 85 C442 62 422 49 409 49 C398 49 394 55 394 67 C394 75 397 91 402 110 L479 426 L514 538 L510 538 L435 492 C423 504 407 513 390 520 C373 527 356 530 337 530 C284 530 226 505 173 460 C129 421 91 371 64 316 C36 259 22 198 22 139 C22 100 29 67 44 40 C63 8 91 -10 126 -10 C167 -10 216 23 264 86 C297 127 327 180 352 236 C321 141 305 74 305 43 C305 10 322 -10 353 -10 C384 -10 417 7 449 42 C472 66 495 97 515 134 L509 138 Z M109 148 C109 197 118 250 135 301 C154 353 180 401 209 438 C250 487 295 515 338 515 C378 515 399 487 402 435 C395 395 386 356 374 319 C361 280 346 242 329 209 C309 170 286 135 262 110 C227 71 192 51 163 51 C126 51 109 83 109 148 L109 148 Z M210 592 L216 592 L379 700 L492 592 L498 592 L425 765 L357 765 L210 592 Z " />
<glyph glyph-name="atilde" unicode="&#xe3;" horiz-adv-x="539" d="M509 138 C494 118 480 100 465 85 C442 62 422 49 409 49 C398 49 394 55 394 67 C394 75 397 91 402 110 L479 426 L514 538 L510 538 L435 492 C423 504 407 513 390 520 C373 527 356 530 337 530 C284 530 226 505 173 460 C129 421 91 371 64 316 C36 259 22 198 22 139 C22 100 29 67 44 40 C63 8 91 -10 126 -10 C167 -10 216 23 264 86 C297 127 327 180 352 236 C321 141 305 74 305 43 C305 10 322 -10 353 -10 C384 -10 417 7 449 42 C472 66 495 97 515 134 L509 138 Z M109 148 C109 197 118 250 135 301 C154 353 180 401 209 438 C250 487 295 515 338 515 C378 515 399 487 402 435 C395 395 386 356 374 319 C361 280 346 242 329 209 C309 170 286 135 262 110 C227 71 192 51 163 51 C126 51 109 83 109 148 L109 148 Z M548 723 C536 704 524 691 512 682 C497 673 481 668 461 668 C452 668 441 671 430 676 L401 695 C385 707 378 711 370 715 C358 720 347 724 335 724 C304 724 282 713 261 686 C248 669 234 643 218 610 L224 607 C235 626 247 639 259 648 C274 657 289 662 310 662 C321 662 330 660 342 653 C349 650 355 646 370 635 C387 623 394 619 402 615 C414 610 425 606 437 606 C468 606 490 617 511 644 C524 661 538 687 554 720 L548 723 Z " />
<glyph glyph-name="adieresis" unicode="&#xe4;" horiz-adv-x="539" d="M509 138 C494 118 480 100 465 85 C442 62 422 49 409 49 C398 49 394 55 394 67 C394 75 397 91 402 110 L479 426 L514 538 L510 538 L435 492 C423 504 407 513 390 520 C373 527 356 530 337 530 C284 530 226 505 173 460 C129 421 91 371 64 316 C36 259 22 198 22 139 C22 100 29 67 44 40 C63 8 91 -10 126 -10 C167 -10 216 23 264 86 C297 127 327 180 352 236 C321 141 305 74 305 43 C305 10 322 -10 353 -10 C384 -10 417 7 449 42 C472 66 495 97 515 134 L509 138 Z M109 148 C109 197 118 250 135 301 C154 353 180 401 209 438 C250 487 295 515 338 515 C378 515 399 487 402 435 C395 395 386 356 374 319 C361 280 346 242 329 209 C309 170 286 135 262 110 C227 71 192 51 163 51 C126 51 109 83 109 148 L109 148 Z M335 627 C347 639 354 655 354 672 C354 688 349 702 338 713 C327 724 312 730 296 730 C280 730 264 723 252 711 C240 699 233 683 233 666 C233 650 238 636 249 625 C260 614 275 608 291 608 C307 608 323 615 335 627 L335 627 Z M501 627 C513 639 520 655 520 672 C520 688 515 702 504 713 C493 724 478 730 462 730 C446 730 430 723 418 711 C406 699 399 683 399 666 C399 650 404 636 415 625 C426 614 441 608 457 608 C473 608 489 615 501 627 L501 627 Z " />
<glyph glyph-name="aring" unicode="&#xe5;" horiz-adv-x="539" d="M509 138 C494 118 480 100 465 85 C442 62 422 49 409 49 C398 49 394 55 394 67 C394 75 397 91 402 110 L479 426 L514 538 L510 538 L435 492 C423 504 407 513 390 520 C373 527 356 530 337 530 C284 530 226 505 173 460 C129 421 91 371 64 316 C36 259 22 198 22 139 C22 100 29 67 44 40 C63 8 91 -10 126 -10 C167 -10 216 23 264 86 C297 127 327 180 352 236 C321 141 305 74 305 43 C305 10 322 -10 353 -10 C384 -10 417 7 449 42 C472 66 495 97 515 134 L509 138 Z M109 148 C109 197 118 250 135 301 C154 353 180 401 209 438 C250 487 295 515 338 515 C378 515 399 487 402 435 C395 395 386 356 374 319 C361 280 346 242 329 209 C309 170 286 135 262 110 C227 71 192 51 163 51 C126 51 109 83 109 148 L109 148 Z M433 593 C450 610 460 634 460 661 C460 685 453 705 438 718 C423 731 403 738 379 738 C354 738 330 728 313 711 C296 694 286 670 286 643 C286 619 293 599 308 586 C323 573 343 566 367 566 C392 566 416 576 433 593 L433 593 Z M324 599 C312 610 306 625 306 641 C306 662 314 682 327 697 C340 712 359 720 380 720 C396 720 411 714 422 705 C434 694 440 679 440 663 C440 642 432 622 420 607 C405 592 387 584 366 584 C350 584 335 590 324 599 L324 599 Z " />
<glyph glyph-name="ae" unicode="&#xe6;" horiz-adv-x="715" d="M661 142 C614 75 562 42 506 42 C469 42 439 58 422 90 C407 114 400 148 400 189 C400 205 400 222 403 239 C486 254 546 271 594 292 C675 327 715 374 715 433 C715 464 704 490 681 507 C661 522 634 530 601 530 C552 530 501 508 454 468 C438 489 423 503 404 514 C384 525 362 530 337 530 C284 530 226 505 173 460 C129 421 91 371 64 316 C36 259 22 198 22 139 C22 100 29 67 44 40 C63 8 91 -10 126 -10 C159 -10 197 12 237 53 C262 81 289 118 313 159 C314 110 330 68 355 39 C382 7 422 -10 470 -10 C511 -10 551 5 588 36 C619 61 645 97 668 138 L661 142 Z M625 495 C632 484 636 469 636 450 C636 391 611 346 560 311 C523 286 472 265 405 250 C410 287 421 324 434 359 C450 398 469 431 490 458 C521 494 552 514 584 514 C603 514 616 507 625 495 L625 495 Z M135 301 C154 353 180 401 209 438 C250 487 295 515 338 515 C382 515 416 492 436 452 C401 417 373 375 350 327 C327 279 314 228 313 181 C294 148 274 119 251 98 C222 67 190 51 163 51 C126 51 109 83 109 148 C109 197 118 250 135 301 L135 301 Z " />
<glyph glyph-name="ccedilla" unicode="&#xe7;" horiz-adv-x="407" d="M174 -202 C217 -185 240 -156 240 -119 C240 -95 228 -76 205 -64 C188 -55 165 -48 138 -47 L159 -9 C163 -10 167 -10 176 -10 C216 -10 256 6 292 38 C321 65 348 101 368 142 L362 146 C313 75 263 42 210 42 C173 42 145 59 128 91 C116 115 109 148 109 189 C109 232 115 276 127 319 C140 366 159 407 182 439 C213 486 250 510 286 510 C315 510 333 494 342 461 C346 441 349 415 346 380 L348 380 C365 383 383 391 396 403 C411 416 418 432 418 451 C418 478 407 500 384 513 C367 524 342 530 313 530 C262 530 209 508 161 467 C121 431 85 384 61 332 C36 279 22 222 22 170 C22 126 32 87 52 56 C73 21 107 -1 147 -8 L95 -95 C154 -98 182 -113 182 -142 C182 -165 165 -184 134 -196 C113 -204 86 -209 58 -209 L61 -221 C105 -221 143 -215 174 -202 L174 -202 Z " />
<glyph glyph-name="egrave" unicode="&#xe8;" horiz-adv-x="424" d="M370 142 C323 75 271 42 215 42 C178 42 148 58 131 90 C116 114 109 148 109 189 C109 205 109 222 112 239 C195 254 255 271 303 292 C384 327 424 374 424 433 C424 464 413 490 390 507 C370 522 343 530 310 530 C259 530 207 507 160 466 C120 430 85 384 61 331 C36 278 22 222 22 170 C22 118 36 75 61 43 C88 8 130 -10 179 -10 C220 -10 260 5 297 36 C328 61 354 97 377 138 L370 142 Z M334 495 C341 484 345 469 345 450 C345 391 320 346 269 311 C232 286 181 265 114 250 C119 287 130 324 143 359 C159 398 178 431 199 458 C230 494 261 514 293 514 C312 514 325 507 334 495 L334 495 Z M341 592 L347 592 L292 761 L187 761 L187 757 L341 592 Z " />
<glyph glyph-name="eacute" unicode="&#xe9;" horiz-adv-x="424" d="M370 142 C323 75 271 42 215 42 C178 42 148 58 131 90 C116 114 109 148 109 189 C109 205 109 222 112 239 C195 254 255 271 303 292 C384 327 424 374 424 433 C424 464 413 490 390 507 C370 522 343 530 310 530 C259 530 207 507 160 466 C120 430 85 384 61 331 C36 278 22 222 22 170 C22 118 36 75 61 43 C88 8 130 -10 179 -10 C220 -10 260 5 297 36 C328 61 354 97 377 138 L370 142 Z M334 495 C341 484 345 469 345 450 C345 391 320 346 269 311 C232 286 181 265 114 250 C119 287 130 324 143 359 C159 398 178 431 199 458 C230 494 261 514 293 514 C312 514 325 507 334 495 L334 495 Z M302 592 L308 592 L497 757 L498 761 L387 761 L302 592 Z " />
<glyph glyph-name="ecircumflex" unicode="&#xea;" horiz-adv-x="424" d="M370 142 C323 75 271 42 215 42 C178 42 148 58 131 90 C116 114 109 148 109 189 C109 205 109 222 112 239 C195 254 255 271 303 292 C384 327 424 374 424 433 C424 464 413 490 390 507 C370 522 343 530 310 530 C259 530 207 507 160 466 C120 430 85 384 61 331 C36 278 22 222 22 170 C22 118 36 75 61 43 C88 8 130 -10 179 -10 C220 -10 260 5 297 36 C328 61 354 97 377 138 L370 142 Z M334 495 C341 484 345 469 345 450 C345 391 320 346 269 311 C232 286 181 265 114 250 C119 287 130 324 143 359 C159 398 178 431 199 458 C230 494 261 514 293 514 C312 514 325 507 334 495 L334 495 Z M182 592 L188 592 L351 700 L464 592 L470 592 L397 765 L329 765 L182 592 Z " />
<glyph glyph-name="edieresis" unicode="&#xeb;" horiz-adv-x="424" d="M370 142 C323 75 271 42 215 42 C178 42 148 58 131 90 C116 114 109 148 109 189 C109 205 109 222 112 239 C195 254 255 271 303 292 C384 327 424 374 424 433 C424 464 413 490 390 507 C370 522 343 530 310 530 C259 530 207 507 160 466 C120 430 85 384 61 331 C36 278 22 222 22 170 C22 118 36 75 61 43 C88 8 130 -10 179 -10 C220 -10 260 5 297 36 C328 61 354 97 377 138 L370 142 Z M334 495 C341 484 345 469 345 450 C345 391 320 346 269 311 C232 286 181 265 114 250 C119 287 130 324 143 359 C159 398 178 431 199 458 C230 494 261 514 293 514 C312 514 325 507 334 495 L334 495 Z M292 627 C304 639 311 655 311 672 C311 688 306 702 295 713 C284 724 269 730 253 730 C237 730 221 723 209 711 C197 699 190 683 190 666 C190 650 195 636 206 625 C217 614 232 608 248 608 C264 608 280 615 292 627 L292 627 Z M458 627 C470 639 477 655 477 672 C477 688 472 702 461 713 C450 724 435 730 419 730 C403 730 387 723 375 711 C363 699 356 683 356 666 C356 650 361 636 372 625 C383 614 398 608 414 608 C430 608 446 615 458 627 L458 627 Z " />
<glyph glyph-name="igrave" unicode="&#xec;" horiz-adv-x="272" d="M28 43 C28 27 33 13 41 4 C49 -5 62 -10 77 -10 C108 -10 141 7 173 42 C196 66 219 97 239 134 L233 138 C218 118 204 100 189 85 C166 62 146 49 133 49 C122 49 118 55 118 67 C118 75 121 91 126 110 L232 530 L228 530 L55 487 L55 483 L123 444 L38 106 C31 78 28 59 28 43 L28 43 Z M202 592 L208 592 L153 761 L48 761 L48 757 L202 592 Z " />
<glyph glyph-name="iacute" unicode="&#xed;" horiz-adv-x="272" d="M28 43 C28 27 33 13 41 4 C49 -5 62 -10 77 -10 C108 -10 141 7 173 42 C196 66 219 97 239 134 L233 138 C218 118 204 100 189 85 C166 62 146 49 133 49 C122 49 118 55 118 67 C118 75 121 91 126 110 L232 530 L228 530 L55 487 L55 483 L123 444 L38 106 C31 78 28 59 28 43 L28 43 Z M177 592 L183 592 L372 757 L373 761 L262 761 L177 592 Z " />
<glyph glyph-name="icircumflex" unicode="&#xee;" horiz-adv-x="272" d="M28 43 C28 27 33 13 41 4 C49 -5 62 -10 77 -10 C108 -10 141 7 173 42 C196 66 219 97 239 134 L233 138 C218 118 204 100 189 85 C166 62 146 49 133 49 C122 49 118 55 118 67 C118 75 121 91 126 110 L232 530 L228 530 L55 487 L55 483 L123 444 L38 106 C31 78 28 59 28 43 L28 43 Z M55 592 L61 592 L224 700 L337 592 L343 592 L270 765 L202 765 L55 592 Z " />
<glyph glyph-name="idieresis" unicode="&#xef;" horiz-adv-x="272" d="M28 43 C28 27 33 13 41 4 C49 -5 62 -10 77 -10 C108 -10 141 7 173 42 C196 66 219 97 239 134 L233 138 C218 118 204 100 189 85 C166 62 146 49 133 49 C122 49 118 55 118 67 C118 75 121 91 126 110 L232 530 L228 530 L55 487 L55 483 L123 444 L38 106 C31 78 28 59 28 43 L28 43 Z M165 627 C177 639 184 655 184 672 C184 688 179 702 168 713 C157 724 142 730 126 730 C110 730 94 723 82 711 C70 699 63 683 63 666 C63 650 68 636 79 625 C90 614 105 608 121 608 C137 608 153 615 165 627 L165 627 Z M331 627 C343 639 350 655 350 672 C350 688 345 702 334 713 C323 724 308 730 292 730 C276 730 260 723 248 711 C236 699 229 683 229 666 C229 650 234 636 245 625 C256 614 271 608 287 608 C303 608 319 615 331 627 L331 627 Z " />
<glyph glyph-name="eth" unicode="&#xf0;" horiz-adv-x="478" d="M285 656 C314 617 335 572 350 519 C335 526 317 530 300 530 C249 530 198 507 153 466 C116 431 82 385 59 333 C35 280 22 225 22 174 C22 122 36 77 61 45 C89 9 131 -10 180 -10 C232 -10 283 13 330 56 C367 92 400 141 423 194 C446 247 458 305 458 358 C458 414 446 471 422 527 C399 580 367 629 327 672 L435 713 L430 727 L315 683 C270 727 216 762 159 783 L145 774 C197 747 241 711 276 668 L132 613 L137 599 L285 656 Z M131 306 C144 355 164 401 188 437 C223 488 262 516 299 516 C320 516 341 510 354 501 C365 457 370 408 370 355 C370 310 362 261 349 214 C336 165 316 119 292 83 C257 32 218 4 181 4 C150 4 130 25 119 68 C114 93 110 125 110 165 C110 210 118 259 131 306 L131 306 Z " />
<glyph glyph-name="ntilde" unicode="&#xf1;" horiz-adv-x="555" d="M64 487 L64 483 L132 444 L21 0 L108 0 L144 145 C152 180 165 214 181 247 C197 280 215 311 236 340 C259 371 283 400 308 421 C344 454 377 473 400 473 C412 473 418 467 418 452 C418 444 416 434 413 419 L330 106 C323 78 320 59 320 43 C320 27 325 13 333 4 C341 -5 354 -10 369 -10 C400 -10 433 7 465 42 C488 66 511 97 531 134 L525 138 C510 118 496 100 481 85 C458 62 438 49 425 49 C414 49 410 55 410 67 C410 75 413 91 418 110 L499 415 C503 431 505 448 505 459 C505 483 500 499 491 511 C482 524 465 530 441 530 C392 530 332 490 272 415 C229 362 190 295 165 235 L241 530 L237 530 L64 487 Z M533 723 C521 704 509 691 497 682 C482 673 466 668 446 668 C437 668 426 671 415 676 L386 695 C370 707 363 711 355 715 C343 720 332 724 320 724 C289 724 267 713 246 686 C233 669 219 643 203 610 L209 607 C220 626 232 639 244 648 C259 657 274 662 295 662 C306 662 315 660 327 653 C334 650 340 646 355 635 C372 623 379 619 387 615 C399 610 410 606 422 606 C453 606 475 617 496 644 C509 661 523 687 539 720 L533 723 Z " />
<glyph glyph-name="ograve" unicode="&#xf2;" horiz-adv-x="480" d="M153 466 C116 431 82 385 59 333 C35 280 22 225 22 174 C22 122 36 77 61 45 C89 9 131 -10 180 -10 C231 -10 282 13 327 54 C364 89 398 135 421 187 C445 240 458 295 458 346 C458 398 444 443 419 475 C391 511 349 530 300 530 C249 530 198 507 153 466 L153 466 Z M119 68 C114 93 110 125 110 165 C110 210 118 259 131 306 C144 355 164 401 188 437 C223 488 262 516 299 516 C330 516 350 495 361 452 C366 427 370 395 370 355 C370 310 362 261 349 214 C336 165 316 119 292 83 C257 32 218 4 181 4 C150 4 130 25 119 68 L119 68 Z M320 592 L326 592 L271 761 L166 761 L166 757 L320 592 Z " />
<glyph glyph-name="oacute" unicode="&#xf3;" horiz-adv-x="480" d="M153 466 C116 431 82 385 59 333 C35 280 22 225 22 174 C22 122 36 77 61 45 C89 9 131 -10 180 -10 C231 -10 282 13 327 54 C364 89 398 135 421 187 C445 240 458 295 458 346 C458 398 444 443 419 475 C391 511 349 530 300 530 C249 530 198 507 153 466 L153 466 Z M119 68 C114 93 110 125 110 165 C110 210 118 259 131 306 C144 355 164 401 188 437 C223 488 262 516 299 516 C330 516 350 495 361 452 C366 427 370 395 370 355 C370 310 362 261 349 214 C336 165 316 119 292 83 C257 32 218 4 181 4 C150 4 130 25 119 68 L119 68 Z M295 592 L301 592 L490 757 L491 761 L380 761 L295 592 Z " />
<glyph glyph-name="ocircumflex" unicode="&#xf4;" horiz-adv-x="480" d="M153 466 C116 431 82 385 59 333 C35 280 22 225 22 174 C22 122 36 77 61 45 C89 9 131 -10 180 -10 C231 -10 282 13 327 54 C364 89 398 135 421 187 C445 240 458 295 458 346 C458 398 444 443 419 475 C391 511 349 530 300 530 C249 530 198 507 153 466 L153 466 Z M119 68 C114 93 110 125 110 165 C110 210 118 259 131 306 C144 355 164 401 188 437 C223 488 262 516 299 516 C330 516 350 495 361 452 C366 427 370 395 370 355 C370 310 362 261 349 214 C336 165 316 119 292 83 C257 32 218 4 181 4 C150 4 130 25 119 68 L119 68 Z M166 592 L172 592 L335 700 L448 592 L454 592 L381 765 L313 765 L166 592 Z " />
<glyph glyph-name="otilde" unicode="&#xf5;" horiz-adv-x="480" d="M153 466 C116 431 82 385 59 333 C35 280 22 225 22 174 C22 122 36 77 61 45 C89 9 131 -10 180 -10 C231 -10 282 13 327 54 C364 89 398 135 421 187 C445 240 458 295 458 346 C458 398 444 443 419 475 C391 511 349 530 300 530 C249 530 198 507 153 466 L153 466 Z M119 68 C114 93 110 125 110 165 C110 210 118 259 131 306 C144 355 164 401 188 437 C223 488 262 516 299 516 C330 516 350 495 361 452 C366 427 370 395 370 355 C370 310 362 261 349 214 C336 165 316 119 292 83 C257 32 218 4 181 4 C150 4 130 25 119 68 L119 68 Z M497 723 C485 704 473 691 461 682 C446 673 430 668 410 668 C401 668 390 671 379 676 L350 695 C334 707 327 711 319 715 C307 720 296 724 284 724 C253 724 231 713 210 686 C197 669 183 643 167 610 L173 607 C184 626 196 639 208 648 C223 657 238 662 259 662 C270 662 279 660 291 653 C298 650 304 646 319 635 C336 623 343 619 351 615 C363 610 374 606 386 606 C417 606 439 617 460 644 C473 661 487 687 503 720 L497 723 Z " />
<glyph glyph-name="odieresis" unicode="&#xf6;" horiz-adv-x="480" d="M153 466 C116 431 82 385 59 333 C35 280 22 225 22 174 C22 122 36 77 61 45 C89 9 131 -10 180 -10 C231 -10 282 13 327 54 C364 89 398 135 421 187 C445 240 458 295 458 346 C458 398 444 443 419 475 C391 511 349 530 300 530 C249 530 198 507 153 466 L153 466 Z M119 68 C114 93 110 125 110 165 C110 210 118 259 131 306 C144 355 164 401 188 437 C223 488 262 516 299 516 C330 516 350 495 361 452 C366 427 370 395 370 355 C370 310 362 261 349 214 C336 165 316 119 292 83 C257 32 218 4 181 4 C150 4 130 25 119 68 L119 68 Z M293 627 C305 639 312 655 312 672 C312 688 307 702 296 713 C285 724 270 730 254 730 C238 730 222 723 210 711 C198 699 191 683 191 666 C191 650 196 636 207 625 C218 614 233 608 249 608 C265 608 281 615 293 627 L293 627 Z M459 627 C471 639 478 655 478 672 C478 688 473 702 462 713 C451 724 436 730 420 730 C404 730 388 723 376 711 C364 699 357 683 357 666 C357 650 362 636 373 625 C384 614 399 608 415 608 C431 608 447 615 459 627 L459 627 Z " />
<glyph glyph-name="divide" unicode="&#xf7;" horiz-adv-x="564" d="M351 493 C358 500 361 509 361 518 C361 527 358 536 351 543 C344 550 335 553 326 553 C317 553 308 550 301 543 C294 536 291 527 291 518 C291 509 294 500 301 493 C308 486 317 483 326 483 C335 483 344 486 351 493 L351 493 Z M514 372 L76 372 L71 350 L509 350 L514 372 Z M283 179 C290 186 293 195 293 204 C293 213 290 222 283 229 C276 236 267 239 258 239 C249 239 240 236 233 229 C226 222 223 213 223 204 C223 195 226 186 233 179 C240 172 249 169 258 169 C267 169 276 172 283 179 L283 179 Z " />
<glyph glyph-name="oslash" unicode="&#xf8;" horiz-adv-x="480" d="M76 29 C103 4 139 -10 180 -10 C231 -10 282 13 327 54 C364 89 398 135 421 187 C445 240 458 295 458 346 C458 395 446 438 423 470 L466 525 L453 536 L412 484 C384 515 345 530 300 530 C249 530 198 507 153 466 C116 431 82 385 59 333 C35 280 22 225 22 174 C22 119 36 73 64 41 L19 -16 L32 -27 L76 29 Z M131 306 C144 355 164 401 188 437 C223 488 262 516 299 516 C335 516 358 485 366 425 L113 104 C112 123 110 144 110 165 C110 210 118 259 131 306 L131 306 Z M181 4 C148 4 126 29 117 80 L368 401 C369 390 370 380 370 355 C370 310 362 261 349 214 C336 165 316 119 292 83 C257 32 218 4 181 4 L181 4 Z " />
<glyph glyph-name="ugrave" unicode="&#xf9;" horiz-adv-x="555" d="M517 138 C502 118 488 100 473 85 C450 62 430 49 417 49 C406 49 402 55 402 67 C402 75 405 91 410 110 L511 522 L419 515 L379 357 C368 314 352 272 332 231 C311 190 285 151 258 120 C218 73 178 47 149 47 C132 47 122 57 122 76 C122 87 125 99 130 122 L235 530 L231 530 L58 487 L58 483 L126 444 L42 118 C37 99 34 82 34 67 C34 44 41 24 53 11 C66 -2 85 -10 108 -10 C143 -10 183 13 226 58 C257 89 285 127 312 170 C339 215 360 260 371 296 C331 148 313 68 313 43 C313 10 330 -10 361 -10 C392 -10 425 7 457 42 C480 66 503 97 523 134 L517 138 Z M342 592 L348 592 L293 761 L188 761 L188 757 L342 592 Z " />
<glyph glyph-name="uacute" unicode="&#xfa;" horiz-adv-x="555" d="M517 138 C502 118 488 100 473 85 C450 62 430 49 417 49 C406 49 402 55 402 67 C402 75 405 91 410 110 L511 522 L419 515 L379 357 C368 314 352 272 332 231 C311 190 285 151 258 120 C218 73 178 47 149 47 C132 47 122 57 122 76 C122 87 125 99 130 122 L235 530 L231 530 L58 487 L58 483 L126 444 L42 118 C37 99 34 82 34 67 C34 44 41 24 53 11 C66 -2 85 -10 108 -10 C143 -10 183 13 226 58 C257 89 285 127 312 170 C339 215 360 260 371 296 C331 148 313 68 313 43 C313 10 330 -10 361 -10 C392 -10 425 7 457 42 C480 66 503 97 523 134 L517 138 Z M316 592 L322 592 L511 757 L512 761 L401 761 L316 592 Z " />
<glyph glyph-name="ucircumflex" unicode="&#xfb;" horiz-adv-x="555" d="M517 138 C502 118 488 100 473 85 C450 62 430 49 417 49 C406 49 402 55 402 67 C402 75 405 91 410 110 L511 522 L419 515 L379 357 C368 314 352 272 332 231 C311 190 285 151 258 120 C218 73 178 47 149 47 C132 47 122 57 122 76 C122 87 125 99 130 122 L235 530 L231 530 L58 487 L58 483 L126 444 L42 118 C37 99 34 82 34 67 C34 44 41 24 53 11 C66 -2 85 -10 108 -10 C143 -10 183 13 226 58 C257 89 285 127 312 170 C339 215 360 260 371 296 C331 148 313 68 313 43 C313 10 330 -10 361 -10 C392 -10 425 7 457 42 C480 66 503 97 523 134 L517 138 Z M195 592 L201 592 L364 700 L477 592 L483 592 L410 765 L342 765 L195 592 Z " />
<glyph glyph-name="udieresis" unicode="&#xfc;" horiz-adv-x="555" d="M517 138 C502 118 488 100 473 85 C450 62 430 49 417 49 C406 49 402 55 402 67 C402 75 405 91 410 110 L511 522 L419 515 L379 357 C368 314 352 272 332 231 C311 190 285 151 258 120 C218 73 178 47 149 47 C132 47 122 57 122 76 C122 87 125 99 130 122 L235 530 L231 530 L58 487 L58 483 L126 444 L42 118 C37 99 34 82 34 67 C34 44 41 24 53 11 C66 -2 85 -10 108 -10 C143 -10 183 13 226 58 C257 89 285 127 312 170 C339 215 360 260 371 296 C331 148 313 68 313 43 C313 10 330 -10 361 -10 C392 -10 425 7 457 42 C480 66 503 97 523 134 L517 138 Z M305 627 C317 639 324 655 324 672 C324 688 319 702 308 713 C297 724 282 730 266 730 C250 730 234 723 222 711 C210 699 203 683 203 666 C203 650 208 636 219 625 C230 614 245 608 261 608 C277 608 293 615 305 627 L305 627 Z M471 627 C483 639 490 655 490 672 C490 688 485 702 474 713 C463 724 448 730 432 730 C416 730 400 723 388 711 C376 699 369 683 369 666 C369 650 374 636 385 625 C396 614 411 608 427 608 C443 608 459 615 471 627 L471 627 Z " />
<glyph glyph-name="yacute" unicode="&#xfd;" horiz-adv-x="457" d="M-58 -128 C-71 -112 -78 -89 -75 -62 L-77 -62 C-90 -66 -105 -76 -114 -89 C-125 -102 -130 -117 -130 -132 C-130 -156 -121 -175 -102 -188 C-86 -200 -64 -206 -40 -206 C-4 -206 33 -192 73 -161 C101 -140 130 -111 162 -74 L162 -75 L205 -22 L208 -17 C236 20 268 66 300 117 C343 184 373 234 396 275 C441 355 461 406 461 445 C461 469 454 490 442 505 C429 521 409 530 384 530 C365 530 347 525 331 514 C315 503 301 489 292 474 L292 472 C321 476 346 471 365 456 C382 441 392 418 392 389 C392 350 380 304 356 251 C339 212 315 171 286 124 C267 93 247 63 224 31 L160 530 L158 530 L15 487 L15 483 L82 449 L159 -55 C135 -84 112 -106 91 -122 C62 -143 36 -153 4 -153 C-23 -153 -43 -144 -58 -128 L-58 -128 Z M287 592 L293 592 L482 757 L483 761 L372 761 L287 592 Z " />
<glyph glyph-name="thorn" unicode="&#xfe;" horiz-adv-x="531" d="M107 -201 C91 -200 79 -198 71 -195 C56 -191 51 -183 51 -170 C51 -165 52 -160 56 -143 L99 28 C120 3 153 -10 192 -10 C244 -10 303 16 356 63 C401 100 439 151 467 206 C496 265 511 325 511 384 C511 424 503 458 487 483 C468 514 438 530 402 530 C367 530 327 507 286 464 C258 435 230 396 205 352 C182 313 163 271 147 228 L290 783 L286 783 L106 740 L106 736 L183 700 L-33 -152 C-38 -175 -47 -186 -62 -193 C-73 -198 -88 -201 -115 -202 L-117 -212 L142 -212 L144 -202 C129 -202 118 -201 107 -201 L107 -201 Z M147 199 C162 239 179 277 198 310 C219 350 244 384 268 411 C305 451 341 472 370 472 C405 472 421 443 421 376 C421 328 411 275 394 223 C375 171 350 121 321 84 C281 32 237 4 194 4 C174 4 155 12 140 28 C125 43 115 62 112 82 C121 122 134 162 147 199 L147 199 Z " />
<glyph glyph-name="ydieresis" unicode="&#xff;" horiz-adv-x="457" d="M-58 -128 C-71 -112 -78 -89 -75 -62 L-77 -62 C-90 -66 -105 -76 -114 -89 C-125 -102 -130 -117 -130 -132 C-130 -156 -121 -175 -102 -188 C-86 -200 -64 -206 -40 -206 C-4 -206 33 -192 73 -161 C101 -140 130 -111 162 -74 L162 -75 L205 -22 L208 -17 C236 20 268 66 300 117 C343 184 373 234 396 275 C441 355 461 406 461 445 C461 469 454 490 442 505 C429 521 409 530 384 530 C365 530 347 525 331 514 C315 503 301 489 292 474 L292 472 C321 476 346 471 365 456 C382 441 392 418 392 389 C392 350 380 304 356 251 C339 212 315 171 286 124 C267 93 247 63 224 31 L160 530 L158 530 L15 487 L15 483 L82 449 L159 -55 C135 -84 112 -106 91 -122 C62 -143 36 -153 4 -153 C-23 -153 -43 -144 -58 -128 L-58 -128 Z M263 627 C275 639 282 655 282 672 C282 688 277 702 266 713 C255 724 240 730 224 730 C208 730 192 723 180 711 C168 699 161 683 161 666 C161 650 166 636 177 625 C188 614 203 608 219 608 C235 608 251 615 263 627 L263 627 Z M429 627 C441 639 448 655 448 672 C448 688 443 702 432 713 C421 724 406 730 390 730 C374 730 358 723 346 711 C334 699 327 683 327 666 C327 650 332 636 343 625 C354 614 369 608 385 608 C401 608 417 615 429 627 L429 627 Z " />
<glyph glyph-name="Amacron" unicode="&#x100;" horiz-adv-x="696" d="M490 68 C490 51 485 37 474 28 C465 20 453 16 434 13 C423 12 413 11 389 10 L387 0 L648 0 L650 10 C630 13 623 14 618 17 C607 21 600 28 595 37 C590 45 587 55 584 70 L464 711 L375 711 L385 653 L34 57 C23 38 13 29 -2 22 C-13 17 -25 14 -54 10 L-56 0 L141 0 L143 10 C122 11 105 12 93 15 C70 20 60 29 60 44 C60 55 65 70 80 94 L188 280 L453 280 L487 93 C488 85 490 75 490 68 L490 68 Z M450 298 L199 298 L390 627 L450 298 Z M589 799 L308 799 L302 772 L583 772 L589 799 Z " />
<glyph glyph-name="amacron" unicode="&#x101;" horiz-adv-x="539" d="M509 138 C494 118 480 100 465 85 C442 62 422 49 409 49 C398 49 394 55 394 67 C394 75 397 91 402 110 L479 426 L514 538 L510 538 L435 492 C423 504 407 513 390 520 C373 527 356 530 337 530 C284 530 226 505 173 460 C129 421 91 371 64 316 C36 259 22 198 22 139 C22 100 29 67 44 40 C63 8 91 -10 126 -10 C167 -10 216 23 264 86 C297 127 327 180 352 236 C321 141 305 74 305 43 C305 10 322 -10 353 -10 C384 -10 417 7 449 42 C472 66 495 97 515 134 L509 138 Z M109 148 C109 197 118 250 135 301 C154 353 180 401 209 438 C250 487 295 515 338 515 C378 515 399 487 402 435 C395 395 386 356 374 319 C361 280 346 242 329 209 C309 170 286 135 262 110 C227 71 192 51 163 51 C126 51 109 83 109 148 L109 148 Z M511 649 L239 649 L234 623 L506 623 L511 649 Z " />
<glyph glyph-name="Abreve" unicode="&#x102;" horiz-adv-x="696" d="M490 68 C490 51 485 37 474 28 C465 20 453 16 434 13 C423 12 413 11 389 10 L387 0 L648 0 L650 10 C630 13 623 14 618 17 C607 21 600 28 595 37 C590 45 587 55 584 70 L464 711 L375 711 L385 653 L34 57 C23 38 13 29 -2 22 C-13 17 -25 14 -54 10 L-56 0 L141 0 L143 10 C122 11 105 12 93 15 C70 20 60 29 60 44 C60 55 65 70 80 94 L188 280 L453 280 L487 93 C488 85 490 75 490 68 L490 68 Z M450 298 L199 298 L390 627 L450 298 Z M437 751 C520 751 574 801 597 900 L591 900 C574 844 524 815 447 815 C412 815 386 820 369 831 C346 844 337 868 341 900 L335 900 C327 856 329 820 345 795 C362 766 394 751 437 751 L437 751 Z " />
<glyph glyph-name="abreve" unicode="&#x103;" horiz-adv-x="539" d="M509 138 C494 118 480 100 465 85 C442 62 422 49 409 49 C398 49 394 55 394 67 C394 75 397 91 402 110 L479 426 L514 538 L510 538 L435 492 C423 504 407 513 390 520 C373 527 356 530 337 530 C284 530 226 505 173 460 C129 421 91 371 64 316 C36 259 22 198 22 139 C22 100 29 67 44 40 C63 8 91 -10 126 -10 C167 -10 216 23 264 86 C297 127 327 180 352 236 C321 141 305 74 305 43 C305 10 322 -10 353 -10 C384 -10 417 7 449 42 C472 66 495 97 515 134 L509 138 Z M109 148 C109 197 118 250 135 301 C154 353 180 401 209 438 C250 487 295 515 338 515 C378 515 399 487 402 435 C395 395 386 356 374 319 C361 280 346 242 329 209 C309 170 286 135 262 110 C227 71 192 51 163 51 C126 51 109 83 109 148 L109 148 Z M473 647 C492 674 506 712 517 761 L510 761 C491 692 449 658 381 658 C312 658 285 692 294 761 L287 761 C278 717 278 680 287 652 C299 613 329 592 370 592 C414 592 448 610 473 647 L473 647 Z " />
<glyph glyph-name="Aogonek" unicode="&#x104;" horiz-adv-x="696" d="M446 -122 C409 -157 375 -173 343 -173 C327 -173 314 -168 305 -159 C296 -150 290 -135 290 -119 C290 -68 331 -29 419 0 L648 0 L650 10 C630 13 623 14 618 17 C607 21 600 28 595 37 C590 45 587 55 584 70 L464 711 L375 711 L385 653 L34 57 C23 38 13 29 -2 22 C-13 17 -25 14 -54 10 L-56 0 L141 0 L143 10 C122 11 105 12 93 15 C70 20 60 29 60 44 C60 55 65 70 80 94 L188 280 L453 280 L487 93 C488 85 490 75 490 68 C490 52 485 39 473 31 C465 24 453 21 432 14 L390 2 C347 -11 312 -28 285 -47 C246 -75 227 -107 227 -142 C227 -163 235 -182 251 -194 C264 -205 284 -210 307 -210 C334 -210 360 -201 387 -184 C406 -171 425 -155 450 -127 L446 -122 Z M450 298 L199 298 L390 627 L450 298 Z " />
<glyph glyph-name="aogonek" unicode="&#x105;" horiz-adv-x="539" d="M245 -142 C245 -163 253 -182 269 -194 C282 -205 302 -210 325 -210 C352 -210 378 -201 405 -184 C424 -171 443 -155 468 -127 L464 -122 C427 -157 393 -173 361 -173 C345 -173 332 -168 323 -159 C314 -150 308 -135 308 -119 C308 -103 312 -89 320 -76 C327 -64 336 -53 349 -41 L385 -11 C412 10 423 20 435 31 C451 47 466 62 479 78 C492 95 504 114 515 134 L509 138 C494 118 480 100 465 85 C442 62 422 49 409 49 C398 49 394 55 394 67 C394 75 397 91 402 110 L479 426 L514 538 L510 538 L435 492 C423 504 407 513 390 520 C373 527 356 530 337 530 C284 530 226 505 173 460 C129 421 91 371 64 316 C36 259 22 198 22 139 C22 100 29 67 44 40 C63 8 91 -10 126 -10 C167 -10 216 23 264 86 C297 127 327 180 352 236 C321 141 305 74 305 43 C305 10 322 -10 353 -10 C360 -10 361 -10 364 -9 C287 -49 245 -94 245 -142 L245 -142 Z M109 148 C109 197 118 250 135 301 C154 353 180 401 209 438 C250 487 295 515 338 515 C378 515 399 487 402 435 C395 395 386 356 374 319 C361 280 346 242 329 209 C309 170 286 135 262 110 C227 71 192 51 163 51 C126 51 109 83 109 148 L109 148 Z " />
<glyph glyph-name="Cacute" unicode="&#x106;" horiz-adv-x="644" d="M587 642 C612 610 625 563 624 506 L633 506 L664 653 C639 672 606 686 569 697 C536 706 500 711 464 711 C388 711 316 689 252 646 C191 606 139 548 102 480 C65 412 45 337 45 265 C45 182 69 113 116 65 C163 16 231 -10 314 -10 C398 -10 470 7 543 44 L594 222 L585 222 C554 154 521 104 484 69 C437 25 384 4 317 4 C253 4 206 34 178 93 C157 136 146 194 146 265 C146 326 159 393 183 456 C207 523 243 580 286 621 C337 672 397 697 461 697 C517 697 559 678 587 642 L587 642 Z M468 751 L472 751 L645 897 L646 900 L534 900 L468 751 Z " />
<glyph glyph-name="cacute" unicode="&#x107;" horiz-adv-x="407" d="M342 461 C346 441 349 415 346 380 L348 380 C365 383 383 391 396 403 C411 416 418 432 418 451 C418 478 407 500 384 513 C367 524 342 530 313 530 C262 530 209 508 161 467 C121 431 85 384 61 332 C36 279 22 222 22 170 C22 119 36 76 60 44 C88 9 128 -10 176 -10 C216 -10 256 6 292 38 C321 65 348 101 368 142 L362 146 C313 75 263 42 210 42 C173 42 145 59 128 91 C116 115 109 148 109 189 C109 232 115 276 127 319 C140 366 159 407 182 439 C213 486 250 510 286 510 C315 510 333 494 342 461 L342 461 Z M316 592 L322 592 L511 757 L512 761 L401 761 L316 592 Z " />
<glyph glyph-name="Ccircumflex" unicode="&#x108;" horiz-adv-x="644" d="M587 642 C612 610 625 563 624 506 L633 506 L664 653 C639 672 606 686 569 697 C536 706 500 711 464 711 C388 711 316 689 252 646 C191 606 139 548 102 480 C65 412 45 337 45 265 C45 182 69 113 116 65 C163 16 231 -10 314 -10 C398 -10 470 7 543 44 L594 222 L585 222 C554 154 521 104 484 69 C437 25 384 4 317 4 C253 4 206 34 178 93 C157 136 146 194 146 265 C146 326 159 393 183 456 C207 523 243 580 286 621 C337 672 397 697 461 697 C517 697 559 678 587 642 L587 642 Z M334 751 L339 751 L502 835 L617 751 L622 751 L547 900 L479 900 L334 751 Z " />
<glyph glyph-name="ccircumflex" unicode="&#x109;" horiz-adv-x="407" d="M342 461 C346 441 349 415 346 380 L348 380 C365 383 383 391 396 403 C411 416 418 432 418 451 C418 478 407 500 384 513 C367 524 342 530 313 530 C262 530 209 508 161 467 C121 431 85 384 61 332 C36 279 22 222 22 170 C22 119 36 76 60 44 C88 9 128 -10 176 -10 C216 -10 256 6 292 38 C321 65 348 101 368 142 L362 146 C313 75 263 42 210 42 C173 42 145 59 128 91 C116 115 109 148 109 189 C109 232 115 276 127 319 C140 366 159 407 182 439 C213 486 250 510 286 510 C315 510 333 494 342 461 L342 461 Z M174 592 L180 592 L343 700 L456 592 L462 592 L389 765 L321 765 L174 592 Z " />
<glyph glyph-name="Cdotaccent" unicode="&#x10a;" horiz-adv-x="644" d="M587 642 C612 610 625 563 624 506 L633 506 L664 653 C639 672 606 686 569 697 C536 706 500 711 464 711 C388 711 316 689 252 646 C191 606 139 548 102 480 C65 412 45 337 45 265 C45 182 69 113 116 65 C163 16 231 -10 314 -10 C398 -10 470 7 543 44 L594 222 L585 222 C554 154 521 104 484 69 C437 25 384 4 317 4 C253 4 206 34 178 93 C157 136 146 194 146 265 C146 326 159 393 183 456 C207 523 243 580 286 621 C337 672 397 697 461 697 C517 697 559 678 587 642 L587 642 Z M540 779 C552 791 559 807 559 824 C559 840 553 854 542 865 C531 876 517 882 501 882 C485 882 469 875 457 863 C445 851 438 835 438 818 C438 802 444 788 455 777 C466 766 480 760 496 760 C512 760 528 767 540 779 L540 779 Z " />
<glyph glyph-name="cdotaccent" unicode="&#x10b;" horiz-adv-x="407" d="M342 461 C346 441 349 415 346 380 L348 380 C365 383 383 391 396 403 C411 416 418 432 418 451 C418 478 407 500 384 513 C367 524 342 530 313 530 C262 530 209 508 161 467 C121 431 85 384 61 332 C36 279 22 222 22 170 C22 119 36 76 60 44 C88 9 128 -10 176 -10 C216 -10 256 6 292 38 C321 65 348 101 368 142 L362 146 C313 75 263 42 210 42 C173 42 145 59 128 91 C116 115 109 148 109 189 C109 232 115 276 127 319 C140 366 159 407 182 439 C213 486 250 510 286 510 C315 510 333 494 342 461 L342 461 Z M392 630 C404 642 411 658 411 675 C411 691 405 705 394 716 C383 727 369 733 353 733 C337 733 321 726 309 714 C297 702 290 686 290 669 C290 653 296 639 307 628 C318 617 332 611 348 611 C364 611 380 618 392 630 L392 630 Z " />
<glyph glyph-name="Ccaron" unicode="&#x10c;" horiz-adv-x="644" d="M587 642 C612 610 625 563 624 506 L633 506 L664 653 C639 672 606 686 569 697 C536 706 500 711 464 711 C388 711 316 689 252 646 C191 606 139 548 102 480 C65 412 45 337 45 265 C45 182 69 113 116 65 C163 16 231 -10 314 -10 C398 -10 470 7 543 44 L594 222 L585 222 C554 154 521 104 484 69 C437 25 384 4 317 4 C253 4 206 34 178 93 C157 136 146 194 146 265 C146 326 159 393 183 456 C207 523 243 580 286 621 C337 672 397 697 461 697 C517 697 559 678 587 642 L587 642 Z M661 910 L498 826 L383 910 L378 910 L453 761 L521 761 L666 910 L661 910 Z " />
<glyph glyph-name="ccaron" unicode="&#x10d;" horiz-adv-x="407" d="M342 461 C346 441 349 415 346 380 L348 380 C365 383 383 391 396 403 C411 416 418 432 418 451 C418 478 407 500 384 513 C367 524 342 530 313 530 C262 530 209 508 161 467 C121 431 85 384 61 332 C36 279 22 222 22 170 C22 119 36 76 60 44 C88 9 128 -10 176 -10 C216 -10 256 6 292 38 C321 65 348 101 368 142 L362 146 C313 75 263 42 210 42 C173 42 145 59 128 91 C116 115 109 148 109 189 C109 232 115 276 127 319 C140 366 159 407 182 439 C213 486 250 510 286 510 C315 510 333 494 342 461 L342 461 Z M497 766 L334 658 L221 766 L215 766 L288 593 L356 593 L503 766 L497 766 Z " />
<glyph glyph-name="Dcaron" unicode="&#x10e;" horiz-adv-x="700" d="M257 0 C336 0 410 18 475 51 C543 87 599 139 636 203 C673 267 692 340 692 420 C692 512 658 585 591 636 C534 679 453 702 357 702 L124 702 L122 692 C150 689 156 687 164 686 C184 682 193 675 197 663 C200 654 199 641 195 621 L80 82 C75 59 71 47 63 38 C55 29 44 22 24 18 C13 15 1 14 -23 11 L-26 0 L257 0 Z M532 611 C571 566 591 501 591 420 C591 352 580 287 557 231 C532 167 493 114 444 77 C392 38 330 17 265 17 L250 17 C217 17 198 21 187 29 C174 40 169 57 176 88 L302 684 L347 684 C428 684 491 659 532 611 L532 611 Z M596 910 L433 826 L318 910 L313 910 L388 761 L456 761 L601 910 L596 910 Z " />
<glyph glyph-name="dcaron" unicode="&#x10f;" horiz-adv-x="563" d="M524 138 C509 118 495 100 480 85 C457 62 437 49 424 49 C413 49 409 55 409 67 C409 75 412 91 417 110 L583 783 L579 783 L399 740 L399 736 L476 700 L427 502 C416 510 403 518 388 523 C373 527 359 530 344 530 C289 530 230 506 177 461 C132 424 93 373 65 317 C37 260 22 199 22 139 C22 100 29 67 44 40 C63 8 91 -10 126 -10 C169 -10 220 25 271 89 C306 132 338 185 363 244 L329 106 C322 78 319 59 319 43 C319 27 324 13 332 4 C340 -5 353 -10 368 -10 C399 -10 432 7 464 42 C487 66 510 97 530 134 L524 138 Z M109 148 C109 199 119 251 136 302 C155 355 181 403 212 440 C253 488 300 515 344 515 C384 515 406 488 409 435 C402 395 392 355 380 318 C367 279 352 241 333 208 C313 169 289 136 265 109 C230 72 195 51 164 51 C127 51 109 81 109 148 L109 148 Z M646 783 L582 578 L586 578 L740 779 L741 783 L646 783 Z " />
<glyph glyph-name="Dcroat" unicode="&#x110;" horiz-adv-x="700" d="M257 0 C336 0 410 18 475 51 C543 87 599 139 636 203 C673 267 692 340 692 420 C692 512 658 585 591 636 C534 679 453 702 357 702 L124 702 L122 692 C150 689 156 687 164 686 C184 682 193 675 197 663 C200 654 199 641 195 621 L142 373 L70 373 L66 355 L138 355 L80 82 C75 59 71 47 63 38 C55 29 44 22 24 18 C13 15 1 14 -23 11 L-26 0 L257 0 Z M532 611 C571 566 591 501 591 420 C591 352 580 287 557 231 C532 167 493 114 444 77 C392 38 330 17 265 17 L250 17 C217 17 198 21 187 29 C174 40 169 57 176 88 L232 355 L377 355 L381 373 L236 373 L302 684 L347 684 C428 684 491 659 532 611 L532 611 Z " />
<glyph glyph-name="dslash" unicode="&#x111;" horiz-adv-x="562" d="M524 138 C509 118 495 100 480 85 C457 62 437 49 424 49 C413 49 409 55 409 67 C409 75 412 91 417 110 L541 612 L599 612 L602 628 L545 628 L583 783 L579 783 L399 740 L399 736 L476 700 L458 628 L323 628 L320 612 L454 612 L427 502 C416 510 403 518 388 523 C373 527 359 530 344 530 C289 530 230 506 177 461 C132 424 93 373 65 317 C37 260 22 199 22 139 C22 100 29 67 44 40 C63 8 91 -10 126 -10 C169 -10 220 25 271 89 C306 132 338 185 363 244 L329 106 C322 78 319 59 319 43 C319 27 324 13 332 4 C340 -5 353 -10 368 -10 C399 -10 432 7 464 42 C487 66 510 97 530 134 L524 138 Z M109 148 C109 199 119 251 136 302 C155 355 181 403 212 440 C253 488 300 515 344 515 C384 515 406 488 409 435 C402 395 392 355 380 318 C367 279 352 241 333 208 C313 169 289 136 265 109 C230 72 195 51 164 51 C127 51 109 81 109 148 L109 148 Z " />
<glyph glyph-name="Emacron" unicode="&#x112;" horiz-adv-x="614" d="M575 200 C544 147 515 106 486 78 C445 37 402 18 351 18 L258 18 C226 18 205 20 193 27 C173 36 167 53 174 84 L232 354 L394 354 C426 354 444 344 452 324 C457 309 458 291 457 254 L468 254 L514 472 L503 472 C491 439 479 418 467 403 C450 382 427 372 398 372 L236 372 L303 684 L473 684 C506 684 529 680 546 669 C565 657 578 638 589 609 C596 590 601 566 606 535 L615 535 L646 702 L124 702 L122 692 C150 689 156 687 164 686 C184 682 193 675 197 663 C200 654 199 641 195 621 L79 81 C74 58 70 46 62 37 C54 28 43 21 23 17 C12 14 0 13 -24 10 L-26 0 L509 0 L585 200 L575 200 Z M581 799 L300 799 L294 772 L575 772 L581 799 Z " />
<glyph glyph-name="emacron" unicode="&#x113;" horiz-adv-x="424" d="M370 142 C323 75 271 42 215 42 C178 42 148 58 131 90 C116 114 109 148 109 189 C109 205 109 222 112 239 C195 254 255 271 303 292 C384 327 424 374 424 433 C424 464 413 490 390 507 C370 522 343 530 310 530 C259 530 207 507 160 466 C120 430 85 384 61 331 C36 278 22 222 22 170 C22 118 36 75 61 43 C88 8 130 -10 179 -10 C220 -10 260 5 297 36 C328 61 354 97 377 138 L370 142 Z M334 495 C341 484 345 469 345 450 C345 391 320 346 269 311 C232 286 181 265 114 250 C119 287 130 324 143 359 C159 398 178 431 199 458 C230 494 261 514 293 514 C312 514 325 507 334 495 L334 495 Z M470 649 L198 649 L193 623 L465 623 L470 649 Z " />
<glyph glyph-name="Ebreve" unicode="&#x114;" horiz-adv-x="614" d="M575 200 C544 147 515 106 486 78 C445 37 402 18 351 18 L258 18 C226 18 205 20 193 27 C173 36 167 53 174 84 L232 354 L394 354 C426 354 444 344 452 324 C457 309 458 291 457 254 L468 254 L514 472 L503 472 C491 439 479 418 467 403 C450 382 427 372 398 372 L236 372 L303 684 L473 684 C506 684 529 680 546 669 C565 657 578 638 589 609 C596 590 601 566 606 535 L615 535 L646 702 L124 702 L122 692 C150 689 156 687 164 686 C184 682 193 675 197 663 C200 654 199 641 195 621 L79 81 C74 58 70 46 62 37 C54 28 43 21 23 17 C12 14 0 13 -24 10 L-26 0 L509 0 L585 200 L575 200 Z M439 751 C522 751 576 801 599 900 L593 900 C576 844 526 815 449 815 C414 815 388 820 371 831 C348 844 339 868 343 900 L337 900 C329 856 331 820 347 795 C364 766 396 751 439 751 L439 751 Z " />
<glyph glyph-name="ebreve" unicode="&#x115;" horiz-adv-x="424" d="M370 142 C323 75 271 42 215 42 C178 42 148 58 131 90 C116 114 109 148 109 189 C109 205 109 222 112 239 C195 254 255 271 303 292 C384 327 424 374 424 433 C424 464 413 490 390 507 C370 522 343 530 310 530 C259 530 207 507 160 466 C120 430 85 384 61 331 C36 278 22 222 22 170 C22 118 36 75 61 43 C88 8 130 -10 179 -10 C220 -10 260 5 297 36 C328 61 354 97 377 138 L370 142 Z M334 495 C341 484 345 469 345 450 C345 391 320 346 269 311 C232 286 181 265 114 250 C119 287 130 324 143 359 C159 398 178 431 199 458 C230 494 261 514 293 514 C312 514 325 507 334 495 L334 495 Z M425 647 C444 674 458 712 469 761 L462 761 C443 692 401 658 333 658 C264 658 237 692 246 761 L239 761 C230 717 230 680 239 652 C251 613 281 592 322 592 C366 592 400 610 425 647 L425 647 Z " />
<glyph glyph-name="Edotaccent" unicode="&#x116;" horiz-adv-x="614" d="M575 200 C544 147 515 106 486 78 C445 37 402 18 351 18 L258 18 C226 18 205 20 193 27 C173 36 167 53 174 84 L232 354 L394 354 C426 354 444 344 452 324 C457 309 458 291 457 254 L468 254 L514 472 L503 472 C491 439 479 418 467 403 C450 382 427 372 398 372 L236 372 L303 684 L473 684 C506 684 529 680 546 669 C565 657 578 638 589 609 C596 590 601 566 606 535 L615 535 L646 702 L124 702 L122 692 C150 689 156 687 164 686 C184 682 193 675 197 663 C200 654 199 641 195 621 L79 81 C74 58 70 46 62 37 C54 28 43 21 23 17 C12 14 0 13 -24 10 L-26 0 L509 0 L585 200 L575 200 Z M486 779 C498 791 505 807 505 824 C505 840 499 854 488 865 C477 876 463 882 447 882 C431 882 415 875 403 863 C391 851 384 835 384 818 C384 802 390 788 401 777 C412 766 426 760 442 760 C458 760 474 767 486 779 L486 779 Z " />
<glyph glyph-name="edotaccent" unicode="&#x117;" horiz-adv-x="424" d="M370 142 C323 75 271 42 215 42 C178 42 148 58 131 90 C116 114 109 148 109 189 C109 205 109 222 112 239 C195 254 255 271 303 292 C384 327 424 374 424 433 C424 464 413 490 390 507 C370 522 343 530 310 530 C259 530 207 507 160 466 C120 430 85 384 61 331 C36 278 22 222 22 170 C22 118 36 75 61 43 C88 8 130 -10 179 -10 C220 -10 260 5 297 36 C328 61 354 97 377 138 L370 142 Z M334 495 C341 484 345 469 345 450 C345 391 320 346 269 311 C232 286 181 265 114 250 C119 287 130 324 143 359 C159 398 178 431 199 458 C230 494 261 514 293 514 C312 514 325 507 334 495 L334 495 Z M387 630 C399 642 406 658 406 675 C406 691 400 705 389 716 C378 727 364 733 348 733 C332 733 316 726 304 714 C292 702 285 686 285 669 C285 653 291 639 302 628 C313 617 327 611 343 611 C359 611 375 618 387 630 L387 630 Z " />
<glyph glyph-name="Eogonek" unicode="&#x118;" horiz-adv-x="614" d="M575 200 C544 147 515 106 486 78 C445 37 402 18 351 18 L258 18 C226 18 205 20 193 27 C173 36 167 53 174 84 L232 354 L394 354 C426 354 444 344 452 324 C457 309 458 291 457 254 L468 254 L514 472 L503 472 C491 439 479 418 467 403 C450 382 427 372 398 372 L236 372 L303 684 L473 684 C506 684 529 680 546 669 C565 657 578 638 589 609 C596 590 601 566 606 535 L615 535 L646 702 L124 702 L122 692 C150 689 156 687 164 686 C184 682 193 675 197 663 C200 654 199 641 195 621 L79 81 C74 58 70 46 62 37 C54 28 43 21 23 17 C12 14 0 13 -24 10 L-26 0 L374 0 C270 -45 220 -91 220 -142 C220 -163 228 -182 244 -194 C257 -205 277 -210 300 -210 C327 -210 353 -201 380 -184 C399 -171 418 -155 443 -127 L439 -122 C402 -157 368 -173 336 -173 C320 -173 307 -168 298 -159 C289 -150 283 -135 283 -119 C283 -78 320 -37 395 0 L509 0 L585 200 L575 200 Z " />
<glyph glyph-name="eogonek" unicode="&#x119;" horiz-adv-x="424" d="M294 -122 C257 -157 223 -173 191 -173 C175 -173 162 -168 153 -159 C144 -150 138 -135 138 -119 C138 -72 178 -29 253 8 C301 31 345 77 377 138 L370 142 C323 75 271 42 215 42 C178 42 148 58 131 90 C116 114 109 148 109 189 C109 205 109 222 112 239 C195 254 255 271 303 292 C384 327 424 374 424 433 C424 464 413 490 390 507 C370 522 343 530 310 530 C259 530 207 507 160 466 C120 430 85 384 61 331 C36 278 22 222 22 170 C22 118 36 75 61 43 C88 8 130 -10 179 -10 C190 -10 194 -10 198 -9 C115 -49 75 -93 75 -142 C75 -163 83 -182 99 -194 C112 -205 132 -210 155 -210 C182 -210 208 -201 235 -184 C254 -171 273 -155 298 -127 L294 -122 Z M334 495 C341 484 345 469 345 450 C345 391 320 346 269 311 C232 286 181 265 114 250 C119 287 130 324 143 359 C159 398 178 431 199 458 C230 494 261 514 293 514 C312 514 325 507 334 495 L334 495 Z " />
<glyph glyph-name="Ecaron" unicode="&#x11a;" horiz-adv-x="614" d="M575 200 C544 147 515 106 486 78 C445 37 402 18 351 18 L258 18 C226 18 205 20 193 27 C173 36 167 53 174 84 L232 354 L394 354 C426 354 444 344 452 324 C457 309 458 291 457 254 L468 254 L514 472 L503 472 C491 439 479 418 467 403 C450 382 427 372 398 372 L236 372 L303 684 L473 684 C506 684 529 680 546 669 C565 657 578 638 589 609 C596 590 601 566 606 535 L615 535 L646 702 L124 702 L122 692 C150 689 156 687 164 686 C184 682 193 675 197 663 C200 654 199 641 195 621 L79 81 C74 58 70 46 62 37 C54 28 43 21 23 17 C12 14 0 13 -24 10 L-26 0 L509 0 L585 200 L575 200 Z M607 910 L444 826 L329 910 L324 910 L399 761 L467 761 L612 910 L607 910 Z " />
<glyph glyph-name="ecaron" unicode="&#x11b;" horiz-adv-x="424" d="M370 142 C323 75 271 42 215 42 C178 42 148 58 131 90 C116 114 109 148 109 189 C109 205 109 222 112 239 C195 254 255 271 303 292 C384 327 424 374 424 433 C424 464 413 490 390 507 C370 522 343 530 310 530 C259 530 207 507 160 466 C120 430 85 384 61 331 C36 278 22 222 22 170 C22 118 36 75 61 43 C88 8 130 -10 179 -10 C220 -10 260 5 297 36 C328 61 354 97 377 138 L370 142 Z M334 495 C341 484 345 469 345 450 C345 391 320 346 269 311 C232 286 181 265 114 250 C119 287 130 324 143 359 C159 398 178 431 199 458 C230 494 261 514 293 514 C312 514 325 507 334 495 L334 495 Z M493 766 L330 658 L217 766 L211 766 L284 593 L352 593 L499 766 L493 766 Z " />
<glyph glyph-name="Gcircumflex" unicode="&#x11c;" horiz-adv-x="697" d="M467 50 C446 33 422 22 395 14 C372 9 347 5 315 5 C252 5 206 35 178 94 C157 138 147 195 147 266 C147 327 160 394 184 457 C208 524 244 581 287 622 C338 673 398 698 462 698 C518 698 563 680 591 644 C618 612 631 566 630 507 L639 507 L670 653 C643 672 609 687 573 698 C538 707 502 712 465 712 C389 712 317 690 253 647 C192 607 140 549 103 481 C66 413 46 338 46 266 C46 182 70 113 117 65 C164 16 232 -10 315 -10 C363 -10 404 -4 444 8 C480 19 516 35 561 62 L600 245 C607 277 614 292 627 301 C639 309 657 313 690 316 L692 326 L440 326 L438 316 L480 310 C501 306 510 299 514 287 C517 278 515 265 511 245 L467 50 Z M338 751 L343 751 L506 835 L621 751 L626 751 L551 900 L483 900 L338 751 Z " />
<glyph glyph-name="gcircumflex" unicode="&#x11d;" horiz-adv-x="464" d="M366 234 C407 274 430 326 430 382 C430 422 414 460 386 487 L502 476 L509 476 L521 521 L356 510 C332 523 303 530 274 530 C218 530 165 509 125 470 C84 430 61 378 61 322 C61 295 70 267 83 244 C99 220 119 201 144 189 C120 177 102 166 89 155 C70 138 62 120 62 99 C62 87 66 76 73 65 C80 54 91 46 100 41 C57 37 18 25 -11 8 C-51 -16 -73 -48 -73 -84 C-73 -115 -56 -144 -24 -168 C0 -185 31 -201 67 -210 C99 -218 133 -222 168 -222 C208 -222 245 -216 280 -207 C320 -195 354 -178 379 -155 C410 -128 426 -94 426 -57 C426 -28 413 -3 389 18 C370 33 345 45 312 56 L161 104 C160 104 146 109 141 110 C132 113 126 116 122 119 C115 123 113 128 113 135 C113 151 126 168 155 185 C174 177 195 174 216 174 C272 174 326 195 366 234 L366 234 Z M156 230 C148 249 144 274 144 305 C144 337 148 367 157 396 C166 428 180 456 199 477 C222 502 249 517 277 517 C304 517 323 503 335 475 C343 455 347 430 347 399 C347 367 343 337 334 308 C325 276 309 248 292 228 C269 201 241 188 213 188 C186 188 167 202 156 230 L156 230 Z M330 -47 C345 -60 352 -75 352 -98 C352 -125 341 -148 320 -167 C303 -182 280 -194 251 -201 C228 -206 201 -210 172 -210 C128 -210 87 -197 58 -173 C26 -148 9 -111 9 -68 C9 -23 44 15 108 38 L277 -21 C302 -30 318 -38 330 -47 L330 -47 Z M171 592 L177 592 L340 700 L453 592 L459 592 L386 765 L318 765 L171 592 Z " />
<glyph glyph-name="Gbreve" unicode="&#x11e;" horiz-adv-x="697" d="M467 50 C446 33 422 22 395 14 C372 9 347 5 315 5 C252 5 206 35 178 94 C157 138 147 195 147 266 C147 327 160 394 184 457 C208 524 244 581 287 622 C338 673 398 698 462 698 C518 698 563 680 591 644 C618 612 631 566 630 507 L639 507 L670 653 C643 672 609 687 573 698 C538 707 502 712 465 712 C389 712 317 690 253 647 C192 607 140 549 103 481 C66 413 46 338 46 266 C46 182 70 113 117 65 C164 16 232 -10 315 -10 C363 -10 404 -4 444 8 C480 19 516 35 561 62 L600 245 C607 277 614 292 627 301 C639 309 657 313 690 316 L692 326 L440 326 L438 316 L480 310 C501 306 510 299 514 287 C517 278 515 265 511 245 L467 50 Z M498 751 C581 751 635 801 658 900 L652 900 C635 844 585 815 508 815 C473 815 447 820 430 831 C407 844 398 868 402 900 L396 900 C388 856 390 820 406 795 C423 766 455 751 498 751 L498 751 Z " />
<glyph glyph-name="gbreve" unicode="&#x11f;" horiz-adv-x="464" d="M366 234 C407 274 430 326 430 382 C430 422 414 460 386 487 L502 476 L509 476 L521 521 L356 510 C332 523 303 530 274 530 C218 530 165 509 125 470 C84 430 61 378 61 322 C61 295 70 267 83 244 C99 220 119 201 144 189 C120 177 102 166 89 155 C70 138 62 120 62 99 C62 87 66 76 73 65 C80 54 91 46 100 41 C57 37 18 25 -11 8 C-51 -16 -73 -48 -73 -84 C-73 -115 -56 -144 -24 -168 C0 -185 31 -201 67 -210 C99 -218 133 -222 168 -222 C208 -222 245 -216 280 -207 C320 -195 354 -178 379 -155 C410 -128 426 -94 426 -57 C426 -28 413 -3 389 18 C370 33 345 45 312 56 L161 104 C160 104 146 109 141 110 C132 113 126 116 122 119 C115 123 113 128 113 135 C113 151 126 168 155 185 C174 177 195 174 216 174 C272 174 326 195 366 234 L366 234 Z M156 230 C148 249 144 274 144 305 C144 337 148 367 157 396 C166 428 180 456 199 477 C222 502 249 517 277 517 C304 517 323 503 335 475 C343 455 347 430 347 399 C347 367 343 337 334 308 C325 276 309 248 292 228 C269 201 241 188 213 188 C186 188 167 202 156 230 L156 230 Z M330 -47 C345 -60 352 -75 352 -98 C352 -125 341 -148 320 -167 C303 -182 280 -194 251 -201 C228 -206 201 -210 172 -210 C128 -210 87 -197 58 -173 C26 -148 9 -111 9 -68 C9 -23 44 15 108 38 L277 -21 C302 -30 318 -38 330 -47 L330 -47 Z M421 647 C440 674 454 712 465 761 L458 761 C439 692 397 658 329 658 C260 658 233 692 242 761 L235 761 C226 717 226 680 235 652 C247 613 277 592 318 592 C362 592 396 610 421 647 L421 647 Z " />
<glyph glyph-name="Gdotaccent" unicode="&#x120;" horiz-adv-x="697" d="M467 50 C446 33 422 22 395 14 C372 9 347 5 315 5 C252 5 206 35 178 94 C157 138 147 195 147 266 C147 327 160 394 184 457 C208 524 244 581 287 622 C338 673 398 698 462 698 C518 698 563 680 591 644 C618 612 631 566 630 507 L639 507 L670 653 C643 672 609 687 573 698 C538 707 502 712 465 712 C389 712 317 690 253 647 C192 607 140 549 103 481 C66 413 46 338 46 266 C46 182 70 113 117 65 C164 16 232 -10 315 -10 C363 -10 404 -4 444 8 C480 19 516 35 561 62 L600 245 C607 277 614 292 627 301 C639 309 657 313 690 316 L692 326 L440 326 L438 316 L480 310 C501 306 510 299 514 287 C517 278 515 265 511 245 L467 50 Z M544 779 C556 791 563 807 563 824 C563 840 557 854 546 865 C535 876 521 882 505 882 C489 882 473 875 461 863 C449 851 442 835 442 818 C442 802 448 788 459 777 C470 766 484 760 500 760 C516 760 532 767 544 779 L544 779 Z " />
<glyph glyph-name="gdotaccent" unicode="&#x121;" horiz-adv-x="464" d="M366 234 C407 274 430 326 430 382 C430 422 414 460 386 487 L502 476 L509 476 L521 521 L356 510 C332 523 303 530 274 530 C218 530 165 509 125 470 C84 430 61 378 61 322 C61 295 70 267 83 244 C99 220 119 201 144 189 C120 177 102 166 89 155 C70 138 62 120 62 99 C62 87 66 76 73 65 C80 54 91 46 100 41 C57 37 18 25 -11 8 C-51 -16 -73 -48 -73 -84 C-73 -115 -56 -144 -24 -168 C0 -185 31 -201 67 -210 C99 -218 133 -222 168 -222 C208 -222 245 -216 280 -207 C320 -195 354 -178 379 -155 C410 -128 426 -94 426 -57 C426 -28 413 -3 389 18 C370 33 345 45 312 56 L161 104 C160 104 146 109 141 110 C132 113 126 116 122 119 C115 123 113 128 113 135 C113 151 126 168 155 185 C174 177 195 174 216 174 C272 174 326 195 366 234 L366 234 Z M156 230 C148 249 144 274 144 305 C144 337 148 367 157 396 C166 428 180 456 199 477 C222 502 249 517 277 517 C304 517 323 503 335 475 C343 455 347 430 347 399 C347 367 343 337 334 308 C325 276 309 248 292 228 C269 201 241 188 213 188 C186 188 167 202 156 230 L156 230 Z M330 -47 C345 -60 352 -75 352 -98 C352 -125 341 -148 320 -167 C303 -182 280 -194 251 -201 C228 -206 201 -210 172 -210 C128 -210 87 -197 58 -173 C26 -148 9 -111 9 -68 C9 -23 44 15 108 38 L277 -21 C302 -30 318 -38 330 -47 L330 -47 Z M376 630 C388 642 395 658 395 675 C395 691 389 705 378 716 C367 727 353 733 337 733 C321 733 305 726 293 714 C281 702 274 686 274 669 C274 653 280 639 291 628 C302 617 316 611 332 611 C348 611 364 618 376 630 L376 630 Z " />
<glyph glyph-name="Gcommaaccent" unicode="&#x122;" horiz-adv-x="697" d="M467 50 C446 33 422 22 395 14 C372 9 347 5 315 5 C252 5 206 35 178 94 C157 138 147 195 147 266 C147 327 160 394 184 457 C208 524 244 581 287 622 C338 673 398 698 462 698 C518 698 563 680 591 644 C618 612 631 566 630 507 L639 507 L670 653 C643 672 609 687 573 698 C538 707 502 712 465 712 C389 712 317 690 253 647 C192 607 140 549 103 481 C66 413 46 338 46 266 C46 182 70 113 117 65 C164 16 232 -10 315 -10 C363 -10 404 -4 444 8 C480 19 516 35 561 62 L600 245 C607 277 614 292 627 301 C639 309 657 313 690 316 L692 326 L440 326 L438 316 L480 310 C501 306 510 299 514 287 C517 278 515 265 511 245 L467 50 Z M290 -199 C273 -210 252 -217 229 -218 L227 -225 C263 -225 297 -216 324 -197 C355 -176 372 -146 372 -113 C372 -93 367 -77 356 -66 C345 -54 330 -48 311 -48 C291 -48 275 -54 263 -63 C250 -75 243 -90 243 -109 C243 -129 255 -144 276 -149 L325 -149 C321 -169 309 -186 290 -199 L290 -199 Z " />
<glyph glyph-name="gcommaaccent" unicode="&#x123;" horiz-adv-x="464" d="M366 234 C407 274 430 326 430 382 C430 422 414 460 386 487 L502 476 L509 476 L521 521 L356 510 C332 523 303 530 274 530 C218 530 165 509 125 470 C84 430 61 378 61 322 C61 295 70 267 83 244 C99 220 119 201 144 189 C120 177 102 166 89 155 C70 138 62 120 62 99 C62 87 66 76 73 65 C80 54 91 46 100 41 C57 37 18 25 -11 8 C-51 -16 -73 -48 -73 -84 C-73 -115 -56 -144 -24 -168 C0 -185 31 -201 67 -210 C99 -218 133 -222 168 -222 C208 -222 245 -216 280 -207 C320 -195 354 -178 379 -155 C410 -128 426 -94 426 -57 C426 -28 413 -3 389 18 C370 33 345 45 312 56 L161 104 C160 104 146 109 141 110 C132 113 126 116 122 119 C115 123 113 128 113 135 C113 151 126 168 155 185 C174 177 195 174 216 174 C272 174 326 195 366 234 L366 234 Z M156 230 C148 249 144 274 144 305 C144 337 148 367 157 396 C166 428 180 456 199 477 C222 502 249 517 277 517 C304 517 323 503 335 475 C343 455 347 430 347 399 C347 367 343 337 334 308 C325 276 309 248 292 228 C269 201 241 188 213 188 C186 188 167 202 156 230 L156 230 Z M330 -47 C345 -60 352 -75 352 -98 C352 -125 341 -148 320 -167 C303 -182 280 -194 251 -201 C228 -206 201 -210 172 -210 C128 -210 87 -197 58 -173 C26 -148 9 -111 9 -68 C9 -23 44 15 108 38 L277 -21 C302 -30 318 -38 330 -47 L330 -47 Z M348 758 C365 769 386 776 409 777 L411 784 C375 784 341 775 314 756 C283 735 266 705 266 672 C266 652 271 636 282 625 C293 613 308 607 327 607 C347 607 363 613 375 622 C388 634 395 649 395 668 C395 688 383 703 362 708 L313 708 C317 728 329 745 348 758 L348 758 Z " />
<glyph glyph-name="Hcircumflex" unicode="&#x124;" horiz-adv-x="771" d="M306 665 C314 674 325 681 345 685 C356 688 368 689 392 692 L394 702 L124 702 L122 692 C150 689 156 687 164 686 C184 682 193 675 197 663 C200 654 199 641 195 621 L79 81 C74 58 70 46 62 37 C54 28 43 21 23 17 C12 14 0 13 -24 10 L-26 0 L244 0 L246 10 C218 13 212 15 204 16 C184 20 175 27 171 39 C168 48 169 61 173 81 L232 355 L583 355 L524 81 C519 58 515 46 507 37 C499 28 488 21 468 17 C457 14 445 13 421 10 L419 0 L689 0 L691 10 C663 13 657 15 649 16 C629 20 620 27 616 39 C613 48 614 61 618 81 L734 621 C739 644 743 656 751 665 C759 674 770 681 790 685 C801 688 813 689 837 692 L839 702 L569 702 L567 692 C595 689 601 687 609 686 C629 682 638 675 642 663 C645 654 644 641 640 621 L587 373 L236 373 L289 621 C294 644 298 656 306 665 L306 665 Z M342 751 L347 751 L510 835 L625 751 L630 751 L555 900 L487 900 L342 751 Z " />
<glyph glyph-name="hcircumflex" unicode="&#x125;" horiz-adv-x="544" d="M470 85 C447 62 427 49 414 49 C403 49 399 55 399 67 C399 75 402 91 407 110 L488 415 C492 431 494 448 494 459 C494 484 490 502 481 514 C472 527 455 535 431 535 C380 535 321 493 261 416 C221 364 181 299 152 232 L292 783 L288 783 L108 740 L108 736 L185 700 L10 0 L97 0 L133 145 C141 180 154 214 170 247 C186 280 204 311 225 340 C248 371 272 400 297 421 C333 454 366 473 389 473 C401 473 407 467 407 452 C407 444 405 434 402 419 L319 106 C312 78 309 59 309 43 C309 27 314 13 322 4 C330 -5 343 -10 358 -10 C389 -10 422 7 454 42 C477 66 500 97 520 134 L514 138 C499 118 485 100 470 85 L470 85 Z M248 803 L253 803 L416 887 L531 803 L536 803 L461 952 L393 952 L248 803 Z " />
<glyph glyph-name="Hbar" unicode="&#x126;" horiz-adv-x="771" d="M79 81 C74 58 70 46 62 37 C54 28 43 21 23 17 C12 14 0 13 -24 10 L-26 0 L244 0 L246 10 C218 13 212 15 204 16 C184 20 175 27 171 39 C168 48 169 61 173 81 L232 355 L583 355 L524 81 C519 58 515 46 507 37 C499 28 488 21 468 17 C457 14 445 13 421 10 L419 0 L689 0 L691 10 C663 13 657 15 649 16 C629 20 620 27 616 39 C613 48 614 61 618 81 L711 516 L789 516 L792 534 L715 534 L734 621 C739 644 743 656 751 665 C759 674 770 681 790 685 C801 688 813 689 837 692 L839 702 L569 702 L567 692 C595 689 601 687 609 686 C629 682 638 675 642 663 C645 654 644 641 640 621 L621 534 L270 534 L289 621 C294 644 298 656 306 665 C314 674 325 681 345 685 C356 688 368 689 392 692 L394 702 L124 702 L122 692 C150 689 156 687 164 686 C184 682 193 675 197 663 C200 654 199 641 195 621 L176 534 L105 534 L102 516 L172 516 L79 81 Z M617 516 L587 373 L236 373 L266 516 L617 516 Z " />
<glyph glyph-name="hbar" unicode="&#x127;" horiz-adv-x="544" d="M384 612 L387 628 L253 628 L292 783 L288 783 L108 740 L108 736 L185 700 L167 628 L106 628 L103 612 L163 612 L10 0 L97 0 L133 145 C141 180 154 214 170 247 C186 280 204 311 225 340 C248 371 272 400 297 421 C333 454 366 473 389 473 C401 473 407 467 407 452 C407 444 405 434 402 419 L319 106 C312 78 309 59 309 43 C309 27 314 13 322 4 C330 -5 343 -10 358 -10 C389 -10 422 7 454 42 C477 66 500 97 520 134 L514 138 C499 118 485 100 470 85 C447 62 427 49 414 49 C403 49 399 55 399 67 C399 75 402 91 407 110 L488 415 C492 431 494 448 494 459 C494 484 490 502 481 514 C472 527 455 535 431 535 C380 535 321 493 261 416 C221 364 181 299 152 232 L249 612 L384 612 Z " />
<glyph glyph-name="Itilde" unicode="&#x128;" horiz-adv-x="326" d="M306 665 C314 674 325 681 345 685 C356 688 368 689 392 692 L394 702 L124 702 L122 692 C150 689 156 687 164 686 C184 682 193 675 197 663 C200 654 199 641 195 621 L79 81 C74 58 70 46 62 37 C54 28 43 21 23 17 C12 14 0 13 -24 10 L-26 0 L244 0 L246 10 C218 13 212 15 204 16 C184 20 175 27 171 39 C168 48 169 61 173 81 L289 621 C294 644 298 656 306 665 L306 665 Z M434 877 C409 837 383 818 354 818 C345 818 335 820 324 827 C317 830 312 833 297 844 C282 856 275 860 268 864 C256 871 245 873 234 873 C207 873 185 859 164 830 C151 811 138 786 125 753 L130 750 C155 790 181 809 210 809 C219 809 229 807 240 800 C247 797 252 794 267 783 C282 771 289 767 296 763 C308 756 319 754 330 754 C357 754 379 768 400 797 C413 816 426 841 439 874 L434 877 Z " />
<glyph glyph-name="itilde" unicode="&#x129;" horiz-adv-x="272" d="M181 653 C186 649 192 646 205 635 C220 623 225 619 232 615 C243 608 253 606 262 606 C282 606 297 612 312 625 C323 636 333 650 344 670 C352 683 360 700 369 720 L363 723 C352 706 343 692 332 684 C319 673 305 668 286 668 C278 668 268 670 259 677 C254 681 248 684 235 695 C222 707 214 711 209 715 C198 720 187 724 178 724 C158 724 143 718 128 705 C117 694 107 680 96 660 C88 647 80 630 71 610 L77 607 C88 624 97 638 108 646 C120 657 134 662 153 662 C162 662 170 660 181 653 L181 653 Z M28 43 C28 27 33 13 41 4 C49 -5 62 -10 77 -10 C108 -10 141 7 173 42 C196 66 219 97 239 134 L233 138 C218 118 204 100 189 85 C166 62 146 49 133 49 C122 49 118 55 118 67 C118 75 121 91 126 110 L232 530 L228 530 L55 487 L55 483 L123 444 L38 106 C31 78 28 59 28 43 L28 43 Z " />
<glyph glyph-name="Imacron" unicode="&#x12a;" horiz-adv-x="326" d="M306 665 C314 674 325 681 345 685 C356 688 368 689 392 692 L394 702 L124 702 L122 692 C150 689 156 687 164 686 C184 682 193 675 197 663 C200 654 199 641 195 621 L79 81 C74 58 70 46 62 37 C54 28 43 21 23 17 C12 14 0 13 -24 10 L-26 0 L244 0 L246 10 C218 13 212 15 204 16 C184 20 175 27 171 39 C168 48 169 61 173 81 L289 621 C294 644 298 656 306 665 L306 665 Z M421 799 L140 799 L134 772 L415 772 L421 799 Z " />
<glyph glyph-name="imacron" unicode="&#x12b;" horiz-adv-x="272" d="M330 649 L104 649 L99 623 L325 623 L330 649 Z M28 43 C28 27 33 13 41 4 C49 -5 62 -10 77 -10 C108 -10 141 7 173 42 C196 66 219 97 239 134 L233 138 C218 118 204 100 189 85 C166 62 146 49 133 49 C122 49 118 55 118 67 C118 75 121 91 126 110 L232 530 L228 530 L55 487 L55 483 L123 444 L38 106 C31 78 28 59 28 43 L28 43 Z " />
<glyph glyph-name="Ibreve" unicode="&#x12c;" horiz-adv-x="326" d="M306 665 C314 674 325 681 345 685 C356 688 368 689 392 692 L394 702 L124 702 L122 692 C150 689 156 687 164 686 C184 682 193 675 197 663 C200 654 199 641 195 621 L79 81 C74 58 70 46 62 37 C54 28 43 21 23 17 C12 14 0 13 -24 10 L-26 0 L244 0 L246 10 C218 13 212 15 204 16 C184 20 175 27 171 39 C168 48 169 61 173 81 L289 621 C294 644 298 656 306 665 L306 665 Z M279 751 C362 751 416 801 439 900 L433 900 C416 844 366 815 289 815 C254 815 228 820 211 831 C188 844 179 868 183 900 L177 900 C169 856 171 820 187 795 C204 766 236 751 279 751 L279 751 Z " />
<glyph glyph-name="ibreve" unicode="&#x12d;" horiz-adv-x="272" d="M28 43 C28 27 33 13 41 4 C49 -5 62 -10 77 -10 C108 -10 141 7 173 42 C196 66 219 97 239 134 L233 138 C218 118 204 100 189 85 C166 62 146 49 133 49 C122 49 118 55 118 67 C118 75 121 91 126 110 L232 530 L228 530 L55 487 L55 483 L123 444 L38 106 C31 78 28 59 28 43 L28 43 Z M305 647 C324 674 338 712 349 761 L342 761 C323 692 281 658 213 658 C144 658 117 692 126 761 L119 761 C110 717 110 680 119 652 C131 613 161 592 202 592 C246 592 280 610 305 647 L305 647 Z " />
<glyph glyph-name="Iogonek" unicode="&#x12e;" horiz-adv-x="326" d="M306 665 C314 674 325 681 345 685 C356 688 368 689 392 692 L394 702 L124 702 L122 692 C150 689 156 687 164 686 C184 682 193 675 197 663 C200 654 199 641 195 621 L79 81 C74 58 70 46 62 37 C54 28 43 21 23 17 C12 14 0 13 -24 10 L-26 0 L132 0 C28 -45 -22 -91 -22 -142 C-22 -163 -14 -182 2 -194 C15 -205 35 -210 58 -210 C85 -210 111 -201 138 -184 C157 -171 176 -155 201 -127 L197 -122 C160 -157 126 -173 94 -173 C78 -173 65 -168 56 -159 C47 -150 41 -135 41 -119 C41 -78 78 -37 153 0 L244 0 L246 10 C218 13 212 15 204 16 C184 20 175 27 171 39 C168 48 169 61 173 81 L289 621 C294 644 298 656 306 665 L306 665 Z " />
<glyph glyph-name="iogonek" unicode="&#x12f;" horiz-adv-x="272" d="M264 630 C276 642 283 658 283 675 C283 691 277 705 266 716 C255 727 241 733 225 733 C209 733 193 726 181 714 C169 702 162 686 162 669 C162 653 168 639 179 628 C190 617 204 611 220 611 C236 611 252 618 264 630 L264 630 Z M188 -122 C151 -157 117 -173 85 -173 C69 -173 56 -168 47 -159 C38 -150 32 -135 32 -119 C32 -103 36 -89 44 -76 C51 -64 60 -53 73 -41 L109 -11 C136 10 147 20 159 31 C175 47 190 62 203 78 C216 95 228 114 239 134 L233 138 C218 118 204 100 189 85 C166 62 146 49 133 49 C122 49 118 55 118 67 C118 75 121 91 126 110 L232 530 L228 530 L55 487 L55 483 L123 444 L38 106 C31 78 28 59 28 43 C28 27 33 13 41 4 C49 -5 62 -10 77 -10 C84 -10 85 -10 88 -9 C11 -49 -31 -94 -31 -142 C-31 -163 -23 -182 -7 -194 C6 -205 26 -210 49 -210 C76 -210 102 -201 129 -184 C148 -171 167 -155 192 -127 L188 -122 Z " />
<glyph glyph-name="Idot" unicode="&#x130;" horiz-adv-x="326" d="M306 665 C314 674 325 681 345 685 C356 688 368 689 392 692 L394 702 L124 702 L122 692 C150 689 156 687 164 686 C184 682 193 675 197 663 C200 654 199 641 195 621 L79 81 C74 58 70 46 62 37 C54 28 43 21 23 17 C12 14 0 13 -24 10 L-26 0 L244 0 L246 10 C218 13 212 15 204 16 C184 20 175 27 171 39 C168 48 169 61 173 81 L289 621 C294 644 298 656 306 665 L306 665 Z M326 779 C338 791 345 807 345 824 C345 840 339 854 328 865 C317 876 303 882 287 882 C271 882 255 875 243 863 C231 851 224 835 224 818 C224 802 230 788 241 777 C252 766 266 760 282 760 C298 760 314 767 326 779 L326 779 Z " />
<glyph glyph-name="dotlessi" unicode="&#x131;" horiz-adv-x="272" d="M28 43 C28 27 33 13 41 4 C49 -5 62 -10 77 -10 C108 -10 141 7 173 42 C196 66 219 97 239 134 L233 138 C218 118 204 100 189 85 C166 62 146 49 133 49 C122 49 118 55 118 67 C118 75 121 91 126 110 L232 530 L228 530 L55 487 L55 483 L123 444 L38 106 C31 78 28 59 28 43 L28 43 Z " />
<glyph glyph-name="IJ" unicode="&#x132;" horiz-adv-x="786" d="M306 665 C314 674 325 681 345 685 C356 688 368 689 392 692 L394 702 L124 702 L122 692 C150 689 156 687 164 686 C184 682 193 675 197 663 C200 654 199 641 195 621 L79 81 C74 58 70 46 62 37 C54 28 43 21 23 17 C12 14 0 13 -24 10 L-26 0 L244 0 L246 10 C218 13 212 15 204 16 C184 20 175 27 171 39 C168 48 169 61 173 81 L289 621 C294 644 298 656 306 665 L306 665 Z M568 167 C559 120 546 86 531 59 C510 20 480 2 440 2 C413 2 393 13 378 33 C367 50 361 73 361 102 C361 126 368 152 383 180 L314 180 C287 160 271 129 271 97 C271 61 290 31 325 12 C352 -3 387 -10 428 -10 C495 -10 547 6 587 39 C626 71 651 120 666 187 L757 613 C762 636 766 648 774 657 C782 666 793 673 813 677 C824 680 836 681 860 684 L864 702 L594 702 L590 684 C618 681 624 679 632 678 C652 674 661 667 665 655 C668 646 667 633 663 613 L568 167 Z " />
<glyph glyph-name="ij" unicode="&#x133;" horiz-adv-x="469" d="M264 630 C276 642 283 658 283 675 C283 691 277 705 266 716 C255 727 241 733 225 733 C209 733 193 726 181 714 C169 702 162 686 162 669 C162 653 168 639 179 628 C190 617 204 611 220 611 C236 611 252 618 264 630 L264 630 Z M28 43 C28 27 33 13 41 4 C49 -5 62 -10 77 -10 C108 -10 141 7 173 42 C196 66 219 97 239 134 L233 138 C218 118 204 100 189 85 C166 62 146 49 133 49 C122 49 118 55 118 67 C118 75 121 91 126 110 L232 530 L228 530 L55 487 L55 483 L123 444 L38 106 C31 78 28 59 28 43 L28 43 Z M495 630 C507 642 514 658 514 675 C514 691 508 705 497 716 C486 727 472 733 456 733 C440 733 424 726 412 714 C400 702 393 686 393 669 C393 653 399 639 410 628 C421 617 435 611 451 611 C467 611 483 618 495 630 L495 630 Z M459 530 L286 487 L286 483 L356 444 L254 -7 C250 -27 246 -44 242 -59 C237 -80 232 -96 228 -111 C221 -134 215 -150 208 -162 C197 -182 186 -190 169 -190 C149 -190 132 -176 121 -152 C114 -135 110 -112 109 -87 L107 -87 C91 -88 77 -95 66 -103 C53 -114 46 -128 46 -144 C46 -165 56 -182 75 -193 C91 -202 111 -207 134 -207 C187 -207 231 -184 267 -136 C294 -103 316 -57 337 3 C352 47 366 97 379 156 L463 530 L459 530 Z " />
<glyph glyph-name="Jcircumflex" unicode="&#x134;" horiz-adv-x="490" d="M272 167 C263 120 250 86 235 59 C214 20 184 2 144 2 C117 2 97 13 82 33 C71 50 65 73 65 102 C65 126 72 152 87 180 L18 180 C-9 160 -25 129 -25 97 C-25 61 -6 31 29 12 C56 -3 91 -10 132 -10 C199 -10 251 6 291 39 C330 71 355 120 370 187 L461 613 C466 636 470 648 478 657 C486 666 497 673 517 677 C528 680 540 681 564 684 L568 702 L298 702 L294 684 C322 681 328 679 336 678 C356 674 365 667 369 655 C372 646 371 633 367 613 L272 167 Z M291 751 L296 751 L459 835 L574 751 L579 751 L504 900 L436 900 L291 751 Z " />
<glyph glyph-name="jcircumflex" unicode="&#x135;" horiz-adv-x="240" d="M230 530 L57 487 L57 483 L127 444 L25 -7 C21 -27 17 -44 13 -59 C8 -80 3 -96 -1 -111 C-8 -134 -14 -150 -21 -162 C-32 -182 -43 -190 -60 -190 C-80 -190 -97 -176 -108 -152 C-115 -135 -119 -112 -120 -87 L-122 -87 C-138 -88 -152 -95 -163 -103 C-176 -114 -183 -128 -183 -144 C-183 -165 -173 -182 -154 -193 C-138 -202 -118 -207 -95 -207 C-42 -207 2 -184 38 -136 C65 -103 87 -57 108 3 C123 47 137 97 150 156 L234 530 L230 530 Z M55 592 L61 592 L224 700 L337 592 L343 592 L270 765 L202 765 L55 592 Z " />
<glyph glyph-name="Kcommaaccent" unicode="&#x136;" horiz-adv-x="661" d="M366 140 C406 65 433 23 456 0 L621 0 L623 10 C595 11 572 20 552 35 C535 48 519 67 502 92 C490 109 477 131 462 159 L327 412 L594 641 C615 660 636 672 657 680 C677 687 700 691 729 692 L731 702 L515 702 L513 692 C524 692 533 691 540 690 C552 689 562 687 567 686 C579 683 583 678 583 669 C583 662 579 655 572 647 C568 643 565 639 553 630 L247 365 L366 140 Z M306 665 C314 674 325 681 345 685 C356 688 368 689 392 692 L394 702 L124 702 L122 692 C150 689 156 687 164 686 C184 682 193 675 197 663 C200 654 199 641 195 621 L79 81 C74 58 70 46 62 37 C54 28 43 21 23 17 C12 14 0 13 -24 10 L-26 0 L244 0 L246 10 C218 13 212 15 204 16 C184 20 175 27 171 39 C168 48 169 61 173 81 L289 621 C294 644 298 656 306 665 L306 665 Z M257 -199 C240 -210 219 -217 196 -218 L194 -225 C230 -225 264 -216 291 -197 C322 -176 339 -146 339 -113 C339 -93 334 -77 323 -66 C312 -54 297 -48 278 -48 C258 -48 242 -54 230 -63 C217 -75 210 -90 210 -109 C210 -129 222 -144 243 -149 L292 -149 C288 -169 276 -186 257 -199 L257 -199 Z " />
<glyph glyph-name="kcommaaccent" unicode="&#x137;" horiz-adv-x="503" d="M98 0 L293 783 L289 783 L109 740 L109 736 L186 700 L10 0 L98 0 Z M472 130 C461 110 449 93 437 80 C418 61 401 51 385 51 C373 51 362 59 353 76 C349 83 346 88 335 115 L247 333 C260 348 272 360 283 371 C298 386 309 399 320 408 C336 424 349 435 361 443 C378 455 391 460 407 460 C422 460 433 454 440 442 C445 433 448 420 448 404 L450 404 C491 419 513 441 513 472 C513 488 508 503 497 514 C486 525 472 530 455 530 C432 530 414 523 391 503 C378 492 363 477 340 452 L184 282 L254 96 L272 50 C280 29 288 16 297 7 C308 -5 321 -10 340 -10 C368 -10 399 7 426 39 C447 63 464 92 479 127 L472 130 Z M141 -199 C124 -210 103 -217 80 -218 L78 -225 C114 -225 148 -216 175 -197 C206 -176 223 -146 223 -113 C223 -93 218 -77 207 -66 C196 -54 181 -48 162 -48 C142 -48 126 -54 114 -63 C101 -75 94 -90 94 -109 C94 -129 106 -144 127 -149 L176 -149 C172 -169 160 -186 141 -199 L141 -199 Z " />
<glyph glyph-name="kgreenlandic" unicode="&#x138;" horiz-adv-x="513" d="M482 130 C471 110 459 93 447 80 C428 61 411 51 395 51 C383 51 372 59 363 76 C359 83 356 88 345 115 L257 333 C270 348 282 360 293 371 C308 386 319 399 330 408 C346 424 359 435 371 443 C388 455 401 460 417 460 C432 460 443 454 450 442 C455 433 458 420 458 404 L460 404 C501 419 523 441 523 472 C523 488 518 503 507 514 C496 525 482 530 465 530 C442 530 424 523 401 503 C388 492 373 477 350 452 L194 282 L264 96 L282 50 C290 29 298 16 307 7 C318 -5 331 -10 350 -10 C378 -10 409 7 436 39 C457 63 474 92 489 127 L482 130 Z M108 0 L241 530 L237 530 L64 487 L64 483 L132 444 L21 0 L108 0 Z " />
<glyph glyph-name="Lacute" unicode="&#x139;" horiz-adv-x="582" d="M544 200 C515 147 487 108 460 80 C420 37 380 18 332 18 L258 18 C226 18 205 21 192 28 C173 37 167 55 174 86 L289 621 C294 644 298 656 306 665 C314 674 325 681 345 685 C356 688 368 689 392 692 L394 702 L124 702 L122 692 C150 689 156 687 164 686 C184 682 193 675 197 663 C200 654 199 641 195 621 L79 81 C74 58 70 46 62 37 C54 28 43 21 23 17 C12 14 0 13 -24 10 L-26 0 L479 0 L554 200 L544 200 Z M266 751 L270 751 L443 897 L444 900 L332 900 L266 751 Z " />
<glyph glyph-name="lacute" unicode="&#x13a;" horiz-adv-x="266" d="M22 43 C22 27 27 13 35 4 C43 -5 56 -10 71 -10 C102 -10 135 7 167 42 C190 66 213 97 233 134 L227 138 C212 118 198 100 183 85 C160 62 140 49 127 49 C116 49 112 55 112 67 C112 75 115 91 120 110 L286 783 L282 783 L102 740 L102 736 L179 700 L32 106 C25 78 22 59 22 43 L22 43 Z M228 795 L232 795 L405 941 L406 944 L294 944 L228 795 Z " />
<glyph glyph-name="Lcommaaccent" unicode="&#x13b;" horiz-adv-x="582" d="M544 200 C515 147 487 108 460 80 C420 37 380 18 332 18 L258 18 C226 18 205 21 192 28 C173 37 167 55 174 86 L289 621 C294 644 298 656 306 665 C314 674 325 681 345 685 C356 688 368 689 392 692 L394 702 L124 702 L122 692 C150 689 156 687 164 686 C184 682 193 675 197 663 C200 654 199 641 195 621 L79 81 C74 58 70 46 62 37 C54 28 43 21 23 17 C12 14 0 13 -24 10 L-26 0 L479 0 L554 200 L544 200 Z M218 -199 C201 -210 180 -217 157 -218 L155 -225 C191 -225 225 -216 252 -197 C283 -176 300 -146 300 -113 C300 -93 295 -77 284 -66 C273 -54 258 -48 239 -48 C219 -48 203 -54 191 -63 C178 -75 171 -90 171 -109 C171 -129 183 -144 204 -149 L253 -149 C249 -169 237 -186 218 -199 L218 -199 Z " />
<glyph glyph-name="lcommaaccent" unicode="&#x13c;" horiz-adv-x="266" d="M22 43 C22 27 27 13 35 4 C43 -5 56 -10 71 -10 C102 -10 135 7 167 42 C190 66 213 97 233 134 L227 138 C212 118 198 100 183 85 C160 62 140 49 127 49 C116 49 112 55 112 67 C112 75 115 91 120 110 L286 783 L282 783 L102 740 L102 736 L179 700 L32 106 C25 78 22 59 22 43 L22 43 Z M36 -199 C19 -210 -2 -217 -25 -218 L-27 -225 C9 -225 43 -216 70 -197 C101 -176 118 -146 118 -113 C118 -93 113 -77 102 -66 C91 -54 76 -48 57 -48 C37 -48 21 -54 9 -63 C-4 -75 -11 -90 -11 -109 C-11 -129 1 -144 22 -149 L71 -149 C67 -169 55 -186 36 -199 L36 -199 Z " />
<glyph glyph-name="Lcaron" unicode="&#x13d;" horiz-adv-x="582" d="M544 200 C515 147 487 108 460 80 C420 37 380 18 332 18 L258 18 C226 18 205 21 192 28 C173 37 167 55 174 86 L289 621 C294 644 298 656 306 665 C314 674 325 681 345 685 C356 688 368 689 392 692 L394 702 L124 702 L122 692 C150 689 156 687 164 686 C184 682 193 675 197 663 C200 654 199 641 195 621 L79 81 C74 58 70 46 62 37 C54 28 43 21 23 17 C12 14 0 13 -24 10 L-26 0 L479 0 L554 200 L544 200 Z M487 702 L423 497 L427 497 L581 698 L582 702 L487 702 Z " />
<glyph glyph-name="lcaron" unicode="&#x13e;" horiz-adv-x="266" d="M22 43 C22 27 27 13 35 4 C43 -5 56 -10 71 -10 C102 -10 135 7 167 42 C190 66 213 97 233 134 L227 138 C212 118 198 100 183 85 C160 62 140 49 127 49 C116 49 112 55 112 67 C112 75 115 91 120 110 L286 783 L282 783 L102 740 L102 736 L179 700 L32 106 C25 78 22 59 22 43 L22 43 Z M350 783 L286 578 L290 578 L444 779 L445 783 L350 783 Z " />
<glyph glyph-name="Ldot" unicode="&#x13f;" horiz-adv-x="582" d="M544 200 C515 147 487 108 460 80 C420 37 380 18 332 18 L258 18 C226 18 205 21 192 28 C173 37 167 55 174 86 L289 621 C294 644 298 656 306 665 C314 674 325 681 345 685 C356 688 368 689 392 692 L394 702 L124 702 L122 692 C150 689 156 687 164 686 C184 682 193 675 197 663 C200 654 199 641 195 621 L79 81 C74 58 70 46 62 37 C54 28 43 21 23 17 C12 14 0 13 -24 10 L-26 0 L479 0 L554 200 L544 200 Z M520 329 C532 341 539 357 539 374 C539 390 533 404 522 415 C511 426 497 432 481 432 C465 432 449 425 437 413 C425 401 418 385 418 368 C418 352 424 338 435 327 C446 316 460 310 476 310 C492 310 508 317 520 329 L520 329 Z " />
<glyph glyph-name="ldot" unicode="&#x140;" horiz-adv-x="266" d="M22 43 C22 27 27 13 35 4 C43 -5 56 -10 71 -10 C102 -10 135 7 167 42 C190 66 213 97 233 134 L227 138 C212 118 198 100 183 85 C160 62 140 49 127 49 C116 49 112 55 112 67 C112 75 115 91 120 110 L286 783 L282 783 L102 740 L102 736 L179 700 L32 106 C25 78 22 59 22 43 L22 43 Z M334 344 C346 356 353 372 353 389 C353 405 347 419 336 430 C325 441 311 447 295 447 C279 447 263 440 251 428 C239 416 232 400 232 383 C232 367 238 353 249 342 C260 331 274 325 290 325 C306 325 322 332 334 344 L334 344 Z " />
<glyph glyph-name="Lslash" unicode="&#x141;" horiz-adv-x="582" d="M544 200 C515 147 487 108 460 80 C420 37 380 18 332 18 L258 18 C226 18 205 21 192 28 C173 37 167 55 174 86 L230 346 L376 413 L382 438 L235 371 L289 621 C294 644 298 656 306 665 C314 674 325 681 345 685 C356 688 368 689 392 692 L394 702 L124 702 L122 692 C150 689 156 687 164 686 C184 682 193 675 197 663 C200 654 199 641 195 621 L133 334 L41 292 L35 267 L128 309 L79 81 C74 58 70 46 62 37 C54 28 43 21 23 17 C12 14 0 13 -24 10 L-26 0 L479 0 L554 200 L544 200 Z " />
<glyph glyph-name="lslash" unicode="&#x142;" horiz-adv-x="266" d="M22 43 C22 27 27 13 35 4 C43 -5 56 -10 71 -10 C102 -10 135 7 167 42 C190 66 213 97 233 134 L227 138 C212 118 198 100 183 85 C160 62 140 49 127 49 C116 49 112 55 112 67 C112 75 115 91 120 110 L199 429 L298 485 L303 507 L204 451 L286 783 L282 783 L102 740 L102 736 L179 700 L107 411 L29 370 L24 348 L102 389 L32 106 C25 78 22 59 22 43 L22 43 Z " />
<glyph glyph-name="Nacute" unicode="&#x143;" horiz-adv-x="729" d="M263 702 L112 702 L110 692 C130 692 146 685 161 673 C173 664 183 650 196 629 L79 81 C74 58 70 46 62 37 C54 28 43 21 23 17 C12 14 0 13 -24 10 L-26 0 L193 0 L195 10 C174 11 159 12 146 15 C126 19 113 24 105 35 C98 44 97 60 101 81 L212 602 L558 -4 L567 -4 L700 621 C705 644 709 656 717 665 C725 674 736 681 756 685 C767 688 779 689 803 692 L805 702 L585 702 L583 692 C604 691 619 690 632 687 C652 683 665 678 673 667 C680 658 681 642 677 621 L576 137 L263 702 Z M440 751 L444 751 L617 897 L618 900 L506 900 L440 751 Z " />
<glyph glyph-name="nacute" unicode="&#x144;" horiz-adv-x="555" d="M64 487 L64 483 L132 444 L21 0 L108 0 L144 145 C152 180 165 214 181 247 C197 280 215 311 236 340 C259 371 283 400 308 421 C344 454 377 473 400 473 C412 473 418 467 418 452 C418 444 416 434 413 419 L330 106 C323 78 320 59 320 43 C320 27 325 13 333 4 C341 -5 354 -10 369 -10 C400 -10 433 7 465 42 C488 66 511 97 531 134 L525 138 C510 118 496 100 481 85 C458 62 438 49 425 49 C414 49 410 55 410 67 C410 75 413 91 418 110 L499 415 C503 431 505 448 505 459 C505 483 500 499 491 511 C482 524 465 530 441 530 C392 530 332 490 272 415 C229 362 190 295 165 235 L241 530 L237 530 L64 487 Z M351 592 L357 592 L546 757 L547 761 L436 761 L351 592 Z " />
<glyph glyph-name="Ncommaaccent" unicode="&#x145;" horiz-adv-x="729" d="M263 702 L112 702 L110 692 C130 692 146 685 161 673 C173 664 183 650 196 629 L79 81 C74 58 70 46 62 37 C54 28 43 21 23 17 C12 14 0 13 -24 10 L-26 0 L193 0 L195 10 C174 11 159 12 146 15 C126 19 113 24 105 35 C98 44 97 60 101 81 L212 602 L558 -4 L567 -4 L700 621 C705 644 709 656 717 665 C725 674 736 681 756 685 C767 688 779 689 803 692 L805 702 L585 702 L583 692 C604 691 619 690 632 687 C652 683 665 678 673 667 C680 658 681 642 677 621 L576 137 L263 702 Z M291 -199 C274 -210 253 -217 230 -218 L228 -225 C264 -225 298 -216 325 -197 C356 -176 373 -146 373 -113 C373 -93 368 -77 357 -66 C346 -54 331 -48 312 -48 C292 -48 276 -54 264 -63 C251 -75 244 -90 244 -109 C244 -129 256 -144 277 -149 L326 -149 C322 -169 310 -186 291 -199 L291 -199 Z " />
<glyph glyph-name="ncommaaccent" unicode="&#x146;" horiz-adv-x="555" d="M64 487 L64 483 L132 444 L21 0 L108 0 L144 145 C152 180 165 214 181 247 C197 280 215 311 236 340 C259 371 283 400 308 421 C344 454 377 473 400 473 C412 473 418 467 418 452 C418 444 416 434 413 419 L330 106 C323 78 320 59 320 43 C320 27 325 13 333 4 C341 -5 354 -10 369 -10 C400 -10 433 7 465 42 C488 66 511 97 531 134 L525 138 C510 118 496 100 481 85 C458 62 438 49 425 49 C414 49 410 55 410 67 C410 75 413 91 418 110 L499 415 C503 431 505 448 505 459 C505 483 500 499 491 511 C482 524 465 530 441 530 C392 530 332 490 272 415 C229 362 190 295 165 235 L241 530 L237 530 L64 487 Z M192 -199 C175 -210 154 -217 131 -218 L129 -225 C165 -225 199 -216 226 -197 C257 -176 274 -146 274 -113 C274 -93 269 -77 258 -66 C247 -54 232 -48 213 -48 C193 -48 177 -54 165 -63 C152 -75 145 -90 145 -109 C145 -129 157 -144 178 -149 L227 -149 C223 -169 211 -186 192 -199 L192 -199 Z " />
<glyph glyph-name="Ncaron" unicode="&#x147;" horiz-adv-x="729" d="M263 702 L112 702 L110 692 C130 692 146 685 161 673 C173 664 183 650 196 629 L79 81 C74 58 70 46 62 37 C54 28 43 21 23 17 C12 14 0 13 -24 10 L-26 0 L193 0 L195 10 C174 11 159 12 146 15 C126 19 113 24 105 35 C98 44 97 60 101 81 L212 602 L558 -4 L567 -4 L700 621 C705 644 709 656 717 665 C725 674 736 681 756 685 C767 688 779 689 803 692 L805 702 L585 702 L583 692 C604 691 619 690 632 687 C652 683 665 678 673 667 C680 658 681 642 677 621 L576 137 L263 702 Z M642 910 L479 826 L364 910 L359 910 L434 761 L502 761 L647 910 L642 910 Z " />
<glyph glyph-name="ncaron" unicode="&#x148;" horiz-adv-x="555" d="M64 487 L64 483 L132 444 L21 0 L108 0 L144 145 C152 180 165 214 181 247 C197 280 215 311 236 340 C259 371 283 400 308 421 C344 454 377 473 400 473 C412 473 418 467 418 452 C418 444 416 434 413 419 L330 106 C323 78 320 59 320 43 C320 27 325 13 333 4 C341 -5 354 -10 369 -10 C400 -10 433 7 465 42 C488 66 511 97 531 134 L525 138 C510 118 496 100 481 85 C458 62 438 49 425 49 C414 49 410 55 410 67 C410 75 413 91 418 110 L499 415 C503 431 505 448 505 459 C505 483 500 499 491 511 C482 524 465 530 441 530 C392 530 332 490 272 415 C229 362 190 295 165 235 L241 530 L237 530 L64 487 Z M532 766 L369 658 L256 766 L250 766 L323 593 L391 593 L538 766 L532 766 Z " />
<glyph glyph-name="Eng" unicode="&#x14a;" horiz-adv-x="729" d="M503 -115 C540 -72 564 -23 577 44 L700 621 C705 644 709 656 717 665 C725 674 736 681 756 685 C767 688 779 689 803 692 L805 702 L585 702 L583 692 C604 691 619 690 632 687 C652 683 665 678 673 667 C680 658 681 642 677 621 L576 137 L263 702 L112 702 L110 692 C130 692 146 685 161 673 C173 664 183 650 196 629 L79 81 C74 58 70 46 62 37 C54 28 43 21 23 17 C12 14 0 13 -24 10 L-26 0 L193 0 L195 10 C174 11 159 12 146 15 C126 19 113 24 105 35 C98 44 97 60 101 81 L212 602 L528 46 C515 -14 497 -63 470 -104 C443 -147 407 -182 358 -217 L361 -220 C425 -187 470 -152 503 -115 L503 -115 Z " />
<glyph glyph-name="eng" unicode="&#x14b;" horiz-adv-x="518" d="M276 -90 L263 -132 C256 -149 251 -163 244 -171 C235 -184 225 -190 210 -190 C190 -190 174 -176 165 -151 C158 -134 155 -112 154 -87 L152 -87 C136 -88 122 -95 111 -103 C98 -114 91 -128 91 -144 C91 -165 101 -182 120 -193 C136 -202 156 -207 179 -207 C232 -207 274 -186 310 -139 C335 -107 358 -62 381 -3 C397 38 411 88 427 145 L499 415 C503 431 505 448 505 459 C505 483 500 499 491 511 C482 524 465 530 441 530 C392 530 332 490 272 415 C229 362 190 295 165 235 L241 530 L237 530 L64 487 L64 483 L132 444 L21 0 L108 0 L144 145 C152 180 165 214 181 247 C197 280 215 311 236 340 C259 371 283 400 308 421 C344 454 377 473 400 473 C412 473 418 467 418 452 C418 444 416 434 413 419 L299 -7 L288 -49 L276 -90 Z " />
<glyph glyph-name="Omacron" unicode="&#x14c;" horiz-adv-x="696" d="M228 641 C175 598 128 540 95 471 C63 403 45 330 45 262 C45 183 69 115 113 66 C158 17 225 -10 305 -10 C376 -10 444 14 505 61 C560 104 606 162 638 231 C670 298 688 372 688 440 C688 519 664 587 620 636 C575 685 508 712 428 712 C357 712 289 688 228 641 L228 641 Z M559 605 C578 562 587 507 587 440 C587 380 576 315 557 254 C534 187 503 129 466 86 C419 33 363 4 302 4 C243 4 201 36 174 96 C155 139 146 195 146 262 C146 322 157 387 176 448 C199 515 230 572 267 615 C314 668 370 697 431 697 C490 697 532 666 559 605 L559 605 Z M611 799 L330 799 L324 772 L605 772 L611 799 Z " />
<glyph glyph-name="omacron" unicode="&#x14d;" horiz-adv-x="480" d="M153 466 C116 431 82 385 59 333 C35 280 22 225 22 174 C22 122 36 77 61 45 C89 9 131 -10 180 -10 C231 -10 282 13 327 54 C364 89 398 135 421 187 C445 240 458 295 458 346 C458 398 444 443 419 475 C391 511 349 530 300 530 C249 530 198 507 153 466 L153 466 Z M119 68 C114 93 110 125 110 165 C110 210 118 259 131 306 C144 355 164 401 188 437 C223 488 262 516 299 516 C330 516 350 495 361 452 C366 427 370 395 370 355 C370 310 362 261 349 214 C336 165 316 119 292 83 C257 32 218 4 181 4 C150 4 130 25 119 68 L119 68 Z M468 649 L196 649 L191 623 L463 623 L468 649 Z " />
<glyph glyph-name="Obreve" unicode="&#x14e;" horiz-adv-x="696" d="M228 641 C175 598 128 540 95 471 C63 403 45 330 45 262 C45 183 69 115 113 66 C158 17 225 -10 305 -10 C376 -10 444 14 505 61 C560 104 606 162 638 231 C670 298 688 372 688 440 C688 519 664 587 620 636 C575 685 508 712 428 712 C357 712 289 688 228 641 L228 641 Z M559 605 C578 562 587 507 587 440 C587 380 576 315 557 254 C534 187 503 129 466 86 C419 33 363 4 302 4 C243 4 201 36 174 96 C155 139 146 195 146 262 C146 322 157 387 176 448 C199 515 230 572 267 615 C314 668 370 697 431 697 C490 697 532 666 559 605 L559 605 Z M469 751 C552 751 606 801 629 900 L623 900 C606 844 556 815 479 815 C444 815 418 820 401 831 C378 844 369 868 373 900 L367 900 C359 856 361 820 377 795 C394 766 426 751 469 751 L469 751 Z " />
<glyph glyph-name="obreve" unicode="&#x14f;" horiz-adv-x="480" d="M153 466 C116 431 82 385 59 333 C35 280 22 225 22 174 C22 122 36 77 61 45 C89 9 131 -10 180 -10 C231 -10 282 13 327 54 C364 89 398 135 421 187 C445 240 458 295 458 346 C458 398 444 443 419 475 C391 511 349 530 300 530 C249 530 198 507 153 466 L153 466 Z M119 68 C114 93 110 125 110 165 C110 210 118 259 131 306 C144 355 164 401 188 437 C223 488 262 516 299 516 C330 516 350 495 361 452 C366 427 370 395 370 355 C370 310 362 261 349 214 C336 165 316 119 292 83 C257 32 218 4 181 4 C150 4 130 25 119 68 L119 68 Z M423 647 C442 674 456 712 467 761 L460 761 C441 692 399 658 331 658 C262 658 235 692 244 761 L237 761 C228 717 228 680 237 652 C249 613 279 592 320 592 C364 592 398 610 423 647 L423 647 Z " />
<glyph glyph-name="Ohungarumlaut" unicode="&#x150;" horiz-adv-x="696" d="M228 641 C175 598 128 540 95 471 C63 403 45 330 45 262 C45 183 69 115 113 66 C158 17 225 -10 305 -10 C376 -10 444 14 505 61 C560 104 606 162 638 231 C670 298 688 372 688 440 C688 519 664 587 620 636 C575 685 508 712 428 712 C357 712 289 688 228 641 L228 641 Z M559 605 C578 562 587 507 587 440 C587 380 576 315 557 254 C534 187 503 129 466 86 C419 33 363 4 302 4 C243 4 201 36 174 96 C155 139 146 195 146 262 C146 322 157 387 176 448 C199 515 230 572 267 615 C314 668 370 697 431 697 C490 697 532 666 559 605 L559 605 Z M372 751 L555 896 L556 900 L451 900 L366 751 L372 751 Z M515 751 L698 896 L699 900 L594 900 L509 751 L515 751 Z " />
<glyph glyph-name="ohungarumlaut" unicode="&#x151;" horiz-adv-x="480" d="M153 466 C116 431 82 385 59 333 C35 280 22 225 22 174 C22 122 36 77 61 45 C89 9 131 -10 180 -10 C231 -10 282 13 327 54 C364 89 398 135 421 187 C445 240 458 295 458 346 C458 398 444 443 419 475 C391 511 349 530 300 530 C249 530 198 507 153 466 L153 466 Z M119 68 C114 93 110 125 110 165 C110 210 118 259 131 306 C144 355 164 401 188 437 C223 488 262 516 299 516 C330 516 350 495 361 452 C366 427 370 395 370 355 C370 310 362 261 349 214 C336 165 316 119 292 83 C257 32 218 4 181 4 C150 4 130 25 119 68 L119 68 Z M220 592 L421 757 L422 761 L325 761 L212 592 L220 592 Z M363 592 L564 757 L565 761 L468 761 L355 592 L363 592 Z " />
<glyph glyph-name="OE" unicode="&#x152;" horiz-adv-x="976" d="M260 651 C192 615 136 563 99 499 C62 435 43 362 43 282 C43 190 77 117 144 66 C201 23 282 0 378 0 L865 0 L941 200 L931 200 C900 147 871 106 842 78 C801 37 758 18 707 18 L624 18 C592 18 571 20 559 27 C539 36 533 53 540 84 L598 354 L750 354 C782 354 800 344 808 324 C813 309 814 291 813 254 L824 254 L870 472 L859 472 C847 439 835 418 823 403 C806 382 783 372 754 372 L602 372 L659 684 L829 684 C862 684 885 680 902 669 C921 657 934 638 945 609 C952 590 957 566 962 535 L971 535 L1002 702 L478 702 C399 702 325 684 260 651 L260 651 Z M203 91 C164 136 144 201 144 282 C144 350 155 415 178 471 C203 535 242 587 291 624 C343 664 405 684 470 684 L574 684 L433 18 L388 18 C307 18 244 43 203 91 L203 91 Z " />
<glyph glyph-name="oe" unicode="&#x153;" horiz-adv-x="746" d="M153 466 C116 431 82 385 59 333 C35 280 22 225 22 174 C22 122 36 77 61 45 C89 9 131 -10 180 -10 C243 -10 305 23 358 86 C370 55 389 31 413 15 C438 -2 468 -10 501 -10 C542 -10 582 5 619 36 C650 61 676 97 699 138 L692 142 C645 75 593 42 537 42 C500 42 470 58 453 90 C438 114 431 148 431 189 C431 205 431 222 434 239 C517 254 577 271 625 292 C706 327 746 374 746 433 C746 464 735 490 712 507 C692 522 665 530 632 530 C597 530 561 520 528 499 C497 482 470 458 445 427 C433 460 414 486 390 503 C365 520 335 530 300 530 C249 530 198 507 153 466 L153 466 Z M656 495 C663 484 667 469 667 450 C667 391 642 346 591 311 C554 286 503 265 436 250 C441 287 452 324 465 359 C481 398 500 431 521 458 C552 494 583 514 615 514 C634 514 647 507 656 495 L656 495 Z M119 68 C114 93 110 125 110 165 C110 210 118 259 131 306 C144 355 164 401 188 437 C223 488 262 516 299 516 C330 516 350 495 361 452 C366 427 370 395 370 355 C370 310 362 261 349 214 C336 165 316 119 292 83 C257 32 218 4 181 4 C150 4 130 25 119 68 L119 68 Z " />
<glyph glyph-name="Racute" unicode="&#x154;" horiz-adv-x="674" d="M122 692 C150 689 156 687 164 686 C184 682 193 675 197 663 C200 654 199 641 195 621 L79 81 C74 58 70 46 62 37 C54 28 43 21 23 17 C12 14 0 13 -24 10 L-26 0 L244 0 L246 10 C218 13 212 15 204 16 C184 20 175 27 171 39 C168 48 169 61 173 81 L226 326 L294 326 L385 140 C418 72 448 25 473 0 L632 0 L634 10 C598 11 569 28 540 63 C521 86 502 116 481 159 L388 338 C447 351 498 375 534 404 C581 441 605 489 605 544 C605 579 594 611 574 636 C554 660 527 678 491 689 C463 697 429 702 392 702 L124 702 L122 692 Z M470 646 C493 622 504 586 504 542 C504 479 482 428 441 393 C404 361 349 344 285 344 L230 344 L303 686 L367 686 C411 686 446 673 470 646 L470 646 Z M378 751 L382 751 L555 897 L556 900 L444 900 L378 751 Z " />
<glyph glyph-name="racute" unicode="&#x155;" horiz-adv-x="388" d="M106 0 C117 43 129 84 141 124 C156 167 170 207 186 244 C205 288 225 327 244 359 C279 414 310 443 335 443 C347 443 355 436 360 424 C363 415 364 403 363 390 L365 390 C413 411 437 441 437 477 C437 492 432 506 423 515 C414 524 401 530 385 530 C342 530 292 480 239 385 C210 330 180 262 153 189 L241 530 L237 530 L64 487 L64 483 L132 444 L21 0 L106 0 Z M290 592 L296 592 L485 757 L486 761 L375 761 L290 592 Z " />
<glyph glyph-name="Rcommaaccent" unicode="&#x156;" horiz-adv-x="674" d="M122 692 C150 689 156 687 164 686 C184 682 193 675 197 663 C200 654 199 641 195 621 L79 81 C74 58 70 46 62 37 C54 28 43 21 23 17 C12 14 0 13 -24 10 L-26 0 L244 0 L246 10 C218 13 212 15 204 16 C184 20 175 27 171 39 C168 48 169 61 173 81 L226 326 L294 326 L385 140 C418 72 448 25 473 0 L632 0 L634 10 C598 11 569 28 540 63 C521 86 502 116 481 159 L388 338 C447 351 498 375 534 404 C581 441 605 489 605 544 C605 579 594 611 574 636 C554 660 527 678 491 689 C463 697 429 702 392 702 L124 702 L122 692 Z M470 646 C493 622 504 586 504 542 C504 479 482 428 441 393 C404 361 349 344 285 344 L230 344 L303 686 L367 686 C411 686 446 673 470 646 L470 646 Z M263 -199 C246 -210 225 -217 202 -218 L200 -225 C236 -225 270 -216 297 -197 C328 -176 345 -146 345 -113 C345 -93 340 -77 329 -66 C318 -54 303 -48 284 -48 C264 -48 248 -54 236 -63 C223 -75 216 -90 216 -109 C216 -129 228 -144 249 -149 L298 -149 C294 -169 282 -186 263 -199 L263 -199 Z " />
<glyph glyph-name="rcommaaccent" unicode="&#x157;" horiz-adv-x="388" d="M106 0 C117 43 129 84 141 124 C156 167 170 207 186 244 C205 288 225 327 244 359 C279 414 310 443 335 443 C347 443 355 436 360 424 C363 415 364 403 363 390 L365 390 C413 411 437 441 437 477 C437 492 432 506 423 515 C414 524 401 530 385 530 C342 530 292 480 239 385 C210 330 180 262 153 189 L241 530 L237 530 L64 487 L64 483 L132 444 L21 0 L106 0 Z M29 -199 C12 -210 -9 -217 -32 -218 L-34 -225 C2 -225 36 -216 63 -197 C94 -176 111 -146 111 -113 C111 -93 106 -77 95 -66 C84 -54 69 -48 50 -48 C30 -48 14 -54 2 -63 C-11 -75 -18 -90 -18 -109 C-18 -129 -6 -144 15 -149 L64 -149 C60 -169 48 -186 29 -199 L29 -199 Z " />
<glyph glyph-name="Rcaron" unicode="&#x158;" horiz-adv-x="674" d="M122 692 C150 689 156 687 164 686 C184 682 193 675 197 663 C200 654 199 641 195 621 L79 81 C74 58 70 46 62 37 C54 28 43 21 23 17 C12 14 0 13 -24 10 L-26 0 L244 0 L246 10 C218 13 212 15 204 16 C184 20 175 27 171 39 C168 48 169 61 173 81 L226 326 L294 326 L385 140 C418 72 448 25 473 0 L632 0 L634 10 C598 11 569 28 540 63 C521 86 502 116 481 159 L388 338 C447 351 498 375 534 404 C581 441 605 489 605 544 C605 579 594 611 574 636 C554 660 527 678 491 689 C463 697 429 702 392 702 L124 702 L122 692 Z M470 646 C493 622 504 586 504 542 C504 479 482 428 441 393 C404 361 349 344 285 344 L230 344 L303 686 L367 686 C411 686 446 673 470 646 L470 646 Z M562 910 L399 826 L284 910 L279 910 L354 761 L422 761 L567 910 L562 910 Z " />
<glyph glyph-name="rcaron" unicode="&#x159;" horiz-adv-x="388" d="M106 0 C117 43 129 84 141 124 C156 167 170 207 186 244 C205 288 225 327 244 359 C279 414 310 443 335 443 C347 443 355 436 360 424 C363 415 364 403 363 390 L365 390 C413 411 437 441 437 477 C437 492 432 506 423 515 C414 524 401 530 385 530 C342 530 292 480 239 385 C210 330 180 262 153 189 L241 530 L237 530 L64 487 L64 483 L132 444 L21 0 L106 0 Z M471 766 L308 658 L195 766 L189 766 L262 593 L330 593 L477 766 L471 766 Z " />
<glyph glyph-name="Sacute" unicode="&#x15a;" horiz-adv-x="529" d="M344 698 C440 698 491 633 492 506 L501 506 L529 653 C504 670 474 685 442 696 C410 707 378 712 347 712 C307 712 269 705 236 690 C200 675 168 651 147 622 C123 591 110 554 110 517 C110 488 117 462 130 438 C142 417 160 398 185 378 C200 366 215 356 254 333 C290 312 303 302 316 293 C340 274 356 259 367 240 C380 219 387 195 387 170 C387 121 373 79 345 50 C317 21 277 5 228 5 C168 5 122 28 93 75 C70 112 57 164 56 229 L46 229 L20 62 C44 39 77 20 116 7 C149 -4 186 -10 225 -10 C266 -10 307 -1 344 16 C384 33 417 59 440 91 C465 124 479 164 479 205 C479 237 472 265 457 290 C445 313 426 333 399 354 C382 366 367 377 324 402 C291 422 279 429 266 438 C245 454 228 469 217 485 C204 504 197 525 197 548 C197 589 211 627 238 655 C265 683 301 698 344 698 L344 698 Z M361 751 L365 751 L538 897 L539 900 L427 900 L361 751 Z " />
<glyph glyph-name="sacute" unicode="&#x15b;" horiz-adv-x="373" d="M214 15 C242 31 267 53 286 78 C306 106 318 137 318 166 C318 185 312 203 301 223 C292 238 280 253 264 270 C253 281 244 289 219 312 C187 343 176 353 165 366 C144 390 134 412 134 432 C134 452 141 470 154 483 C167 496 185 503 205 503 C233 503 260 490 281 466 C300 445 311 418 315 387 L317 387 C330 392 342 400 351 409 C362 420 367 432 367 445 C367 472 354 495 330 511 C310 523 283 530 254 530 C226 530 197 524 172 509 C147 496 124 477 108 453 C89 428 79 400 79 375 C79 356 84 338 95 319 C103 304 115 288 131 271 L175 230 C208 199 220 188 231 175 C251 150 261 129 261 106 C261 82 252 61 235 45 C219 30 197 21 174 21 C142 21 110 38 86 69 C65 94 50 129 45 164 L43 164 C30 159 16 149 8 136 C-3 124 -7 108 -7 95 C-7 66 9 37 36 17 C59 0 90 -10 123 -10 C152 -10 185 -1 214 15 L214 15 Z M254 592 L260 592 L449 757 L450 761 L339 761 L254 592 Z " />
<glyph glyph-name="Scircumflex" unicode="&#x15c;" horiz-adv-x="529" d="M344 698 C440 698 491 633 492 506 L501 506 L529 653 C504 670 474 685 442 696 C410 707 378 712 347 712 C307 712 269 705 236 690 C200 675 168 651 147 622 C123 591 110 554 110 517 C110 488 117 462 130 438 C142 417 160 398 185 378 C200 366 215 356 254 333 C290 312 303 302 316 293 C340 274 356 259 367 240 C380 219 387 195 387 170 C387 121 373 79 345 50 C317 21 277 5 228 5 C168 5 122 28 93 75 C70 112 57 164 56 229 L46 229 L20 62 C44 39 77 20 116 7 C149 -4 186 -10 225 -10 C266 -10 307 -1 344 16 C384 33 417 59 440 91 C465 124 479 164 479 205 C479 237 472 265 457 290 C445 313 426 333 399 354 C382 366 367 377 324 402 C291 422 279 429 266 438 C245 454 228 469 217 485 C204 504 197 525 197 548 C197 589 211 627 238 655 C265 683 301 698 344 698 L344 698 Z M218 751 L223 751 L386 835 L501 751 L506 751 L431 900 L363 900 L218 751 Z " />
<glyph glyph-name="scircumflex" unicode="&#x15d;" horiz-adv-x="373" d="M214 15 C242 31 267 53 286 78 C306 106 318 137 318 166 C318 185 312 203 301 223 C292 238 280 253 264 270 C253 281 244 289 219 312 C187 343 176 353 165 366 C144 390 134 412 134 432 C134 452 141 470 154 483 C167 496 185 503 205 503 C233 503 260 490 281 466 C300 445 311 418 315 387 L317 387 C330 392 342 400 351 409 C362 420 367 432 367 445 C367 472 354 495 330 511 C310 523 283 530 254 530 C226 530 197 524 172 509 C147 496 124 477 108 453 C89 428 79 400 79 375 C79 356 84 338 95 319 C103 304 115 288 131 271 L175 230 C208 199 220 188 231 175 C251 150 261 129 261 106 C261 82 252 61 235 45 C219 30 197 21 174 21 C142 21 110 38 86 69 C65 94 50 129 45 164 L43 164 C30 159 16 149 8 136 C-3 124 -7 108 -7 95 C-7 66 9 37 36 17 C59 0 90 -10 123 -10 C152 -10 185 -1 214 15 L214 15 Z M127 592 L133 592 L296 700 L409 592 L415 592 L342 765 L274 765 L127 592 Z " />
<glyph glyph-name="Scedilla" unicode="&#x15e;" horiz-adv-x="529" d="M211 -202 C254 -185 277 -156 277 -119 C277 -95 265 -76 242 -64 C225 -55 202 -48 175 -47 L196 -9 C203 -10 209 -10 225 -10 C266 -10 307 -1 344 16 C384 33 417 59 440 91 C465 124 479 164 479 205 C479 237 472 265 457 290 C445 313 426 333 399 354 C382 366 367 377 324 402 C291 422 279 429 266 438 C245 454 228 469 217 485 C204 504 197 525 197 548 C197 589 211 627 238 655 C265 683 301 698 344 698 C440 698 491 633 492 506 L501 506 L529 653 C504 670 474 685 442 696 C410 707 378 712 347 712 C307 712 269 705 236 690 C200 675 168 651 147 622 C123 591 110 554 110 517 C110 488 117 462 130 438 C142 417 160 398 185 378 C200 366 215 356 254 333 C290 312 303 302 316 293 C340 274 356 259 367 240 C380 219 387 195 387 170 C387 121 373 79 345 50 C317 21 277 5 228 5 C168 5 122 28 93 75 C70 112 57 164 56 229 L46 229 L20 62 C40 43 67 27 96 14 C124 3 153 -4 184 -8 L132 -95 C191 -98 219 -113 219 -142 C219 -165 202 -184 171 -196 C150 -204 123 -209 95 -209 L98 -221 C142 -221 180 -215 211 -202 L211 -202 Z " />
<glyph glyph-name="scedilla" unicode="&#x15f;" horiz-adv-x="373" d="M214 15 C242 31 267 53 286 78 C306 106 318 137 318 166 C318 185 312 203 301 223 C292 238 280 253 264 270 C253 281 244 289 219 312 C187 343 176 353 165 366 C144 390 134 412 134 432 C134 452 141 470 154 483 C167 496 185 503 205 503 C233 503 260 490 281 466 C300 445 311 418 315 387 L317 387 C330 392 342 400 351 409 C362 420 367 432 367 445 C367 472 354 495 330 511 C310 523 283 530 254 530 C226 530 197 524 172 509 C147 496 124 477 108 453 C89 428 79 400 79 375 C79 356 84 338 95 319 C103 304 115 288 131 271 L175 230 C208 199 220 188 231 175 C251 150 261 129 261 106 C261 82 252 61 235 45 C219 30 197 21 174 21 C142 21 110 38 86 69 C65 94 50 129 45 164 L43 164 C30 159 16 149 8 136 C-3 124 -7 108 -7 95 C-7 70 5 44 26 25 C45 8 70 -4 98 -8 L46 -95 C105 -98 133 -113 133 -142 C133 -165 116 -184 85 -196 C64 -204 37 -209 9 -209 L12 -221 C56 -221 94 -215 125 -202 C168 -185 191 -156 191 -119 C191 -95 179 -76 156 -64 C139 -55 116 -48 89 -47 L110 -9 C113 -10 115 -10 123 -10 C152 -10 185 -1 214 15 L214 15 Z " />
<glyph glyph-name="Scaron" unicode="&#x160;" horiz-adv-x="529" d="M344 698 C440 698 491 633 492 506 L501 506 L529 653 C504 670 474 685 442 696 C410 707 378 712 347 712 C307 712 269 705 236 690 C200 675 168 651 147 622 C123 591 110 554 110 517 C110 488 117 462 130 438 C142 417 160 398 185 378 C200 366 215 356 254 333 C290 312 303 302 316 293 C340 274 356 259 367 240 C380 219 387 195 387 170 C387 121 373 79 345 50 C317 21 277 5 228 5 C168 5 122 28 93 75 C70 112 57 164 56 229 L46 229 L20 62 C44 39 77 20 116 7 C149 -4 186 -10 225 -10 C266 -10 307 -1 344 16 C384 33 417 59 440 91 C465 124 479 164 479 205 C479 237 472 265 457 290 C445 313 426 333 399 354 C382 366 367 377 324 402 C291 422 279 429 266 438 C245 454 228 469 217 485 C204 504 197 525 197 548 C197 589 211 627 238 655 C265 683 301 698 344 698 L344 698 Z M545 910 L382 826 L267 910 L262 910 L337 761 L405 761 L550 910 L545 910 Z " />
<glyph glyph-name="scaron" unicode="&#x161;" horiz-adv-x="373" d="M214 15 C242 31 267 53 286 78 C306 106 318 137 318 166 C318 185 312 203 301 223 C292 238 280 253 264 270 C253 281 244 289 219 312 C187 343 176 353 165 366 C144 390 134 412 134 432 C134 452 141 470 154 483 C167 496 185 503 205 503 C233 503 260 490 281 466 C300 445 311 418 315 387 L317 387 C330 392 342 400 351 409 C362 420 367 432 367 445 C367 472 354 495 330 511 C310 523 283 530 254 530 C226 530 197 524 172 509 C147 496 124 477 108 453 C89 428 79 400 79 375 C79 356 84 338 95 319 C103 304 115 288 131 271 L175 230 C208 199 220 188 231 175 C251 150 261 129 261 106 C261 82 252 61 235 45 C219 30 197 21 174 21 C142 21 110 38 86 69 C65 94 50 129 45 164 L43 164 C30 159 16 149 8 136 C-3 124 -7 108 -7 95 C-7 66 9 37 36 17 C59 0 90 -10 123 -10 C152 -10 185 -1 214 15 L214 15 Z M441 766 L278 658 L165 766 L159 766 L232 593 L300 593 L447 766 L441 766 Z " />
<glyph glyph-name="uni0162" unicode="&#x162;" horiz-adv-x="641" d="M278 -202 C321 -185 344 -156 344 -119 C344 -95 332 -76 309 -64 C292 -55 269 -48 242 -47 L268 0 L413 0 L415 10 C391 13 380 13 369 16 C348 20 336 27 332 38 C327 49 328 62 332 83 L460 684 L543 684 C584 684 609 676 625 659 C640 644 649 621 657 581 C660 560 664 536 669 493 L678 493 L708 702 L125 702 L65 493 L74 493 C94 530 111 559 126 583 C150 619 172 643 196 659 C223 676 251 684 294 684 L366 684 L238 83 C233 60 227 46 219 37 C210 28 197 22 176 17 C165 14 150 13 125 10 L123 0 L256 0 L199 -95 C258 -98 286 -113 286 -142 C286 -165 269 -184 238 -196 C217 -204 190 -209 162 -209 L165 -221 C209 -221 247 -215 278 -202 L278 -202 Z " />
<glyph glyph-name="uni0163" unicode="&#x163;" horiz-adv-x="309" d="M207 43 C231 67 253 100 276 139 L270 144 C226 84 185 53 148 53 C132 53 122 63 122 80 C122 92 125 106 130 130 L217 480 L333 480 L345 510 L224 510 L255 633 L251 633 C203 573 135 518 63 485 L61 480 L130 480 L46 140 C38 111 35 87 35 64 C35 45 40 29 48 17 C57 4 72 -5 89 -8 L37 -95 C96 -98 124 -113 124 -142 C124 -165 107 -184 76 -196 C55 -204 28 -209 0 -209 L3 -221 C47 -221 85 -215 116 -202 C159 -185 182 -156 182 -119 C182 -95 170 -76 147 -64 C130 -55 107 -48 80 -47 L100 -10 L106 -10 C139 -10 174 8 207 43 L207 43 Z " />
<glyph glyph-name="Tcaron" unicode="&#x164;" horiz-adv-x="641" d="M74 493 C94 530 111 559 126 583 C150 619 172 643 196 659 C223 676 251 684 294 684 L366 684 L238 83 C233 60 227 46 219 37 C210 28 197 22 176 17 C165 14 150 13 125 10 L123 0 L413 0 L415 10 C391 13 380 13 369 16 C348 20 336 27 332 38 C327 49 328 62 332 83 L460 684 L543 684 C584 684 609 676 625 659 C640 644 649 621 657 581 C660 560 664 536 669 493 L678 493 L708 702 L125 702 L65 493 L74 493 Z M607 910 L444 826 L329 910 L324 910 L399 761 L467 761 L612 910 L607 910 Z " />
<glyph glyph-name="tcaron" unicode="&#x165;" horiz-adv-x="309" d="M207 43 C231 67 253 100 276 139 L270 144 C226 84 185 53 148 53 C132 53 122 63 122 80 C122 92 125 106 130 130 L217 480 L333 480 L345 510 L224 510 L255 633 L251 633 C203 573 135 518 63 485 L61 480 L130 480 L46 140 C38 111 35 87 35 64 C35 41 42 23 54 10 C66 -3 85 -10 106 -10 C139 -10 174 8 207 43 L207 43 Z M337 772 L273 567 L277 567 L431 768 L432 772 L337 772 Z " />
<glyph glyph-name="Tbar" unicode="&#x166;" horiz-adv-x="641" d="M238 83 C233 60 227 46 219 37 C210 28 197 22 176 17 C165 14 150 13 125 10 L123 0 L413 0 L415 10 C391 13 380 13 369 16 C348 20 336 27 332 38 C327 49 328 62 332 83 L390 356 L505 356 L509 373 L394 373 L460 684 L543 684 C584 684 609 676 625 659 C640 644 649 621 657 581 C660 560 664 536 669 493 L678 493 L708 702 L125 702 L65 493 L74 493 C94 530 111 559 126 583 C150 619 172 643 196 659 C223 676 251 684 294 684 L366 684 L300 373 L184 373 L180 356 L296 356 L238 83 Z " />
<glyph glyph-name="tbar" unicode="&#x167;" horiz-adv-x="309" d="M207 43 C231 67 253 100 276 139 L270 144 C226 84 185 53 148 53 C132 53 122 63 122 80 C122 92 125 106 130 130 L184 346 L305 346 L311 374 L191 374 L217 480 L333 480 L345 510 L224 510 L255 633 L251 633 C203 573 135 518 63 485 L61 480 L130 480 L104 374 L43 374 L37 346 L97 346 L46 140 C38 111 35 87 35 64 C35 41 42 23 54 10 C66 -3 85 -10 106 -10 C139 -10 174 8 207 43 L207 43 Z " />
<glyph glyph-name="Utilde" unicode="&#x168;" horiz-adv-x="703" d="M284 665 C292 674 303 681 323 685 C334 688 346 689 370 692 L372 702 L102 702 L100 692 C128 689 134 687 142 686 C162 682 171 675 175 663 C178 654 177 641 173 621 L100 278 C81 193 93 121 133 70 C174 18 242 -10 327 -10 C402 -10 466 13 514 58 C559 101 591 161 607 237 L689 621 C694 644 698 656 706 665 C714 674 725 681 745 685 C756 688 768 689 792 692 L794 702 L596 702 L594 692 C622 689 628 687 636 686 C656 682 665 675 669 663 C672 654 671 641 667 621 L588 254 C572 178 547 123 511 86 C470 45 415 25 340 25 C297 25 262 39 235 64 C210 88 193 123 188 166 C184 201 186 239 195 282 L267 621 C272 644 276 656 284 665 L284 665 Z M650 877 C625 837 599 818 570 818 C561 818 551 820 540 827 C533 830 528 833 513 844 C498 856 491 860 484 864 C472 871 461 873 450 873 C423 873 401 859 380 830 C367 811 354 786 341 753 L346 750 C371 790 397 809 426 809 C435 809 445 807 456 800 C463 797 468 794 483 783 C498 771 505 767 512 763 C524 756 535 754 546 754 C573 754 595 768 616 797 C629 816 642 841 655 874 L650 877 Z " />
<glyph glyph-name="utilde" unicode="&#x169;" horiz-adv-x="555" d="M517 138 C502 118 488 100 473 85 C450 62 430 49 417 49 C406 49 402 55 402 67 C402 75 405 91 410 110 L511 522 L419 515 L379 357 C368 314 352 272 332 231 C311 190 285 151 258 120 C218 73 178 47 149 47 C132 47 122 57 122 76 C122 87 125 99 130 122 L235 530 L231 530 L58 487 L58 483 L126 444 L42 118 C37 99 34 82 34 67 C34 44 41 24 53 11 C66 -2 85 -10 108 -10 C143 -10 183 13 226 58 C257 89 285 127 312 170 C339 215 360 260 371 296 C331 148 313 68 313 43 C313 10 330 -10 361 -10 C392 -10 425 7 457 42 C480 66 503 97 523 134 L517 138 Z M518 723 C506 704 494 691 482 682 C467 673 451 668 431 668 C422 668 411 671 400 676 L371 695 C355 707 348 711 340 715 C328 720 317 724 305 724 C274 724 252 713 231 686 C218 669 204 643 188 610 L194 607 C205 626 217 639 229 648 C244 657 259 662 280 662 C291 662 300 660 312 653 C319 650 325 646 340 635 C357 623 364 619 372 615 C384 610 395 606 407 606 C438 606 460 617 481 644 C494 661 508 687 524 720 L518 723 Z " />
</font>
</svg>
